  0
SECTION
  2
HEADER
  9
$ACADVER
  1
AC1024
  9
$ACADMAINTVER
 70
6
  9
$DWGCODEPAGE
  3
ANSI_1252
  9
$LASTSAVEDBY
  1
ezdxf
  9
$INSBASE
 10
0.0
 20
0.0
 30
0.0
  9
$EXTMIN
 10
1e+20
 20
1e+20
 30
1e+20
  9
$EXTMAX
 10
-1e+20
 20
-1e+20
 30
-1e+20
  9
$LIMMIN
 10
0.0
 20
0.0
  9
$LIMMAX
 10
420.0
 20
297.0
  9
$ORTHOMODE
 70
0
  9
$REGENMODE
 70
1
  9
$FILLMODE
 70
1
  9
$QTEXTMODE
 70
0
  9
$MIRRTEXT
 70
1
  9
$LTSCALE
 40
1.0
  9
$ATTMODE
 70
1
  9
$TEXTSIZE
 40
2.5
  9
$TRACEWID
 40
1.0
  9
$TEXTSTYLE
  7
Standard
  9
$CLAYER
  8
0
  9
$CELTYPE
  6
ByLayer
  9
$CECOLOR
 62
256
  9
$CELTSCALE
 40
1.0
  9
$DISPSILH
 70
0
  9
$DIMSCALE
 40
1.0
  9
$DIMASZ
 40
2.5
  9
$DIMEXO
 40
0.625
  9
$DIMDLI
 40
3.75
  9
$DIMRND
 40
0.0
  9
$DIMDLE
 40
0.0
  9
$DIMEXE
 40
1.25
  9
$DIMTP
 40
0.0
  9
$DIMTM
 40
0.0
  9
$DIMTXT
 40
2.5
  9
$DIMCEN
 40
2.5
  9
$DIMTSZ
 40
0.0
  9
$DIMTOL
 70
0
  9
$DIMLIM
 70
0
  9
$DIMTIH
 70
0
  9
$DIMTOH
 70
0
  9
$DIMSE1
 70
0
  9
$DIMSE2
 70
0
  9
$DIMTAD
 70
1
  9
$DIMZIN
 70
8
  9
$DIMBLK
  1

  9
$DIMASO
 70
1
  9
$DIMSHO
 70
1
  9
$DIMPOST
  1

  9
$DIMAPOST
  1

  9
$DIMALT
 70
0
  9
$DIMALTD
 70
3
  9
$DIMALTF
 40
0.03937007874
  9
$DIMLFAC
 40
1.0
  9
$DIMTOFL
 70
1
  9
$DIMTVP
 40
0.0
  9
$DIMTIX
 70
0
  9
$DIMSOXD
 70
0
  9
$DIMSAH
 70
0
  9
$DIMBLK1
  1

  9
$DIMBLK2
  1

  9
$DIMSTYLE
  2
ISO-25
  9
$DIMCLRD
 70
0
  9
$DIMCLRE
 70
0
  9
$DIMCLRT
 70
0
  9
$DIMTFAC
 40
1.0
  9
$DIMGAP
 40
0.625
  9
$DIMJUST
 70
0
  9
$DIMSD1
 70
0
  9
$DIMSD2
 70
0
  9
$DIMTOLJ
 70
0
  9
$DIMTZIN
 70
8
  9
$DIMALTZ
 70
0
  9
$DIMALTTZ
 70
0
  9
$DIMUPT
 70
0
  9
$DIMDEC
 70
2
  9
$DIMTDEC
 70
2
  9
$DIMALTU
 70
2
  9
$DIMALTTD
 70
3
  9
$DIMTXSTY
  7
Standard
  9
$DIMAUNIT
 70
0
  9
$DIMADEC
 70
0
  9
$DIMALTRND
 40
0.0
  9
$DIMAZIN
 70
0
  9
$DIMDSEP
 70
44
  9
$DIMATFIT
 70
3
  9
$DIMFRAC
 70
0
  9
$DIMLDRBLK
  1

  9
$DIMLUNIT
 70
2
  9
$DIMLWD
 70
-2
  9
$DIMLWE
 70
-2
  9
$DIMTMOVE
 70
0
  9
$DIMFXL
 40
1.0
  9
$DIMFXLON
 70
0
  9
$DIMJOGANG
 40
0.785398163397
  9
$DIMTFILL
 70
0
  9
$DIMTFILLCLR
 70
0
  9
$DIMARCSYM
 70
0
  9
$DIMLTYPE
  6

  9
$DIMLTEX1
  6

  9
$DIMLTEX2
  6

  9
$DIMTXTDIRECTION
 70
0
  9
$LUNITS
 70
2
  9
$LUPREC
 70
4
  9
$SKETCHINC
 40
1.0
  9
$FILLETRAD
 40
10.0
  9
$AUNITS
 70
0
  9
$AUPREC
 70
2
  9
$MENU
  1
.
  9
$ELEVATION
 40
0.0
  9
$PELEVATION
 40
0.0
  9
$THICKNESS
 40
0.0
  9
$LIMCHECK
 70
0
  9
$CHAMFERA
 40
0.0
  9
$CHAMFERB
 40
0.0
  9
$CHAMFERC
 40
0.0
  9
$CHAMFERD
 40
0.0
  9
$SKPOLY
 70
0
  9
$TDCREATE
 40
2460650.9335879628
  9
$TDUCREATE
 40
2458532.153996898
  9
$TDUPDATE
 40
2460650.9335879628
  9
$TDUUPDATE
 40
2458532.1544311
  9
$TDINDWG
 40
0.0
  9
$TDUSRTIMER
 40
0.0
  9
$USRTIMER
 70
1
  9
$ANGBASE
 50
0.0
  9
$ANGDIR
 70
0
  9
$PDMODE
 70
0
  9
$PDSIZE
 40
0.0
  9
$PLINEWID
 40
0.0
  9
$SPLFRAME
 70
0
  9
$SPLINETYPE
 70
6
  9
$SPLINESEGS
 70
8
  9
$HANDSEED
  5
66
  9
$SURFTAB1
 70
6
  9
$SURFTAB2
 70
6
  9
$SURFTYPE
 70
6
  9
$SURFU
 70
6
  9
$SURFV
 70
6
  9
$UCSBASE
  2

  9
$UCSNAME
  2

  9
$UCSORG
 10
0.0
 20
0.0
 30
0.0
  9
$UCSXDIR
 10
1.0
 20
0.0
 30
0.0
  9
$UCSYDIR
 10
0.0
 20
1.0
 30
0.0
  9
$UCSORTHOREF
  2

  9
$UCSORTHOVIEW
 70
0
  9
$UCSORGTOP
 10
0.0
 20
0.0
 30
0.0
  9
$UCSORGBOTTOM
 10
0.0
 20
0.0
 30
0.0
  9
$UCSORGLEFT
 10
0.0
 20
0.0
 30
0.0
  9
$UCSORGRIGHT
 10
0.0
 20
0.0
 30
0.0
  9
$UCSORGFRONT
 10
0.0
 20
0.0
 30
0.0
  9
$UCSORGBACK
 10
0.0
 20
0.0
 30
0.0
  9
$PUCSBASE
  2

  9
$PUCSNAME
  2

  9
$PUCSORG
 10
0.0
 20
0.0
 30
0.0
  9
$PUCSXDIR
 10
1.0
 20
0.0
 30
0.0
  9
$PUCSYDIR
 10
0.0
 20
1.0
 30
0.0
  9
$PUCSORTHOREF
  2

  9
$PUCSORTHOVIEW
 70
0
  9
$PUCSORGTOP
 10
0.0
 20
0.0
 30
0.0
  9
$PUCSORGBOTTOM
 10
0.0
 20
0.0
 30
0.0
  9
$PUCSORGLEFT
 10
0.0
 20
0.0
 30
0.0
  9
$PUCSORGRIGHT
 10
0.0
 20
0.0
 30
0.0
  9
$PUCSORGFRONT
 10
0.0
 20
0.0
 30
0.0
  9
$PUCSORGBACK
 10
0.0
 20
0.0
 30
0.0
  9
$USERI1
 70
0
  9
$USERI2
 70
0
  9
$USERI3
 70
0
  9
$USERI4
 70
0
  9
$USERI5
 70
0
  9
$USERR1
 40
0.0
  9
$USERR2
 40
0.0
  9
$USERR3
 40
0.0
  9
$USERR4
 40
0.0
  9
$USERR5
 40
0.0
  9
$WORLDVIEW
 70
1
  9
$SHADEDGE
 70
3
  9
$SHADEDIF
 70
70
  9
$TILEMODE
 70
1
  9
$MAXACTVP
 70
64
  9
$PINSBASE
 10
0.0
 20
0.0
 30
0.0
  9
$PLIMCHECK
 70
0
  9
$PEXTMIN
 10
1e+20
 20
1e+20
 30
1e+20
  9
$PEXTMAX
 10
-1e+20
 20
-1e+20
 30
-1e+20
  9
$PLIMMIN
 10
0.0
 20
0.0
  9
$PLIMMAX
 10
420.0
 20
297.0
  9
$UNITMODE
 70
0
  9
$VISRETAIN
 70
1
  9
$PLINEGEN
 70
0
  9
$PSLTSCALE
 70
1
  9
$TREEDEPTH
 70
3020
  9
$CMLSTYLE
  2
Standard
  9
$CMLJUST
 70
0
  9
$CMLSCALE
 40
20.0
  9
$PROXYGRAPHICS
 70
1
  9
$MEASUREMENT
 70
1
  9
$CELWEIGHT
370
-1
  9
$ENDCAPS
280
0
  9
$JOINSTYLE
280
0
  9
$LWDISPLAY
290
0
  9
$INSUNITS
 70
6
  9
$HYPERLINKBASE
  1

  9
$STYLESHEET
  1

  9
$XEDIT
290
1
  9
$CEPSNTYPE
380
0
  9
$PSTYLEMODE
290
1
  9
$FINGERPRINTGUID
  2
{59CC384E-479D-44F7-A0C1-F750A9BBB7DA}
  9
$VERSIONGUID
  2
{CB7EC38D-7575-4DE2-8563-F5D96783A64C}
  9
$EXTNAMES
290
1
  9
$PSVPSCALE
 40
0.0
  9
$OLESTARTUP
290
0
  9
$SORTENTS
280
127
  9
$INDEXCTL
280
0
  9
$HIDETEXT
280
1
  9
$XCLIPFRAME
280
1
  9
$HALOGAP
280
0
  9
$OBSCOLOR
 70
257
  9
$OBSLTYPE
280
0
  9
$INTERSECTIONDISPLAY
280
0
  9
$INTERSECTIONCOLOR
 70
257
  9
$DIMASSOC
280
2
  9
$PROJECTNAME
  1

  9
$CAMERADISPLAY
290
0
  9
$LENSLENGTH
 40
50.0
  9
$CAMERAHEIGHT
 40
0.0
  9
$STEPSPERSEC
 40
24.0
  9
$STEPSIZE
 40
100.0
  9
$3DDWFPREC
 40
2.0
  9
$PSOLWIDTH
 40
0.005
  9
$PSOLHEIGHT
 40
0.08
  9
$LOFTANG1
 40
1.570796326795
  9
$LOFTANG2
 40
1.570796326795
  9
$LOFTMAG1
 40
0.0
  9
$LOFTMAG2
 40
0.0
  9
$LOFTPARAM
 70
7
  9
$LOFTNORMALS
280
1
  9
$LATITUDE
 40
37.795
  9
$LONGITUDE
 40
-122.394
  9
$NORTHDIRECTION
 40
0.0
  9
$TIMEZONE
 70
-8000
  9
$LIGHTGLYPHDISPLAY
280
1
  9
$TILEMODELIGHTSYNCH
280
1
  9
$CMATERIAL
347
20
  9
$SOLIDHIST
280
0
  9
$SHOWHIST
280
1
  9
$DWFFRAME
280
2
  9
$DGNFRAME
280
2
  9
$REALWORLDSCALE
290
1
  9
$INTERFERECOLOR
 62
256
  9
$CSHADOW
280
0
  9
$SHADOWPLANELOCATION
 40
0.0
  0
ENDSEC
  0
SECTION
  2
CLASSES
  0
CLASS
  1
ACDBDICTIONARYWDFLT
  2
AcDbDictionaryWithDefault
  3
ObjectDBX Classes
 90
0
 91
0
280
0
281
0
  0
CLASS
  1
SUN
  2
AcDbSun
  3
SCENEOE
 90
1153
 91
0
280
0
281
0
  0
CLASS
  1
VISUALSTYLE
  2
AcDbVisualStyle
  3
ObjectDBX Classes
 90
4095
 91
0
280
0
281
0
  0
CLASS
  1
MATERIAL
  2
AcDbMaterial
  3
ObjectDBX Classes
 90
1153
 91
0
280
0
281
0
  0
CLASS
  1
SCALE
  2
AcDbScale
  3
ObjectDBX Classes
 90
1153
 91
0
280
0
281
0
  0
CLASS
  1
TABLESTYLE
  2
AcDbTableStyle
  3
ObjectDBX Classes
 90
4095
 91
0
280
0
281
0
  0
CLASS
  1
MLEADERSTYLE
  2
AcDbMLeaderStyle
  3
ACDB_MLEADERSTYLE_CLASS
 90
4095
 91
0
280
0
281
0
  0
CLASS
  1
DICTIONARYVAR
  2
AcDbDictionaryVar
  3
ObjectDBX Classes
 90
0
 91
0
280
0
281
0
  0
CLASS
  1
CELLSTYLEMAP
  2
AcDbCellStyleMap
  3
ObjectDBX Classes
 90
1152
 91
0
280
0
281
0
  0
CLASS
  1
MENTALRAYRENDERSETTINGS
  2
AcDbMentalRayRenderSettings
  3
SCENEOE
 90
1024
 91
0
280
0
281
0
  0
CLASS
  1
ACDBDETAILVIEWSTYLE
  2
AcDbDetailViewStyle
  3
ObjectDBX Classes
 90
1025
 91
0
280
0
281
0
  0
CLASS
  1
ACDBSECTIONVIEWSTYLE
  2
AcDbSectionViewStyle
  3
ObjectDBX Classes
 90
1025
 91
0
280
0
281
0
  0
CLASS
  1
RASTERVARIABLES
  2
AcDbRasterVariables
  3
ISM
 90
0
 91
0
280
0
281
0
  0
CLASS
  1
LAYOUT
  2
AcDbLayout
  3
ObjectDBX Classes
 90
0
 91
0
280
0
281
0
  0
CLASS
  1
ACDBPLACEHOLDER
  2
AcDbPlaceHolder
  3
ObjectDBX Classes
 90
0
 91
0
280
0
281
0
  0
ENDSEC
  0
SECTION
  2
TABLES
  0
TABLE
  2
VPORT
  5
8
330
0
100
AcDbSymbolTable
 70
1
  0
VPORT
  5
23
330
8
100
AcDbSymbolTableRecord
100
AcDbViewportTableRecord
  2
*Active
 70
0
 10
0.0
 20
0.0
 11
1.0
 21
1.0
 12
0.0
 22
0.0
 13
0.0
 23
0.0
 14
0.5
 24
0.5
 15
0.5
 25
0.5
 16
0.0
 26
0.0
 36
1.0
 17
0.0
 27
0.0
 37
0.0
 40
1000.0
 41
1.34
 42
50.0
 43
0.0
 44
0.0
 50
0.0
 51
0.0
 71
0
 72
1000
 73
1
 74
3
 75
0
 76
0
 77
0
 78
0
281
0
 65
0
146
0.0
  0
ENDTAB
  0
TABLE
  2
LTYPE
  5
2
330
0
100
AcDbSymbolTable
 70
3
  0
LTYPE
  5
24
330
2
100
AcDbSymbolTableRecord
100
AcDbLinetypeTableRecord
  2
ByBlock
 70
0
  3

 72
65
 73
0
 40
0.0
  0
LTYPE
  5
25
330
2
100
AcDbSymbolTableRecord
100
AcDbLinetypeTableRecord
  2
ByLayer
 70
0
  3

 72
65
 73
0
 40
0.0
  0
LTYPE
  5
26
330
2
100
AcDbSymbolTableRecord
100
AcDbLinetypeTableRecord
  2
Continuous
 70
0
  3

 72
65
 73
0
 40
0.0
  0
ENDTAB
  0
TABLE
  2
LAYER
  5
1
330
0
100
AcDbSymbolTable
 70
2
  0
LAYER
  5
27
330
1
100
AcDbSymbolTableRecord
100
AcDbLayerTableRecord
  2
0
 70
0
 62
7
  6
Continuous
370
-3
390
13
347
21
  0
LAYER
  5
28
330
1
100
AcDbSymbolTableRecord
100
AcDbLayerTableRecord
  2
Defpoints
 70
0
 62
7
  6
Continuous
290
0
370
-3
390
13
347
21
  0
ENDTAB
  0
TABLE
  2
STYLE
  5
5
330
0
100
AcDbSymbolTable
 70
1
  0
STYLE
  5
29
330
5
100
AcDbSymbolTableRecord
100
AcDbTextStyleTableRecord
  2
Standard
 70
0
 40
0.0
 41
1.0
 50
0.0
 71
0
 42
2.5
  3
txt
  4

  0
ENDTAB
  0
TABLE
  2
VIEW
  5
7
330
0
100
AcDbSymbolTable
 70
0
  0
ENDTAB
  0
TABLE
  2
UCS
  5
6
330
0
100
AcDbSymbolTable
 70
0
  0
ENDTAB
  0
TABLE
  2
APPID
  5
3
330
0
100
AcDbSymbolTable
 70
3
  0
APPID
  5
2A
330
3
100
AcDbSymbolTableRecord
100
AcDbRegAppTableRecord
  2
ACAD
 70
0
  0
APPID
  5
63
330
3
100
AcDbSymbolTableRecord
100
AcDbRegAppTableRecord
  2
HATCHBACKGROUNDCOLOR
 70
0
  0
APPID
  5
64
330
3
100
AcDbSymbolTableRecord
100
AcDbRegAppTableRecord
  2
EZDXF
 70
0
  0
ENDTAB
  0
TABLE
  2
DIMSTYLE
  5
4
330
0
100
AcDbSymbolTable
 70
1
100
AcDbDimStyleTable
  0
DIMSTYLE
105
2B
330
4
100
AcDbSymbolTableRecord
100
AcDbDimStyleTableRecord
  2
Standard
 70
0
 40
1.0
 41
2.5
 42
0.625
 43
3.75
 44
1.25
 45
0.0
 46
0.0
 47
0.0
 48
0.0
 49
2.5
140
2.5
141
2.5
142
0.0
143
0.03937007874
144
1.0
145
0.0
146
1.0
147
0.625
148
0.0
 69
0
 70
0
 71
0
 72
0
 73
0
 74
0
 75
0
 76
0
 77
1
 78
8
 79
3
170
0
171
3
172
1
173
0
174
0
175
0
176
0
177
0
178
0
179
2
271
2
272
2
273
2
274
3
275
0
276
0
277
2
278
44
279
0
280
0
281
0
282
0
283
0
284
8
285
0
286
0
288
0
289
3
290
0
371
-2
372
-2
  0
ENDTAB
  0
TABLE
  2
BLOCK_RECORD
  5
9
330
0
100
AcDbSymbolTable
 70
2
  0
BLOCK_RECORD
  5
17
330
9
100
AcDbSymbolTableRecord
100
AcDbBlockTableRecord
  2
*Model_Space
340
1A
 70
0
280
1
281
0
  0
BLOCK_RECORD
  5
1B
330
9
100
AcDbSymbolTableRecord
100
AcDbBlockTableRecord
  2
*Paper_Space
340
1E
 70
0
280
1
281
0
  0
ENDTAB
  0
ENDSEC
  0
SECTION
  2
BLOCKS
  0
BLOCK
  5
18
330
17
100
AcDbEntity
  8
0
100
AcDbBlockBegin
  2
*Model_Space
 70
0
 10
0.0
 20
0.0
 30
0.0
  3
*Model_Space
  1

  0
ENDBLK
  5
19
330
17
100
AcDbEntity
  8
0
100
AcDbBlockEnd
  0
BLOCK
  5
1C
330
1B
100
AcDbEntity
  8
0
100
AcDbBlockBegin
  2
*Paper_Space
 70
0
 10
0.0
 20
0.0
 30
0.0
  3
*Paper_Space
  1

  0
ENDBLK
  5
1D
330
1B
100
AcDbEntity
  8
0
100
AcDbBlockEnd
  0
ENDSEC
  0
SECTION
  2
ENTITIES
  0
LWPOLYLINE
  5
2F
330
17
100
AcDbEntity
  8
0
100
AcDbPolyline
 90
5
 70
0
 10
168.3078528040323
 20
28.307852804032304
 10
168.3078528040323
 20
-28.30785280403231
 10
-118.3078528040323
 20
-28.30785280403231
 10
-118.3078528040323
 20
28.307852804032304
 10
168.3078528040323
 20
28.307852804032304
  0
LWPOLYLINE
  5
30
330
17
100
AcDbEntity
  8
0
100
AcDbPolyline
 90
17
 70
0
 10
-107.76776695296637
 20
-17.76776695296637
 10
-106.95670858091272
 20
-18.30969883127822
 10
-106.0
 20
-18.5
 10
-105.04329141908728
 20
-18.30969883127822
 10
-104.23223304703363
 20
-17.76776695296637
 10
-103.69030116872179
 20
-16.956708580912725
 10
-103.5
 20
-16.0
 10
-103.69030116872179
 20
-15.043291419087273
 10
-104.23223304703363
 20
-14.232233047033631
 10
-105.04329141908727
 20
-13.690301168721783
 10
-106.0
 20
-13.5
 10
-106.95670858091273
 20
-13.690301168721785
 10
-107.76776695296637
 20
-14.232233047033631
 10
-108.30969883127821
 20
-15.043291419087275
 10
-108.5
 20
-16.0
 10
-108.30969883127821
 20
-16.956708580912725
 10
-107.76776695296637
 20
-17.76776695296637
  0
LWPOLYLINE
  5
31
330
17
100
AcDbEntity
  8
0
100
AcDbPolyline
 90
17
 70
0
 10
154.23223304703365
 20
-17.76776695296637
 10
155.04329141908727
 20
-18.30969883127822
 10
156.0
 20
-18.5
 10
156.95670858091273
 20
-18.30969883127822
 10
157.76776695296638
 20
-17.76776695296637
 10
158.3096988312782
 20
-16.956708580912725
 10
158.5
 20
-16.0
 10
158.3096988312782
 20
-15.043291419087273
 10
157.76776695296635
 20
-14.232233047033631
 10
156.95670858091273
 20
-13.690301168721783
 10
156.0
 20
-13.5
 10
155.04329141908727
 20
-13.690301168721785
 10
154.23223304703362
 20
-14.232233047033631
 10
153.6903011687218
 20
-15.043291419087275
 10
153.5
 20
-16.0
 10
153.6903011687218
 20
-16.956708580912725
 10
154.23223304703365
 20
-17.76776695296637
  0
LWPOLYLINE
  5
32
330
17
100
AcDbEntity
  8
0
100
AcDbPolyline
 90
17
 70
0
 10
-107.76776695296637
 20
14.232233047033631
 10
-106.95670858091272
 20
13.690301168721783
 10
-106.0
 20
13.5
 10
-105.04329141908728
 20
13.690301168721783
 10
-104.23223304703363
 20
14.232233047033631
 10
-103.69030116872179
 20
15.043291419087275
 10
-103.5
 20
16.0
 10
-103.69030116872179
 20
16.956708580912725
 10
-104.23223304703363
 20
17.76776695296637
 10
-105.04329141908727
 20
18.309698831278215
 10
-106.0
 20
18.5
 10
-106.95670858091273
 20
18.309698831278215
 10
-107.76776695296637
 20
17.76776695296637
 10
-108.30969883127821
 20
16.956708580912725
 10
-108.5
 20
16.0
 10
-108.30969883127821
 20
15.043291419087275
 10
-107.76776695296637
 20
14.232233047033631
  0
LWPOLYLINE
  5
33
330
17
100
AcDbEntity
  8
0
100
AcDbPolyline
 90
17
 70
0
 10
154.23223304703365
 20
14.232233047033631
 10
155.04329141908727
 20
13.690301168721783
 10
156.0
 20
13.5
 10
156.95670858091273
 20
13.690301168721783
 10
157.76776695296638
 20
14.232233047033631
 10
158.3096988312782
 20
15.043291419087275
 10
158.5
 20
16.0
 10
158.3096988312782
 20
16.956708580912725
 10
157.76776695296635
 20
17.76776695296637
 10
156.95670858091273
 20
18.309698831278215
 10
156.0
 20
18.5
 10
155.04329141908727
 20
18.309698831278215
 10
154.23223304703362
 20
17.76776695296637
 10
153.6903011687218
 20
16.956708580912725
 10
153.5
 20
16.0
 10
153.6903011687218
 20
15.043291419087275
 10
154.23223304703365
 20
14.232233047033631
  0
LWPOLYLINE
  5
34
330
17
100
AcDbEntity
  8
0
100
AcDbPolyline
 90
11
 70
0
 10
-92.9822265625
 20
-15.90703125
 10
-93.4220703125
 20
-15.90703125
 10
-94.1564453125
 20
-18.009375
 10
-94.8845703125
 20
-15.90703125
 10
-95.3580078125
 20
-15.90703125
 10
-94.3736328125
 20
-18.5046875
 10
-94.6261015625
 20
-19.03078125
 10
-95.0679140625
 20
-19.1109375
 10
-94.9241171875
 20
-19.5474921875
 10
-94.2632890625
 20
-19.21453125
 10
-92.9822265625
 20
-15.90703125
  0
LWPOLYLINE
  5
35
330
17
100
AcDbEntity
  8
0
100
AcDbPolyline
 90
15
 70
0
 10
-97.72470703125
 20
-17.215625
 10
-98.00201953125
 20
-18.05778125
 10
-97.46230078125
 20
-18.52521875
 10
-96.48405078125
 20
-18.3853125
 10
-96.19736328125
 20
-18.18046875
 10
-96.10986328125
 20
-18.5
 10
-95.65048828125
 20
-18.5
 10
-95.84091796875
 20
-16.3196015625
 10
-96.34220703125
 20
-15.8984375
 10
-97.38173828125
 20
-15.940625
 10
-97.96298828125
 20
-16.646875
 10
-96.73048828125
 20
-16.2184375
 10
-96.31173828125
 20
-16.41134375
 10
-96.23408203125
 20
-16.8546875
 10
-97.72470703125
 20
-17.215625
  0
LWPOLYLINE
  5
36
330
17
100
AcDbEntity
  8
0
100
AcDbPolyline
 90
14
 70
0
 10
-92.752296875
 20
-17.09778125
 10
-92.4220703125
 20
-18.20859375
 10
-91.4310234375
 20
-18.5563984375
 10
-90.5328125
 20
-18.0744140625
 10
-90.3798828125
 20
-17.72109375
 10
-90.8337890625
 20
-17.66484375
 10
-91.2138671875
 20
-18.134859375
 10
-91.8154296875
 20
-18.140234375
 10
-92.294203125
 20
-17.39909375
 10
-90.3673828125
 20
-17.315625
 10
-90.6947265625
 20
-16.20234375
 10
-91.4425703125
 20
-15.851976562499999
 10
-92.349453125
 20
-16.1414296875
 10
-92.752296875
 20
-17.09778125
  0
LWPOLYLINE
  5
37
330
17
100
AcDbEntity
  8
0
100
AcDbPolyline
 90
10
 70
0
 10
-89.83271484375
 20
-18.5
 10
-89.39365234375
 20
-18.5
 10
-89.27083984375
 20
-16.5173125
 10
-88.57568359375
 20
-16.39765625
 10
-88.42412109375
 20
-15.98984375
 10
-88.99468359375
 20
-15.8625625
 10
-89.37771484375
 20
-16.197218749999998
 10
-89.43740234375
 20
-15.90703125
 10
-89.83271484375
 20
-15.90703125
 10
-89.83271484375
 20
-18.5
  0
LWPOLYLINE
  5
38
330
17
100
AcDbEntity
  8
0
100
AcDbPolyline
 90
9
 70
0
 10
-84.8942734375
 20
-15.3143125
 10
-85.408953125
 20
-14.94815625
 10
-86.150234375
 20
-14.98190625
 10
-86.84873437499999
 20
-16.06240625
 10
-86.541796875
 20
-18.18984375
 10
-85.927296875
 20
-18.54609375
 10
-85.1312890625
 20
-18.390078125
 10
-84.57378125
 20
-17.0911015625
 10
-84.8942734375
 20
-15.3143125
  0
LWPOLYLINE
  5
39
330
17
100
AcDbEntity
  8
0
100
AcDbPolyline
 90
7
 70
0
 10
-98.39765625
 20
-18.07734375
 10
-100.16015625
 20
-18.07734375
 10
-100.16015625
 20
-14.92109375
 10
-100.63359375
 20
-14.92109375
 10
-100.63359375
 20
-18.5
 10
-98.39765625
 20
-18.5
 10
-98.39765625
 20
-18.07734375
  0
LWPOLYLINE
  5
3A
330
17
100
AcDbEntity
  8
0
100
AcDbPolyline
 90
25
 70
0
 10
-59.13397459621556
 20
12.0
 10
-58.13507792619129
 20
12.0
 10
-58.154179685262925
 20
12.193943414571402
 10
-58.15422700683786
 20
12.19418131619391
 10
-58.303467292890225
 20
12.554479238836153
 10
-58.3035746278577
 20
12.554639876967002
 10
-58.57933471925799
 20
12.830399968364164
 10
-58.57949535738888
 20
12.830507303331657
 10
-58.939793280007635
 20
12.979747589374911
 10
-58.9400311816302
 20
12.97979491094986
 10
-59.135023723065345
 20
12.998999999999999
 10
-60.864976276934655
 20
12.998999999999999
 10
-61.0599688183698
 20
12.97979491094986
 10
-61.060206719992365
 20
12.979747589374911
 10
-61.42050464261112
 20
12.830507303331657
 10
-61.42066528074201
 20
12.830399968364164
 10
-61.6964253721423
 20
12.554639876967002
 10
-61.696532707109775
 20
12.554479238836153
 10
-61.84577299316214
 20
12.19418131619391
 10
-61.845820314737075
 20
12.193943414571402
 10
-61.86492207380871
 20
12.0
 10
-60.86602540378444
 20
12.0
 10
-60.86602540378444
 20
7.5
 10
-59.13397459621556
 20
7.5
 10
-59.13397459621556
 20
12.0
  0
LWPOLYLINE
  5
3B
330
17
100
AcDbEntity
  8
0
100
AcDbPolyline
 90
5
 70
0
 10
-59.13397459621556
 20
2.5
 10
-60.86602540378444
 20
2.5
 10
-60.86602540378444
 20
-2.5
 10
-59.13397459621556
 20
-2.5
 10
-59.13397459621556
 20
2.5
  0
LWPOLYLINE
  5
3C
330
17
100
AcDbEntity
  8
0
100
AcDbPolyline
 90
25
 70
0
 10
-61.845820314737075
 20
-12.193943414571402
 10
-61.84577299316214
 20
-12.19418131619391
 10
-61.696532707109775
 20
-12.554479238836153
 10
-61.6964253721423
 20
-12.554639876967002
 10
-61.42066528074201
 20
-12.830399968364164
 10
-61.42050464261112
 20
-12.830507303331657
 10
-61.060206719992365
 20
-12.979747589374911
 10
-61.0599688183698
 20
-12.97979491094986
 10
-60.864976276934655
 20
-12.998999999999999
 10
-59.135023723065345
 20
-12.998999999999999
 10
-58.9400311816302
 20
-12.97979491094986
 10
-58.939793280007635
 20
-12.979747589374911
 10
-58.57949535738888
 20
-12.830507303331657
 10
-58.57933471925799
 20
-12.830399968364164
 10
-58.3035746278577
 20
-12.554639876967002
 10
-58.303467292890225
 20
-12.554479238836153
 10
-58.15422700683786
 20
-12.19418131619391
 10
-58.154179685262925
 20
-12.193943414571402
 10
-58.13507792619129
 20
-12.0
 10
-59.13397459621556
 20
-12.0
 10
-59.13397459621556
 20
-7.5
 10
-60.86602540378444
 20
-7.5
 10
-60.86602540378444
 20
-12.0
 10
-61.86492207380871
 20
-12.0
 10
-61.845820314737075
 20
-12.193943414571402
  0
LWPOLYLINE
  5
3D
330
17
100
AcDbEntity
  8
0
100
AcDbPolyline
 90
25
 70
0
 10
-19.133974596215563
 20
12.0
 10
-18.135077926191297
 20
12.0
 10
-18.154179685266396
 20
12.193943414588881
 10
-18.15422700684134
 20
12.194181316211424
 10
-18.30346729288601
 20
12.55447923882984
 10
-18.3035746278535
 20
12.554639876960723
 10
-18.579334719253783
 20
12.830399968361352
 10
-18.579495357384666
 20
12.830507303328847
 10
-18.939793280009372
 20
12.979747589375258
 10
-18.94003118163194
 20
12.979794910950206
 10
-19.135023723065338
 20
12.998999999999999
 10
-20.864976276934662
 20
12.998999999999999
 10
-21.05996881836806
 20
12.979794910950206
 10
-21.060206719990628
 20
12.979747589375258
 10
-21.420504642615334
 20
12.830507303328847
 10
-21.420665280746217
 20
12.830399968361352
 10
-21.6964253721465
 20
12.554639876960723
 10
-21.69653270711399
 20
12.55447923882984
 10
-21.84577299315866
 20
12.194181316211424
 10
-21.845820314733604
 20
12.193943414588881
 10
-21.864922073808703
 20
12.0
 10
-20.866025403784437
 20
12.0
 10
-20.86602540378444
 20
7.5
 10
-19.13397459621556
 20
7.5
 10
-19.133974596215563
 20
12.0
  0
LWPOLYLINE
  5
3E
330
17
100
AcDbEntity
  8
0
100
AcDbPolyline
 90
5
 70
0
 10
-19.13397459621556
 20
2.5
 10
-20.86602540378444
 20
2.5
 10
-20.86602540378444
 20
-2.5
 10
-19.13397459621556
 20
-2.5
 10
-19.13397459621556
 20
2.5
  0
LWPOLYLINE
  5
3F
330
17
100
AcDbEntity
  8
0
100
AcDbPolyline
 90
25
 70
0
 10
-21.845820314733604
 20
-12.193943414588881
 10
-21.84577299315866
 20
-12.194181316211424
 10
-21.69653270711399
 20
-12.55447923882984
 10
-21.6964253721465
 20
-12.554639876960723
 10
-21.420665280746217
 20
-12.830399968361352
 10
-21.420504642615334
 20
-12.830507303328847
 10
-21.060206719990628
 20
-12.979747589375258
 10
-21.05996881836806
 20
-12.979794910950206
 10
-20.864976276934662
 20
-12.998999999999999
 10
-19.135023723065338
 20
-12.998999999999999
 10
-18.94003118163194
 20
-12.979794910950206
 10
-18.939793280009372
 20
-12.979747589375258
 10
-18.579495357384666
 20
-12.830507303328847
 10
-18.579334719253783
 20
-12.830399968361352
 10
-18.3035746278535
 20
-12.554639876960723
 10
-18.30346729288601
 20
-12.55447923882984
 10
-18.15422700684134
 20
-12.194181316211424
 10
-18.154179685266396
 20
-12.193943414588881
 10
-18.135077926191297
 20
-12.0
 10
-19.133974596215563
 20
-12.0
 10
-19.13397459621556
 20
-7.5
 10
-20.86602540378444
 20
-7.5
 10
-20.866025403784437
 20
-12.0
 10
-21.864922073808703
 20
-12.0
 10
-21.845820314733604
 20
-12.193943414588881
  0
LWPOLYLINE
  5
40
330
17
100
AcDbEntity
  8
0
100
AcDbPolyline
 90
25
 70
0
 10
20.866025403784437
 20
12.0
 10
21.864922073808703
 20
12.0
 10
21.845820314733604
 20
12.193943414588881
 10
21.84577299315866
 20
12.194181316211424
 10
21.69653270711399
 20
12.55447923882984
 10
21.6964253721465
 20
12.554639876960723
 10
21.420665280746217
 20
12.830399968361352
 10
21.420504642615334
 20
12.830507303328847
 10
21.060206719990628
 20
12.979747589375258
 10
21.05996881836806
 20
12.979794910950206
 10
20.864976276934662
 20
12.998999999999999
 10
19.135023723065338
 20
12.998999999999999
 10
18.94003118163194
 20
12.979794910950206
 10
18.939793280009372
 20
12.979747589375258
 10
18.579495357384666
 20
12.830507303328847
 10
18.579334719253783
 20
12.830399968361352
 10
18.3035746278535
 20
12.554639876960723
 10
18.30346729288601
 20
12.55447923882984
 10
18.15422700684134
 20
12.194181316211424
 10
18.154179685266396
 20
12.193943414588881
 10
18.135077926191297
 20
12.0
 10
19.133974596215563
 20
12.0
 10
19.13397459621556
 20
7.5
 10
20.86602540378444
 20
7.5
 10
20.866025403784437
 20
12.0
  0
LWPOLYLINE
  5
41
330
17
100
AcDbEntity
  8
0
100
AcDbPolyline
 90
5
 70
0
 10
20.86602540378444
 20
2.5
 10
19.13397459621556
 20
2.5
 10
19.13397459621556
 20
-2.5
 10
20.86602540378444
 20
-2.5
 10
20.86602540378444
 20
2.5
  0
LWPOLYLINE
  5
42
330
17
100
AcDbEntity
  8
0
100
AcDbPolyline
 90
25
 70
0
 10
18.154179685266396
 20
-12.193943414588881
 10
18.15422700684134
 20
-12.194181316211424
 10
18.30346729288601
 20
-12.55447923882984
 10
18.3035746278535
 20
-12.554639876960723
 10
18.579334719253783
 20
-12.830399968361352
 10
18.579495357384666
 20
-12.830507303328847
 10
18.939793280009372
 20
-12.979747589375258
 10
18.94003118163194
 20
-12.979794910950206
 10
19.135023723065338
 20
-12.998999999999999
 10
20.864976276934662
 20
-12.998999999999999
 10
21.05996881836806
 20
-12.979794910950206
 10
21.060206719990628
 20
-12.979747589375258
 10
21.420504642615334
 20
-12.830507303328847
 10
21.420665280746217
 20
-12.830399968361352
 10
21.6964253721465
 20
-12.554639876960723
 10
21.69653270711399
 20
-12.55447923882984
 10
21.84577299315866
 20
-12.194181316211424
 10
21.845820314733604
 20
-12.193943414588881
 10
21.864922073808703
 20
-12.0
 10
20.866025403784437
 20
-12.0
 10
20.86602540378444
 20
-7.5
 10
19.13397459621556
 20
-7.5
 10
19.133974596215563
 20
-12.0
 10
18.135077926191297
 20
-12.0
 10
18.154179685266396
 20
-12.193943414588881
  0
LWPOLYLINE
  5
43
330
17
100
AcDbEntity
  8
0
100
AcDbPolyline
 90
25
 70
0
 10
60.86602540378444
 20
12.0
 10
61.86492207380871
 20
12.0
 10
61.845820314737075
 20
12.193943414571402
 10
61.84577299316214
 20
12.19418131619391
 10
61.696532707109775
 20
12.554479238836153
 10
61.6964253721423
 20
12.554639876967002
 10
61.42066528074201
 20
12.830399968364164
 10
61.42050464261112
 20
12.830507303331657
 10
61.060206719992365
 20
12.979747589374911
 10
61.0599688183698
 20
12.97979491094986
 10
60.864976276934655
 20
12.998999999999999
 10
59.135023723065345
 20
12.998999999999999
 10
58.9400311816302
 20
12.97979491094986
 10
58.939793280007635
 20
12.979747589374911
 10
58.57949535738888
 20
12.830507303331657
 10
58.57933471925799
 20
12.830399968364164
 10
58.3035746278577
 20
12.554639876967002
 10
58.303467292890225
 20
12.554479238836153
 10
58.15422700683786
 20
12.19418131619391
 10
58.154179685262925
 20
12.193943414571402
 10
58.13507792619129
 20
12.0
 10
59.13397459621556
 20
12.0
 10
59.13397459621556
 20
7.5
 10
60.86602540378444
 20
7.5
 10
60.86602540378444
 20
12.0
  0
LWPOLYLINE
  5
44
330
17
100
AcDbEntity
  8
0
100
AcDbPolyline
 90
5
 70
0
 10
60.86602540378444
 20
2.5
 10
59.13397459621556
 20
2.5
 10
59.13397459621556
 20
-2.5
 10
60.86602540378444
 20
-2.5
 10
60.86602540378444
 20
2.5
  0
LWPOLYLINE
  5
45
330
17
100
AcDbEntity
  8
0
100
AcDbPolyline
 90
25
 70
0
 10
58.154179685262925
 20
-12.193943414571402
 10
58.15422700683786
 20
-12.19418131619391
 10
58.303467292890225
 20
-12.554479238836153
 10
58.3035746278577
 20
-12.554639876967002
 10
58.57933471925799
 20
-12.830399968364164
 10
58.57949535738888
 20
-12.830507303331657
 10
58.939793280007635
 20
-12.979747589374911
 10
58.9400311816302
 20
-12.97979491094986
 10
59.135023723065345
 20
-12.998999999999999
 10
60.864976276934655
 20
-12.998999999999999
 10
61.0599688183698
 20
-12.97979491094986
 10
61.060206719992365
 20
-12.979747589374911
 10
61.42050464261112
 20
-12.830507303331657
 10
61.42066528074201
 20
-12.830399968364164
 10
61.6964253721423
 20
-12.554639876967002
 10
61.696532707109775
 20
-12.554479238836153
 10
61.84577299316214
 20
-12.19418131619391
 10
61.845820314737075
 20
-12.193943414571402
 10
61.86492207380871
 20
-12.0
 10
60.86602540378444
 20
-12.0
 10
60.86602540378444
 20
-7.5
 10
59.13397459621556
 20
-7.5
 10
59.13397459621556
 20
-12.0
 10
58.13507792619129
 20
-12.0
 10
58.154179685262925
 20
-12.193943414571402
  0
LWPOLYLINE
  5
46
330
17
100
AcDbEntity
  8
0
100
AcDbPolyline
 90
25
 70
0
 10
110.86602540378443
 20
12.0
 10
111.8649220738087
 20
12.0
 10
111.84582031473012
 20
12.193943414606357
 10
111.84577299315515
 20
12.19418131622899
 10
111.69653270712661
 20
12.554479238810972
 10
111.69642537215914
 20
12.55463987694183
 10
111.42066528073362
 20
12.83039996836979
 10
111.42050464260275
 20
12.830507303337265
 10
111.06020671999237
 20
12.979747589374915
 10
111.05996881836982
 20
12.979794910949858
 10
110.86497627693466
 20
12.998999999999999
 10
109.13502372306534
 20
12.998999999999999
 10
108.94003118163018
 20
12.979794910949858
 10
108.93979328000763
 20
12.979747589374915
 10
108.57949535739725
 20
12.830507303337265
 10
108.57933471926638
 20
12.83039996836979
 10
108.30357462784086
 20
12.55463987694183
 10
108.30346729287339
 20
12.554479238810972
 10
108.15422700684485
 20
12.19418131622899
 10
108.15417968526988
 20
12.193943414606357
 10
108.1350779261913
 20
12.0
 10
109.13397459621557
 20
12.0
 10
109.13397459621558
 20
7.5
 10
110.86602540378442
 20
7.5
 10
110.86602540378443
 20
12.0
  0
LWPOLYLINE
  5
47
330
17
100
AcDbEntity
  8
0
100
AcDbPolyline
 90
5
 70
0
 10
110.86602540378442
 20
2.5
 10
109.13397459621558
 20
2.5
 10
109.13397459621558
 20
-2.5
 10
110.86602540378442
 20
-2.5
 10
110.86602540378442
 20
2.5
  0
LWPOLYLINE
  5
48
330
17
100
AcDbEntity
  8
0
100
AcDbPolyline
 90
25
 70
0
 10
108.15417968526988
 20
-12.193943414606357
 10
108.15422700684485
 20
-12.19418131622899
 10
108.30346729287339
 20
-12.554479238810972
 10
108.30357462784086
 20
-12.55463987694183
 10
108.57933471926638
 20
-12.83039996836979
 10
108.57949535739725
 20
-12.830507303337265
 10
108.93979328000763
 20
-12.979747589374915
 10
108.94003118163018
 20
-12.979794910949858
 10
109.13502372306534
 20
-12.998999999999999
 10
110.86497627693466
 20
-12.998999999999999
 10
111.05996881836982
 20
-12.979794910949858
 10
111.06020671999237
 20
-12.979747589374915
 10
111.42050464260275
 20
-12.830507303337265
 10
111.42066528073362
 20
-12.83039996836979
 10
111.69642537215914
 20
-12.55463987694183
 10
111.69653270712661
 20
-12.554479238810972
 10
111.84577299315515
 20
-12.19418131622899
 10
111.84582031473012
 20
-12.193943414606357
 10
111.8649220738087
 20
-12.0
 10
110.86602540378443
 20
-12.0
 10
110.86602540378442
 20
-7.5
 10
109.13397459621558
 20
-7.5
 10
109.13397459621557
 20
-12.0
 10
108.1350779261913
 20
-12.0
 10
108.15417968526988
 20
-12.193943414606357
  0
LWPOLYLINE
  5
49
330
17
100
AcDbEntity
  8
0
100
AcDbPolyline
 90
5
 70
0
 10
459.9235584120969
 20
28.307852804032304
 10
459.9235584120969
 20
-28.30785280403231
 10
173.30785280403234
 20
-28.30785280403231
 10
173.30785280403234
 20
28.307852804032304
 10
459.9235584120969
 20
28.307852804032304
  0
LWPOLYLINE
  5
4A
330
17
100
AcDbEntity
  8
0
100
AcDbPolyline
 90
17
 70
0
 10
183.84793865509823
 20
-17.76776695296637
 10
184.65899702715188
 20
-18.30969883127822
 10
185.61570560806462
 20
-18.5
 10
186.57241418897735
 20
-18.30969883127822
 10
187.383472561031
 20
-17.76776695296637
 10
187.92540443934283
 20
-16.956708580912725
 10
188.11570560806462
 20
-16.0
 10
187.92540443934283
 20
-15.043291419087273
 10
187.383472561031
 20
-14.232233047033631
 10
186.57241418897735
 20
-13.690301168721783
 10
185.61570560806462
 20
-13.5
 10
184.65899702715188
 20
-13.690301168721785
 10
183.84793865509823
 20
-14.232233047033631
 10
183.3060067767864
 20
-15.043291419087275
 10
183.11570560806462
 20
-16.0
 10
183.3060067767864
 20
-16.956708580912725
 10
183.84793865509823
 20
-17.76776695296637
  0
LWPOLYLINE
  5
4B
330
17
100
AcDbEntity
  8
0
100
AcDbPolyline
 90
17
 70
0
 10
445.84793865509823
 20
-17.76776695296637
 10
446.6589970271519
 20
-18.30969883127822
 10
447.6157056080646
 20
-18.5
 10
448.57241418897735
 20
-18.30969883127822
 10
449.383472561031
 20
-17.76776695296637
 10
449.92540443934286
 20
-16.956708580912725
 10
450.1157056080646
 20
-16.0
 10
449.92540443934286
 20
-15.043291419087273
 10
449.383472561031
 20
-14.232233047033631
 10
448.57241418897735
 20
-13.690301168721783
 10
447.6157056080646
 20
-13.5
 10
446.6589970271519
 20
-13.690301168721785
 10
445.84793865509823
 20
-14.232233047033631
 10
445.3060067767864
 20
-15.043291419087275
 10
445.1157056080646
 20
-16.0
 10
445.3060067767864
 20
-16.956708580912725
 10
445.84793865509823
 20
-17.76776695296637
  0
LWPOLYLINE
  5
4C
330
17
100
AcDbEntity
  8
0
100
AcDbPolyline
 90
17
 70
0
 10
183.84793865509823
 20
14.232233047033631
 10
184.65899702715188
 20
13.690301168721783
 10
185.61570560806462
 20
13.5
 10
186.57241418897735
 20
13.690301168721783
 10
187.383472561031
 20
14.232233047033631
 10
187.92540443934283
 20
15.043291419087275
 10
188.11570560806462
 20
16.0
 10
187.92540443934283
 20
16.956708580912725
 10
187.383472561031
 20
17.76776695296637
 10
186.57241418897735
 20
18.309698831278215
 10
185.61570560806462
 20
18.5
 10
184.65899702715188
 20
18.309698831278215
 10
183.84793865509823
 20
17.76776695296637
 10
183.3060067767864
 20
16.956708580912725
 10
183.11570560806462
 20
16.0
 10
183.3060067767864
 20
15.043291419087275
 10
183.84793865509823
 20
14.232233047033631
  0
LWPOLYLINE
  5
4D
330
17
100
AcDbEntity
  8
0
100
AcDbPolyline
 90
17
 70
0
 10
445.84793865509823
 20
14.232233047033631
 10
446.6589970271519
 20
13.690301168721783
 10
447.6157056080646
 20
13.5
 10
448.57241418897735
 20
13.690301168721783
 10
449.383472561031
 20
14.232233047033631
 10
449.92540443934286
 20
15.043291419087275
 10
450.1157056080646
 20
16.0
 10
449.92540443934286
 20
16.956708580912725
 10
449.383472561031
 20
17.76776695296637
 10
448.57241418897735
 20
18.309698831278215
 10
447.6157056080646
 20
18.5
 10
446.6589970271519
 20
18.309698831278215
 10
445.84793865509823
 20
17.76776695296637
 10
445.3060067767864
 20
16.956708580912725
 10
445.1157056080646
 20
16.0
 10
445.3060067767864
 20
15.043291419087275
 10
445.84793865509823
 20
14.232233047033631
  0
LWPOLYLINE
  5
4E
330
17
100
AcDbEntity
  8
0
100
AcDbPolyline
 90
11
 70
0
 10
198.63347904556463
 20
-15.90703125
 10
198.1936352955646
 20
-15.90703125
 10
197.4592602955646
 20
-18.009375
 10
196.73113529556463
 20
-15.90703125
 10
196.2576977955646
 20
-15.90703125
 10
197.2420727955646
 20
-18.5046875
 10
196.98960404556462
 20
-19.03078125
 10
196.54779154556462
 20
-19.1109375
 10
196.6915884205646
 20
-19.5474921875
 10
197.3524165455646
 20
-19.21453125
 10
198.63347904556463
 20
-15.90703125
  0
LWPOLYLINE
  5
4F
330
17
100
AcDbEntity
  8
0
100
AcDbPolyline
 90
15
 70
0
 10
193.8909985768146
 20
-17.215625
 10
193.61368607681462
 20
-18.05778125
 10
194.1534048268146
 20
-18.52521875
 10
195.1316548268146
 20
-18.3853125
 10
195.4183423268146
 20
-18.18046875
 10
195.50584232681462
 20
-18.5
 10
195.9652173268146
 20
-18.5
 10
195.7747876393146
 20
-16.3196015625
 10
195.27349857681463
 20
-15.8984375
 10
194.23396732681462
 20
-15.940625
 10
193.6527173268146
 20
-16.646875
 10
194.8852173268146
 20
-16.2184375
 10
195.30396732681461
 20
-16.41134375
 10
195.3816235768146
 20
-16.8546875
 10
193.8909985768146
 20
-17.215625
  0
LWPOLYLINE
  5
50
330
17
100
AcDbEntity
  8
0
100
AcDbPolyline
 90
14
 70
0
 10
198.8634087330646
 20
-17.09778125
 10
199.1936352955646
 20
-18.20859375
 10
200.1846821705646
 20
-18.5563984375
 10
201.0828931080646
 20
-18.0744140625
 10
201.23582279556462
 20
-17.72109375
 10
200.78191654556463
 20
-17.66484375
 10
200.40183842056462
 20
-18.134859375
 10
199.80027592056462
 20
-18.140234375
 10
199.32150248306462
 20
-17.39909375
 10
201.2483227955646
 20
-17.315625
 10
200.92097904556462
 20
-16.20234375
 10
200.17313529556463
 20
-15.851976562499999
 10
199.26625248306462
 20
-16.1414296875
 10
198.8634087330646
 20
-17.09778125
  0
LWPOLYLINE
  5
51
330
17
100
AcDbEntity
  8
0
100
AcDbPolyline
 90
10
 70
0
 10
201.7829907643146
 20
-18.5
 10
202.2220532643146
 20
-18.5
 10
202.34486576431462
 20
-16.5173125
 10
203.04002201431462
 20
-16.39765625
 10
203.19158451431463
 20
-15.98984375
 10
202.62102201431463
 20
-15.8625625
 10
202.23799076431462
 20
-16.197218749999998
 10
202.17830326431462
 20
-15.90703125
 10
201.7829907643146
 20
-15.90703125
 10
201.7829907643146
 20
-18.5
  0
LWPOLYLINE
  5
52
330
17
100
AcDbEntity
  8
0
100
AcDbPolyline
 90
7
 70
0
 10
191.45554935806462
 20
-18.07734375
 10
191.45554935806462
 20
-14.92109375
 10
190.98211185806463
 20
-14.92109375
 10
190.98211185806463
 20
-18.5
 10
193.2180493580646
 20
-18.5
 10
193.2180493580646
 20
-18.07734375
 10
191.45554935806462
 20
-18.07734375
  0
LWPOLYLINE
  5
53
330
17
100
AcDbEntity
  8
0
100
AcDbPolyline
 90
12
 70
0
 10
206.5676587330646
 20
-17.64296875
 10
207.05125248306462
 20
-17.64296875
 10
207.05125248306462
 20
-17.23984375
 10
206.5676587330646
 20
-17.23984375
 10
206.5676587330646
 20
-14.92109375
 10
206.20906498306462
 20
-14.92109375
 10
204.5754712330646
 20
-17.23984375
 10
204.5754712330646
 20
-17.64296875
 10
206.12859623306463
 20
-17.64296875
 10
206.12859623306463
 20
-18.5
 10
206.5676587330646
 20
-18.5
 10
206.5676587330646
 20
-17.64296875
  0
LWPOLYLINE
  5
54
330
17
100
AcDbEntity
  8
0
100
AcDbPolyline
 90
25
 70
0
 10
232.48173101184906
 20
12.0
 10
233.48062768187333
 20
12.0
 10
233.46152592280168
 20
12.193943414571402
 10
233.46147860122676
 20
12.19418131619391
 10
233.3122383151744
 20
12.554479238836153
 10
233.31213098020692
 20
12.554639876967002
 10
233.03637088880663
 20
12.830399968364164
 10
233.03621025067574
 20
12.830507303331657
 10
232.675912328057
 20
12.979747589374911
 10
232.67567442643443
 20
12.97979491094986
 10
232.48068188499929
 20
12.998999999999999
 10
230.75072933112995
 20
12.998999999999999
 10
230.5557367896948
 20
12.97979491094986
 10
230.55549888807224
 20
12.979747589374911
 10
230.1952009654535
 20
12.830507303331657
 10
230.1950403273226
 20
12.830399968364164
 10
229.91928023592232
 20
12.554639876967002
 10
229.91917290095483
 20
12.554479238836153
 10
229.76993261490247
 20
12.19418131619391
 10
229.76988529332755
 20
12.193943414571402
 10
229.7507835342559
 20
12.0
 10
230.74968020428017
 20
12.0
 10
230.74968020428017
 20
7.5
 10
232.48173101184906
 20
7.5
 10
232.48173101184906
 20
12.0
  0
LWPOLYLINE
  5
55
330
17
100
AcDbEntity
  8
0
100
AcDbPolyline
 90
5
 70
0
 10
232.48173101184906
 20
2.5
 10
230.74968020428017
 20
2.5
 10
230.74968020428017
 20
-2.5
 10
232.48173101184906
 20
-2.5
 10
232.48173101184906
 20
2.5
  0
LWPOLYLINE
  5
56
330
17
100
AcDbEntity
  8
0
100
AcDbPolyline
 90
25
 70
0
 10
229.76988529332755
 20
-12.193943414571402
 10
229.76993261490247
 20
-12.19418131619391
 10
229.91917290095483
 20
-12.554479238836153
 10
229.91928023592232
 20
-12.554639876967002
 10
230.1950403273226
 20
-12.830399968364164
 10
230.1952009654535
 20
-12.830507303331657
 10
230.55549888807224
 20
-12.979747589374911
 10
230.5557367896948
 20
-12.97979491094986
 10
230.75072933112995
 20
-12.998999999999999
 10
232.48068188499929
 20
-12.998999999999999
 10
232.67567442643443
 20
-12.97979491094986
 10
232.675912328057
 20
-12.979747589374911
 10
233.03621025067574
 20
-12.830507303331657
 10
233.03637088880663
 20
-12.830399968364164
 10
233.31213098020692
 20
-12.554639876967002
 10
233.3122383151744
 20
-12.554479238836153
 10
233.46147860122676
 20
-12.19418131619391
 10
233.46152592280168
 20
-12.193943414571402
 10
233.48062768187333
 20
-12.0
 10
232.48173101184906
 20
-12.0
 10
232.48173101184906
 20
-7.5
 10
230.74968020428017
 20
-7.5
 10
230.74968020428017
 20
-12.0
 10
229.7507835342559
 20
-12.0
 10
229.76988529332755
 20
-12.193943414571402
  0
LWPOLYLINE
  5
57
330
17
100
AcDbEntity
  8
0
100
AcDbPolyline
 90
25
 70
0
 10
272.48173101184904
 20
12.0
 10
273.48062768187333
 20
12.0
 10
273.4615259227982
 20
12.193943414588881
 10
273.4614786012233
 20
12.194181316211424
 10
273.3122383151786
 20
12.55447923882984
 10
273.3121309802111
 20
12.554639876960723
 10
273.03637088881084
 20
12.830399968361352
 10
273.03621025067997
 20
12.830507303328847
 10
272.67591232805523
 20
12.979747589375258
 10
272.6756744264327
 20
12.979794910950206
 10
272.4806818849993
 20
12.998999999999999
 10
270.75072933112995
 20
12.998999999999999
 10
270.55573678969654
 20
12.979794910950206
 10
270.555498888074
 20
12.979747589375258
 10
270.19520096544926
 20
12.830507303328847
 10
270.1950403273184
 20
12.830399968361352
 10
269.9192802359181
 20
12.554639876960723
 10
269.9191729009506
 20
12.55447923882984
 10
269.76993261490594
 20
12.194181316211424
 10
269.769885293331
 20
12.193943414588881
 10
269.7507835342559
 20
12.0
 10
270.7496802042802
 20
12.0
 10
270.7496802042802
 20
7.5
 10
272.48173101184904
 20
7.5
 10
272.48173101184904
 20
12.0
  0
LWPOLYLINE
  5
58
330
17
100
AcDbEntity
  8
0
100
AcDbPolyline
 90
5
 70
0
 10
272.48173101184904
 20
2.5
 10
270.7496802042802
 20
2.5
 10
270.7496802042802
 20
-2.5
 10
272.48173101184904
 20
-2.5
 10
272.48173101184904
 20
2.5
  0
LWPOLYLINE
  5
59
330
17
100
AcDbEntity
  8
0
100
AcDbPolyline
 90
25
 70
0
 10
269.769885293331
 20
-12.193943414588881
 10
269.76993261490594
 20
-12.194181316211424
 10
269.9191729009506
 20
-12.55447923882984
 10
269.9192802359181
 20
-12.554639876960723
 10
270.1950403273184
 20
-12.830399968361352
 10
270.19520096544926
 20
-12.830507303328847
 10
270.555498888074
 20
-12.979747589375258
 10
270.55573678969654
 20
-12.979794910950206
 10
270.75072933112995
 20
-12.998999999999999
 10
272.4806818849993
 20
-12.998999999999999
 10
272.6756744264327
 20
-12.979794910950206
 10
272.67591232805523
 20
-12.979747589375258
 10
273.03621025067997
 20
-12.830507303328847
 10
273.03637088881084
 20
-12.830399968361352
 10
273.3121309802111
 20
-12.554639876960723
 10
273.3122383151786
 20
-12.55447923882984
 10
273.4614786012233
 20
-12.194181316211424
 10
273.4615259227982
 20
-12.193943414588881
 10
273.48062768187333
 20
-12.0
 10
272.48173101184904
 20
-12.0
 10
272.48173101184904
 20
-7.5
 10
270.7496802042802
 20
-7.5
 10
270.7496802042802
 20
-12.0
 10
269.7507835342559
 20
-12.0
 10
269.769885293331
 20
-12.193943414588881
  0
LWPOLYLINE
  5
5A
330
17
100
AcDbEntity
  8
0
100
AcDbPolyline
 90
25
 70
0
 10
312.48173101184904
 20
12.0
 10
313.48062768187333
 20
12.0
 10
313.4615259227982
 20
12.193943414588881
 10
313.4614786012233
 20
12.194181316211424
 10
313.3122383151786
 20
12.55447923882984
 10
313.3121309802111
 20
12.554639876960723
 10
313.03637088881084
 20
12.830399968361352
 10
313.03621025067997
 20
12.830507303328847
 10
312.67591232805523
 20
12.979747589375258
 10
312.6756744264327
 20
12.979794910950206
 10
312.4806818849993
 20
12.998999999999999
 10
310.75072933112995
 20
12.998999999999999
 10
310.55573678969654
 20
12.979794910950206
 10
310.555498888074
 20
12.979747589375258
 10
310.19520096544926
 20
12.830507303328847
 10
310.1950403273184
 20
12.830399968361352
 10
309.9192802359181
 20
12.554639876960723
 10
309.9191729009506
 20
12.55447923882984
 10
309.76993261490594
 20
12.194181316211424
 10
309.769885293331
 20
12.193943414588881
 10
309.7507835342559
 20
12.0
 10
310.7496802042802
 20
12.0
 10
310.7496802042802
 20
7.5
 10
312.48173101184904
 20
7.5
 10
312.48173101184904
 20
12.0
  0
LWPOLYLINE
  5
5B
330
17
100
AcDbEntity
  8
0
100
AcDbPolyline
 90
5
 70
0
 10
312.48173101184904
 20
2.5
 10
310.7496802042802
 20
2.5
 10
310.7496802042802
 20
-2.5
 10
312.48173101184904
 20
-2.5
 10
312.48173101184904
 20
2.5
  0
LWPOLYLINE
  5
5C
330
17
100
AcDbEntity
  8
0
100
AcDbPolyline
 90
25
 70
0
 10
309.769885293331
 20
-12.193943414588881
 10
309.76993261490594
 20
-12.194181316211424
 10
309.9191729009506
 20
-12.55447923882984
 10
309.9192802359181
 20
-12.554639876960723
 10
310.1950403273184
 20
-12.830399968361352
 10
310.19520096544926
 20
-12.830507303328847
 10
310.555498888074
 20
-12.979747589375258
 10
310.55573678969654
 20
-12.979794910950206
 10
310.75072933112995
 20
-12.998999999999999
 10
312.4806818849993
 20
-12.998999999999999
 10
312.6756744264327
 20
-12.979794910950206
 10
312.67591232805523
 20
-12.979747589375258
 10
313.03621025067997
 20
-12.830507303328847
 10
313.03637088881084
 20
-12.830399968361352
 10
313.3121309802111
 20
-12.554639876960723
 10
313.3122383151786
 20
-12.55447923882984
 10
313.4614786012233
 20
-12.194181316211424
 10
313.4615259227982
 20
-12.193943414588881
 10
313.48062768187333
 20
-12.0
 10
312.48173101184904
 20
-12.0
 10
312.48173101184904
 20
-7.5
 10
310.7496802042802
 20
-7.5
 10
310.7496802042802
 20
-12.0
 10
309.7507835342559
 20
-12.0
 10
309.769885293331
 20
-12.193943414588881
  0
LWPOLYLINE
  5
5D
330
17
100
AcDbEntity
  8
0
100
AcDbPolyline
 90
25
 70
0
 10
352.48173101184904
 20
12.0
 10
353.48062768187333
 20
12.0
 10
353.4615259228017
 20
12.193943414571402
 10
353.46147860122676
 20
12.19418131619391
 10
353.3122383151744
 20
12.554479238836153
 10
353.3121309802069
 20
12.554639876967002
 10
353.03637088880663
 20
12.830399968364164
 10
353.0362102506757
 20
12.830507303331657
 10
352.675912328057
 20
12.979747589374911
 10
352.6756744264344
 20
12.97979491094986
 10
352.4806818849993
 20
12.998999999999999
 10
350.75072933112995
 20
12.998999999999999
 10
350.55573678969483
 20
12.97979491094986
 10
350.55549888807224
 20
12.979747589374911
 10
350.1952009654535
 20
12.830507303331657
 10
350.1950403273226
 20
12.830399968364164
 10
349.9192802359223
 20
12.554639876967002
 10
349.91917290095483
 20
12.554479238836153
 10
349.7699326149025
 20
12.19418131619391
 10
349.76988529332755
 20
12.193943414571402
 10
349.7507835342559
 20
12.0
 10
350.7496802042802
 20
12.0
 10
350.7496802042802
 20
7.5
 10
352.48173101184904
 20
7.5
 10
352.48173101184904
 20
12.0
  0
LWPOLYLINE
  5
5E
330
17
100
AcDbEntity
  8
0
100
AcDbPolyline
 90
5
 70
0
 10
352.48173101184904
 20
2.5
 10
350.7496802042802
 20
2.5
 10
350.7496802042802
 20
-2.5
 10
352.48173101184904
 20
-2.5
 10
352.48173101184904
 20
2.5
  0
LWPOLYLINE
  5
5F
330
17
100
AcDbEntity
  8
0
100
AcDbPolyline
 90
25
 70
0
 10
349.76988529332755
 20
-12.193943414571402
 10
349.7699326149025
 20
-12.19418131619391
 10
349.91917290095483
 20
-12.554479238836153
 10
349.9192802359223
 20
-12.554639876967002
 10
350.1950403273226
 20
-12.830399968364164
 10
350.1952009654535
 20
-12.830507303331657
 10
350.55549888807224
 20
-12.979747589374911
 10
350.55573678969483
 20
-12.97979491094986
 10
350.75072933112995
 20
-12.998999999999999
 10
352.4806818849993
 20
-12.998999999999999
 10
352.6756744264344
 20
-12.97979491094986
 10
352.675912328057
 20
-12.979747589374911
 10
353.0362102506757
 20
-12.830507303331657
 10
353.03637088880663
 20
-12.830399968364164
 10
353.3121309802069
 20
-12.554639876967002
 10
353.3122383151744
 20
-12.554479238836153
 10
353.46147860122676
 20
-12.19418131619391
 10
353.4615259228017
 20
-12.193943414571402
 10
353.48062768187333
 20
-12.0
 10
352.48173101184904
 20
-12.0
 10
352.48173101184904
 20
-7.5
 10
350.7496802042802
 20
-7.5
 10
350.7496802042802
 20
-12.0
 10
349.7507835342559
 20
-12.0
 10
349.76988529332755
 20
-12.193943414571402
  0
LWPOLYLINE
  5
60
330
17
100
AcDbEntity
  8
0
100
AcDbPolyline
 90
25
 70
0
 10
402.48173101184904
 20
12.0
 10
403.48062768187333
 20
12.0
 10
403.46152592279475
 20
12.193943414606357
 10
403.46147860121977
 20
12.19418131622899
 10
403.3122383151912
 20
12.554479238810972
 10
403.31213098022374
 20
12.55463987694183
 10
403.0363708887982
 20
12.83039996836979
 10
403.03621025066735
 20
12.830507303337265
 10
402.675912328057
 20
12.979747589374915
 10
402.67567442643445
 20
12.979794910949858
 10
402.4806818849993
 20
12.998999999999999
 10
400.75072933112995
 20
12.998999999999999
 10
400.5557367896948
 20
12.979794910949858
 10
400.55549888807224
 20
12.979747589374915
 10
400.1952009654619
 20
12.830507303337265
 10
400.195040327331
 20
12.83039996836979
 10
399.9192802359055
 20
12.55463987694183
 10
399.919172900938
 20
12.554479238810972
 10
399.76993261490946
 20
12.19418131622899
 10
399.7698852933345
 20
12.193943414606357
 10
399.7507835342559
 20
12.0
 10
400.7496802042802
 20
12.0
 10
400.7496802042802
 20
7.5
 10
402.48173101184904
 20
7.5
 10
402.48173101184904
 20
12.0
  0
LWPOLYLINE
  5
61
330
17
100
AcDbEntity
  8
0
100
AcDbPolyline
 90
5
 70
0
 10
402.48173101184904
 20
2.5
 10
400.7496802042802
 20
2.5
 10
400.7496802042802
 20
-2.5
 10
402.48173101184904
 20
-2.5
 10
402.48173101184904
 20
2.5
  0
LWPOLYLINE
  5
62
330
17
100
AcDbEntity
  8
0
100
AcDbPolyline
 90
25
 70
0
 10
399.7698852933345
 20
-12.193943414606357
 10
399.76993261490946
 20
-12.19418131622899
 10
399.919172900938
 20
-12.554479238810972
 10
399.9192802359055
 20
-12.55463987694183
 10
400.195040327331
 20
-12.83039996836979
 10
400.1952009654619
 20
-12.830507303337265
 10
400.55549888807224
 20
-12.979747589374915
 10
400.5557367896948
 20
-12.979794910949858
 10
400.75072933112995
 20
-12.998999999999999
 10
402.4806818849993
 20
-12.998999999999999
 10
402.67567442643445
 20
-12.979794910949858
 10
402.675912328057
 20
-12.979747589374915
 10
403.03621025066735
 20
-12.830507303337265
 10
403.0363708887982
 20
-12.83039996836979
 10
403.31213098022374
 20
-12.55463987694183
 10
403.3122383151912
 20
-12.554479238810972
 10
403.46147860121977
 20
-12.19418131622899
 10
403.46152592279475
 20
-12.193943414606357
 10
403.48062768187333
 20
-12.0
 10
402.48173101184904
 20
-12.0
 10
402.48173101184904
 20
-7.5
 10
400.7496802042802
 20
-7.5
 10
400.7496802042802
 20
-12.0
 10
399.7507835342559
 20
-12.0
 10
399.7698852933345
 20
-12.193943414606357
  0
ENDSEC
  0
SECTION
  2
OBJECTS
  0
DICTIONARY
  5
A
330
0
100
AcDbDictionary
280
0
281
1
  3
ACAD_COLOR
350
B
  3
ACAD_GROUP
350
C
  3
ACAD_LAYOUT
350
D
  3
ACAD_MATERIAL
350
E
  3
ACAD_MLEADERSTYLE
350
F
  3
ACAD_MLINESTYLE
350
10
  3
ACAD_PLOTSETTINGS
350
11
  3
ACAD_PLOTSTYLENAME
350
12
  3
ACAD_SCALELIST
350
14
  3
ACAD_TABLESTYLE
350
15
  3
ACAD_VISUALSTYLE
350
16
  3
EZDXF_META
350
2D
  0
DICTIONARY
  5
B
330
A
100
AcDbDictionary
280
0
281
1
  0
DICTIONARY
  5
C
330
A
100
AcDbDictionary
280
0
281
1
  0
DICTIONARY
  5
D
330
A
100
AcDbDictionary
280
0
281
1
  3
Model
350
1A
  3
Layout1
350
1E
  0
DICTIONARY
  5
E
330
A
100
AcDbDictionary
280
0
281
1
  3
ByBlock
350
1F
  3
ByLayer
350
20
  3
Global
350
21
  0
DICTIONARY
  5
F
330
A
100
AcDbDictionary
280
0
281
1
  3
Standard
350
2C
  0
DICTIONARY
  5
10
330
A
100
AcDbDictionary
280
0
281
1
  3
Standard
350
22
  0
DICTIONARY
  5
11
330
A
100
AcDbDictionary
280
0
281
1
  0
ACDBDICTIONARYWDFLT
  5
12
330
A
100
AcDbDictionary
280
0
281
1
  3
Normal
350
13
100
AcDbDictionaryWithDefault
340
13
  0
ACDBPLACEHOLDER
  5
13
330
12
  0
DICTIONARY
  5
14
330
A
100
AcDbDictionary
280
0
281
1
  0
DICTIONARY
  5
15
330
A
100
AcDbDictionary
280
0
281
1
  0
DICTIONARY
  5
16
330
A
100
AcDbDictionary
280
0
281
1
  0
LAYOUT
  5
1A
330
D
100
AcDbPlotSettings
  1

  4
A3
  6

 40
7.5
 41
20.0
 42
7.5
 43
20.0
 44
420.0
 45
297.0
 46
0.0
 47
0.0
 48
0.0
 49
0.0
140
0.0
141
0.0
142
1.0
143
1.0
 70
1024
 72
1
 73
0
 74
5
  7

 75
16
 76
0
 77
2
 78
300
147
1.0
148
0.0
149
0.0
100
AcDbLayout
  1
Model
 70
1
 71
0
 10
0.0
 20
0.0
 11
420.0
 21
297.0
 12
0.0
 22
0.0
 32
0.0
 14
1e+20
 24
1e+20
 34
1e+20
 15
-1e+20
 25
-1e+20
 35
-1e+20
146
0.0
 13
0.0
 23
0.0
 33
0.0
 16
1.0
 26
0.0
 36
0.0
 17
0.0
 27
1.0
 37
0.0
 76
1
330
17
  0
LAYOUT
  5
1E
330
D
100
AcDbPlotSettings
  1

  4
A3
  6

 40
7.5
 41
20.0
 42
7.5
 43
20.0
 44
420.0
 45
297.0
 46
0.0
 47
0.0
 48
0.0
 49
0.0
140
0.0
141
0.0
142
1.0
143
1.0
 70
0
 72
1
 73
0
 74
5
  7

 75
16
 76
0
 77
2
 78
300
147
1.0
148
0.0
149
0.0
100
AcDbLayout
  1
Layout1
 70
1
 71
1
 10
0.0
 20
0.0
 11
420.0
 21
297.0
 12
0.0
 22
0.0
 32
0.0
 14
1e+20
 24
1e+20
 34
1e+20
 15
-1e+20
 25
-1e+20
 35
-1e+20
146
0.0
 13
0.0
 23
0.0
 33
0.0
 16
1.0
 26
0.0
 36
0.0
 17
0.0
 27
1.0
 37
0.0
 76
1
330
1B
  0
MATERIAL
  5
1F
102
{ACAD_REACTORS
330
E
102
}
330
E
100
AcDbMaterial
  1
ByBlock
  2

 70
0
 40
1.0
 71
1
 41
1.0
 91
-1023410177
 42
1.0
 72
1
  3

 73
1
 74
1
 75
1
 44
0.5
 73
0
 45
1.0
 46
1.0
 77
1
  4

 78
1
 79
1
170
1
 48
1.0
171
1
  6

172
1
173
1
174
1
140
1.0
141
1.0
175
1
  7

176
1
177
1
178
1
143
1.0
179
1
  8

270
1
271
1
272
1
145
1.0
146
1.0
273
1
  9

274
1
275
1
276
1
 42
1.0
 72
1
  3

 73
1
 74
1
 75
1
 94
63
  0
MATERIAL
  5
20
102
{ACAD_REACTORS
330
E
102
}
330
E
100
AcDbMaterial
  1
ByLayer
  2

 70
0
 40
1.0
 71
1
 41
1.0
 91
-1023410177
 42
1.0
 72
1
  3

 73
1
 74
1
 75
1
 44
0.5
 73
0
 45
1.0
 46
1.0
 77
1
  4

 78
1
 79
1
170
1
 48
1.0
171
1
  6

172
1
173
1
174
1
140
1.0
141
1.0
175
1
  7

176
1
177
1
178
1
143
1.0
179
1
  8

270
1
271
1
272
1
145
1.0
146
1.0
273
1
  9

274
1
275
1
276
1
 42
1.0
 72
1
  3

 73
1
 74
1
 75
1
 94
63
  0
MATERIAL
  5
21
102
{ACAD_REACTORS
330
E
102
}
330
E
100
AcDbMaterial
  1
Global
  2

 70
0
 40
1.0
 71
1
 41
1.0
 91
-1023410177
 42
1.0
 72
1
  3

 73
1
 74
1
 75
1
 44
0.5
 73
0
 45
1.0
 46
1.0
 77
1
  4

 78
1
 79
1
170
1
 48
1.0
171
1
  6

172
1
173
1
174
1
140
1.0
141
1.0
175
1
  7

176
1
177
1
178
1
143
1.0
179
1
  8

270
1
271
1
272
1
145
1.0
146
1.0
273
1
  9

274
1
275
1
276
1
 42
1.0
 72
1
  3

 73
1
 74
1
 75
1
 94
63
  0
MLINESTYLE
  5
22
102
{ACAD_REACTORS
330
10
102
}
330
10
100
AcDbMlineStyle
  2
Standard
 70
0
  3

 62
256
 51
90.0
 52
90.0
 71
2
 49
0.5
 62
256
  6
BYLAYER
 49
-0.5
 62
256
  6
BYLAYER
  0
MLEADERSTYLE
  5
2C
102
{ACAD_REACTORS
330
F
102
}
330
F
100
AcDbMLeaderStyle
179
2
170
2
171
1
172
0
 90
2
 40
0.0
 41
0.0
173
1
 91
-1056964608
 92
-2
290
1
 42
2.0
291
1
 43
8.0
  3
Standard
 44
4.0
300

342
29
174
1
175
1
176
0
178
1
 93
-1056964608
 45
4.0
292
0
297
0
 46
4.0
 94
-1056964608
 47
1.0
 49
1.0
140
1.0
294
1
141
0.0
177
0
142
1.0
295
0
296
0
143
3.75
271
0
272
9
273
9
  0
DICTIONARY
  5
2D
330
A
100
AcDbDictionary
281
1
  3
CREATED_BY_EZDXF
350
2E
  3
WRITTEN_BY_EZDXF
350
65
  0
DICTIONARYVAR
  5
2E
330
2D
100
DictionaryVariables
280
0
  1
1.3.4 @ 2024-12-06T05:24:22.127849+00:00
  0
DICTIONARYVAR
  5
65
330
2D
100
DictionaryVariables
280
0
  1
1.3.4 @ 2024-12-06T05:24:22.138850+00:00
  0
ENDSEC
  0
EOF
