  0
SECTION
  2
HEADER
  9
$ACADVER
  1
AC1024
  9
$ACADMAINTVER
 70
6
  9
$DWGCODEPAGE
  3
ANSI_1252
  9
$LASTSAVEDBY
  1
ezdxf
  9
$INSBASE
 10
0.0
 20
0.0
 30
0.0
  9
$EXTMIN
 10
1e+20
 20
1e+20
 30
1e+20
  9
$EXTMAX
 10
-1e+20
 20
-1e+20
 30
-1e+20
  9
$LIMMIN
 10
0.0
 20
0.0
  9
$LIMMAX
 10
420.0
 20
297.0
  9
$ORTHOMODE
 70
0
  9
$REGENMODE
 70
1
  9
$FILLMODE
 70
1
  9
$QTEXTMODE
 70
0
  9
$MIRRTEXT
 70
1
  9
$LTSCALE
 40
1.0
  9
$ATTMODE
 70
1
  9
$TEXTSIZE
 40
2.5
  9
$TRACEWID
 40
1.0
  9
$TEXTSTYLE
  7
Standard
  9
$CLAYER
  8
0
  9
$CELTYPE
  6
ByLayer
  9
$CECOLOR
 62
256
  9
$CELTSCALE
 40
1.0
  9
$DISPSILH
 70
0
  9
$DIMSCALE
 40
1.0
  9
$DIMASZ
 40
2.5
  9
$DIMEXO
 40
0.625
  9
$DIMDLI
 40
3.75
  9
$DIMRND
 40
0.0
  9
$DIMDLE
 40
0.0
  9
$DIMEXE
 40
1.25
  9
$DIMTP
 40
0.0
  9
$DIMTM
 40
0.0
  9
$DIMTXT
 40
2.5
  9
$DIMCEN
 40
2.5
  9
$DIMTSZ
 40
0.0
  9
$DIMTOL
 70
0
  9
$DIMLIM
 70
0
  9
$DIMTIH
 70
0
  9
$DIMTOH
 70
0
  9
$DIMSE1
 70
0
  9
$DIMSE2
 70
0
  9
$DIMTAD
 70
1
  9
$DIMZIN
 70
8
  9
$DIMBLK
  1

  9
$DIMASO
 70
1
  9
$DIMSHO
 70
1
  9
$DIMPOST
  1

  9
$DIMAPOST
  1

  9
$DIMALT
 70
0
  9
$DIMALTD
 70
3
  9
$DIMALTF
 40
0.03937007874
  9
$DIMLFAC
 40
1.0
  9
$DIMTOFL
 70
1
  9
$DIMTVP
 40
0.0
  9
$DIMTIX
 70
0
  9
$DIMSOXD
 70
0
  9
$DIMSAH
 70
0
  9
$DIMBLK1
  1

  9
$DIMBLK2
  1

  9
$DIMSTYLE
  2
ISO-25
  9
$DIMCLRD
 70
0
  9
$DIMCLRE
 70
0
  9
$DIMCLRT
 70
0
  9
$DIMTFAC
 40
1.0
  9
$DIMGAP
 40
0.625
  9
$DIMJUST
 70
0
  9
$DIMSD1
 70
0
  9
$DIMSD2
 70
0
  9
$DIMTOLJ
 70
0
  9
$DIMTZIN
 70
8
  9
$DIMALTZ
 70
0
  9
$DIMALTTZ
 70
0
  9
$DIMUPT
 70
0
  9
$DIMDEC
 70
2
  9
$DIMTDEC
 70
2
  9
$DIMALTU
 70
2
  9
$DIMALTTD
 70
3
  9
$DIMTXSTY
  7
Standard
  9
$DIMAUNIT
 70
0
  9
$DIMADEC
 70
0
  9
$DIMALTRND
 40
0.0
  9
$DIMAZIN
 70
0
  9
$DIMDSEP
 70
44
  9
$DIMATFIT
 70
3
  9
$DIMFRAC
 70
0
  9
$DIMLDRBLK
  1

  9
$DIMLUNIT
 70
2
  9
$DIMLWD
 70
-2
  9
$DIMLWE
 70
-2
  9
$DIMTMOVE
 70
0
  9
$DIMFXL
 40
1.0
  9
$DIMFXLON
 70
0
  9
$DIMJOGANG
 40
0.785398163397
  9
$DIMTFILL
 70
0
  9
$DIMTFILLCLR
 70
0
  9
$DIMARCSYM
 70
0
  9
$DIMLTYPE
  6

  9
$DIMLTEX1
  6

  9
$DIMLTEX2
  6

  9
$DIMTXTDIRECTION
 70
0
  9
$LUNITS
 70
2
  9
$LUPREC
 70
4
  9
$SKETCHINC
 40
1.0
  9
$FILLETRAD
 40
10.0
  9
$AUNITS
 70
0
  9
$AUPREC
 70
2
  9
$MENU
  1
.
  9
$ELEVATION
 40
0.0
  9
$PELEVATION
 40
0.0
  9
$THICKNESS
 40
0.0
  9
$LIMCHECK
 70
0
  9
$CHAMFERA
 40
0.0
  9
$CHAMFERB
 40
0.0
  9
$CHAMFERC
 40
0.0
  9
$CHAMFERD
 40
0.0
  9
$SKPOLY
 70
0
  9
$TDCREATE
 40
2460650.9335879628
  9
$TDUCREATE
 40
2458532.153996898
  9
$TDUPDATE
 40
2460650.9335879628
  9
$TDUUPDATE
 40
2458532.1544311
  9
$TDINDWG
 40
0.0
  9
$TDUSRTIMER
 40
0.0
  9
$USRTIMER
 70
1
  9
$ANGBASE
 50
0.0
  9
$ANGDIR
 70
0
  9
$PDMODE
 70
0
  9
$PDSIZE
 40
0.0
  9
$PLINEWID
 40
0.0
  9
$SPLFRAME
 70
0
  9
$SPLINETYPE
 70
6
  9
$SPLINESEGS
 70
8
  9
$HANDSEED
  5
4C
  9
$SURFTAB1
 70
6
  9
$SURFTAB2
 70
6
  9
$SURFTYPE
 70
6
  9
$SURFU
 70
6
  9
$SURFV
 70
6
  9
$UCSBASE
  2

  9
$UCSNAME
  2

  9
$UCSORG
 10
0.0
 20
0.0
 30
0.0
  9
$UCSXDIR
 10
1.0
 20
0.0
 30
0.0
  9
$UCSYDIR
 10
0.0
 20
1.0
 30
0.0
  9
$UCSORTHOREF
  2

  9
$UCSORTHOVIEW
 70
0
  9
$UCSORGTOP
 10
0.0
 20
0.0
 30
0.0
  9
$UCSORGBOTTOM
 10
0.0
 20
0.0
 30
0.0
  9
$UCSORGLEFT
 10
0.0
 20
0.0
 30
0.0
  9
$UCSORGRIGHT
 10
0.0
 20
0.0
 30
0.0
  9
$UCSORGFRONT
 10
0.0
 20
0.0
 30
0.0
  9
$UCSORGBACK
 10
0.0
 20
0.0
 30
0.0
  9
$PUCSBASE
  2

  9
$PUCSNAME
  2

  9
$PUCSORG
 10
0.0
 20
0.0
 30
0.0
  9
$PUCSXDIR
 10
1.0
 20
0.0
 30
0.0
  9
$PUCSYDIR
 10
0.0
 20
1.0
 30
0.0
  9
$PUCSORTHOREF
  2

  9
$PUCSORTHOVIEW
 70
0
  9
$PUCSORGTOP
 10
0.0
 20
0.0
 30
0.0
  9
$PUCSORGBOTTOM
 10
0.0
 20
0.0
 30
0.0
  9
$PUCSORGLEFT
 10
0.0
 20
0.0
 30
0.0
  9
$PUCSORGRIGHT
 10
0.0
 20
0.0
 30
0.0
  9
$PUCSORGFRONT
 10
0.0
 20
0.0
 30
0.0
  9
$PUCSORGBACK
 10
0.0
 20
0.0
 30
0.0
  9
$USERI1
 70
0
  9
$USERI2
 70
0
  9
$USERI3
 70
0
  9
$USERI4
 70
0
  9
$USERI5
 70
0
  9
$USERR1
 40
0.0
  9
$USERR2
 40
0.0
  9
$USERR3
 40
0.0
  9
$USERR4
 40
0.0
  9
$USERR5
 40
0.0
  9
$WORLDVIEW
 70
1
  9
$SHADEDGE
 70
3
  9
$SHADEDIF
 70
70
  9
$TILEMODE
 70
1
  9
$MAXACTVP
 70
64
  9
$PINSBASE
 10
0.0
 20
0.0
 30
0.0
  9
$PLIMCHECK
 70
0
  9
$PEXTMIN
 10
1e+20
 20
1e+20
 30
1e+20
  9
$PEXTMAX
 10
-1e+20
 20
-1e+20
 30
-1e+20
  9
$PLIMMIN
 10
0.0
 20
0.0
  9
$PLIMMAX
 10
420.0
 20
297.0
  9
$UNITMODE
 70
0
  9
$VISRETAIN
 70
1
  9
$PLINEGEN
 70
0
  9
$PSLTSCALE
 70
1
  9
$TREEDEPTH
 70
3020
  9
$CMLSTYLE
  2
Standard
  9
$CMLJUST
 70
0
  9
$CMLSCALE
 40
20.0
  9
$PROXYGRAPHICS
 70
1
  9
$MEASUREMENT
 70
1
  9
$CELWEIGHT
370
-1
  9
$ENDCAPS
280
0
  9
$JOINSTYLE
280
0
  9
$LWDISPLAY
290
0
  9
$INSUNITS
 70
6
  9
$HYPERLINKBASE
  1

  9
$STYLESHEET
  1

  9
$XEDIT
290
1
  9
$CEPSNTYPE
380
0
  9
$PSTYLEMODE
290
1
  9
$FINGERPRINTGUID
  2
{8A6F85DA-07CE-473A-A989-892F96DF47BD}
  9
$VERSIONGUID
  2
{F9A08612-8BA7-45E0-BD85-95A966EE3081}
  9
$EXTNAMES
290
1
  9
$PSVPSCALE
 40
0.0
  9
$OLESTARTUP
290
0
  9
$SORTENTS
280
127
  9
$INDEXCTL
280
0
  9
$HIDETEXT
280
1
  9
$XCLIPFRAME
280
1
  9
$HALOGAP
280
0
  9
$OBSCOLOR
 70
257
  9
$OBSLTYPE
280
0
  9
$INTERSECTIONDISPLAY
280
0
  9
$INTERSECTIONCOLOR
 70
257
  9
$DIMASSOC
280
2
  9
$PROJECTNAME
  1

  9
$CAMERADISPLAY
290
0
  9
$LENSLENGTH
 40
50.0
  9
$CAMERAHEIGHT
 40
0.0
  9
$STEPSPERSEC
 40
24.0
  9
$STEPSIZE
 40
100.0
  9
$3DDWFPREC
 40
2.0
  9
$PSOLWIDTH
 40
0.005
  9
$PSOLHEIGHT
 40
0.08
  9
$LOFTANG1
 40
1.570796326795
  9
$LOFTANG2
 40
1.570796326795
  9
$LOFTMAG1
 40
0.0
  9
$LOFTMAG2
 40
0.0
  9
$LOFTPARAM
 70
7
  9
$LOFTNORMALS
280
1
  9
$LATITUDE
 40
37.795
  9
$LONGITUDE
 40
-122.394
  9
$NORTHDIRECTION
 40
0.0
  9
$TIMEZONE
 70
-8000
  9
$LIGHTGLYPHDISPLAY
280
1
  9
$TILEMODELIGHTSYNCH
280
1
  9
$CMATERIAL
347
20
  9
$SOLIDHIST
280
0
  9
$SHOWHIST
280
1
  9
$DWFFRAME
280
2
  9
$DGNFRAME
280
2
  9
$REALWORLDSCALE
290
1
  9
$INTERFERECOLOR
 62
256
  9
$CSHADOW
280
0
  9
$SHADOWPLANELOCATION
 40
0.0
  0
ENDSEC
  0
SECTION
  2
CLASSES
  0
CLASS
  1
ACDBDICTIONARYWDFLT
  2
AcDbDictionaryWithDefault
  3
ObjectDBX Classes
 90
0
 91
0
280
0
281
0
  0
CLASS
  1
SUN
  2
AcDbSun
  3
SCENEOE
 90
1153
 91
0
280
0
281
0
  0
CLASS
  1
VISUALSTYLE
  2
AcDbVisualStyle
  3
ObjectDBX Classes
 90
4095
 91
0
280
0
281
0
  0
CLASS
  1
MATERIAL
  2
AcDbMaterial
  3
ObjectDBX Classes
 90
1153
 91
0
280
0
281
0
  0
CLASS
  1
SCALE
  2
AcDbScale
  3
ObjectDBX Classes
 90
1153
 91
0
280
0
281
0
  0
CLASS
  1
TABLESTYLE
  2
AcDbTableStyle
  3
ObjectDBX Classes
 90
4095
 91
0
280
0
281
0
  0
CLASS
  1
MLEADERSTYLE
  2
AcDbMLeaderStyle
  3
ACDB_MLEADERSTYLE_CLASS
 90
4095
 91
0
280
0
281
0
  0
CLASS
  1
DICTIONARYVAR
  2
AcDbDictionaryVar
  3
ObjectDBX Classes
 90
0
 91
0
280
0
281
0
  0
CLASS
  1
CELLSTYLEMAP
  2
AcDbCellStyleMap
  3
ObjectDBX Classes
 90
1152
 91
0
280
0
281
0
  0
CLASS
  1
MENTALRAYRENDERSETTINGS
  2
AcDbMentalRayRenderSettings
  3
SCENEOE
 90
1024
 91
0
280
0
281
0
  0
CLASS
  1
ACDBDETAILVIEWSTYLE
  2
AcDbDetailViewStyle
  3
ObjectDBX Classes
 90
1025
 91
0
280
0
281
0
  0
CLASS
  1
ACDBSECTIONVIEWSTYLE
  2
AcDbSectionViewStyle
  3
ObjectDBX Classes
 90
1025
 91
0
280
0
281
0
  0
CLASS
  1
RASTERVARIABLES
  2
AcDbRasterVariables
  3
ISM
 90
0
 91
0
280
0
281
0
  0
CLASS
  1
LAYOUT
  2
AcDbLayout
  3
ObjectDBX Classes
 90
0
 91
0
280
0
281
0
  0
CLASS
  1
ACDBPLACEHOLDER
  2
AcDbPlaceHolder
  3
ObjectDBX Classes
 90
0
 91
0
280
0
281
0
  0
ENDSEC
  0
SECTION
  2
TABLES
  0
TABLE
  2
VPORT
  5
8
330
0
100
AcDbSymbolTable
 70
1
  0
VPORT
  5
23
330
8
100
AcDbSymbolTableRecord
100
AcDbViewportTableRecord
  2
*Active
 70
0
 10
0.0
 20
0.0
 11
1.0
 21
1.0
 12
0.0
 22
0.0
 13
0.0
 23
0.0
 14
0.5
 24
0.5
 15
0.5
 25
0.5
 16
0.0
 26
0.0
 36
1.0
 17
0.0
 27
0.0
 37
0.0
 40
1000.0
 41
1.34
 42
50.0
 43
0.0
 44
0.0
 50
0.0
 51
0.0
 71
0
 72
1000
 73
1
 74
3
 75
0
 76
0
 77
0
 78
0
281
0
 65
0
146
0.0
  0
ENDTAB
  0
TABLE
  2
LTYPE
  5
2
330
0
100
AcDbSymbolTable
 70
3
  0
LTYPE
  5
24
330
2
100
AcDbSymbolTableRecord
100
AcDbLinetypeTableRecord
  2
ByBlock
 70
0
  3

 72
65
 73
0
 40
0.0
  0
LTYPE
  5
25
330
2
100
AcDbSymbolTableRecord
100
AcDbLinetypeTableRecord
  2
ByLayer
 70
0
  3

 72
65
 73
0
 40
0.0
  0
LTYPE
  5
26
330
2
100
AcDbSymbolTableRecord
100
AcDbLinetypeTableRecord
  2
Continuous
 70
0
  3

 72
65
 73
0
 40
0.0
  0
ENDTAB
  0
TABLE
  2
LAYER
  5
1
330
0
100
AcDbSymbolTable
 70
2
  0
LAYER
  5
27
330
1
100
AcDbSymbolTableRecord
100
AcDbLayerTableRecord
  2
0
 70
0
 62
7
  6
Continuous
370
-3
390
13
347
21
  0
LAYER
  5
28
330
1
100
AcDbSymbolTableRecord
100
AcDbLayerTableRecord
  2
Defpoints
 70
0
 62
7
  6
Continuous
290
0
370
-3
390
13
347
21
  0
ENDTAB
  0
TABLE
  2
STYLE
  5
5
330
0
100
AcDbSymbolTable
 70
1
  0
STYLE
  5
29
330
5
100
AcDbSymbolTableRecord
100
AcDbTextStyleTableRecord
  2
Standard
 70
0
 40
0.0
 41
1.0
 50
0.0
 71
0
 42
2.5
  3
txt
  4

  0
ENDTAB
  0
TABLE
  2
VIEW
  5
7
330
0
100
AcDbSymbolTable
 70
0
  0
ENDTAB
  0
TABLE
  2
UCS
  5
6
330
0
100
AcDbSymbolTable
 70
0
  0
ENDTAB
  0
TABLE
  2
APPID
  5
3
330
0
100
AcDbSymbolTable
 70
3
  0
APPID
  5
2A
330
3
100
AcDbSymbolTableRecord
100
AcDbRegAppTableRecord
  2
ACAD
 70
0
  0
APPID
  5
49
330
3
100
AcDbSymbolTableRecord
100
AcDbRegAppTableRecord
  2
HATCHBACKGROUNDCOLOR
 70
0
  0
APPID
  5
4A
330
3
100
AcDbSymbolTableRecord
100
AcDbRegAppTableRecord
  2
EZDXF
 70
0
  0
ENDTAB
  0
TABLE
  2
DIMSTYLE
  5
4
330
0
100
AcDbSymbolTable
 70
1
100
AcDbDimStyleTable
  0
DIMSTYLE
105
2B
330
4
100
AcDbSymbolTableRecord
100
AcDbDimStyleTableRecord
  2
Standard
 70
0
 40
1.0
 41
2.5
 42
0.625
 43
3.75
 44
1.25
 45
0.0
 46
0.0
 47
0.0
 48
0.0
 49
2.5
140
2.5
141
2.5
142
0.0
143
0.03937007874
144
1.0
145
0.0
146
1.0
147
0.625
148
0.0
 69
0
 70
0
 71
0
 72
0
 73
0
 74
0
 75
0
 76
0
 77
1
 78
8
 79
3
170
0
171
3
172
1
173
0
174
0
175
0
176
0
177
0
178
0
179
2
271
2
272
2
273
2
274
3
275
0
276
0
277
2
278
44
279
0
280
0
281
0
282
0
283
0
284
8
285
0
286
0
288
0
289
3
290
0
371
-2
372
-2
  0
ENDTAB
  0
TABLE
  2
BLOCK_RECORD
  5
9
330
0
100
AcDbSymbolTable
 70
2
  0
BLOCK_RECORD
  5
17
330
9
100
AcDbSymbolTableRecord
100
AcDbBlockTableRecord
  2
*Model_Space
340
1A
 70
0
280
1
281
0
  0
BLOCK_RECORD
  5
1B
330
9
100
AcDbSymbolTableRecord
100
AcDbBlockTableRecord
  2
*Paper_Space
340
1E
 70
0
280
1
281
0
  0
ENDTAB
  0
ENDSEC
  0
SECTION
  2
BLOCKS
  0
BLOCK
  5
18
330
17
100
AcDbEntity
  8
0
100
AcDbBlockBegin
  2
*Model_Space
 70
0
 10
0.0
 20
0.0
 30
0.0
  3
*Model_Space
  1

  0
ENDBLK
  5
19
330
17
100
AcDbEntity
  8
0
100
AcDbBlockEnd
  0
BLOCK
  5
1C
330
1B
100
AcDbEntity
  8
0
100
AcDbBlockBegin
  2
*Paper_Space
 70
0
 10
0.0
 20
0.0
 30
0.0
  3
*Paper_Space
  1

  0
ENDBLK
  5
1D
330
1B
100
AcDbEntity
  8
0
100
AcDbBlockEnd
  0
ENDSEC
  0
SECTION
  2
ENTITIES
  0
LWPOLYLINE
  5
2F
330
17
100
AcDbEntity
  8
0
100
AcDbPolyline
 90
157
 70
0
 10
-41.05702011231763
 20
-5.936040670631555
 10
-40.95522998570766
 20
-5.84378347754451
 10
-40.95158992624547
 20
-5.840484319955895
 10
-40.9476440206722
 20
-5.837557836931943
 10
-40.945074621752404
 20
-5.8356522408194875
 10
-40.83730125510269
 20
-5.7557220645701435
 10
-40.833355349529405
 20
-5.752795581546183
 10
-40.82914159907276
 20
-5.750269956718179
 10
-40.803704510816566
 20
-5.735023552757383
 10
-40.71130885569567
 20
-5.67964372830549
 10
-40.707095105239
 20
-5.677118103477468
 10
-40.70265409061938
 20
-5.675017659993174
 10
-40.57846616316726
 20
-5.616281144717374
 10
-40.57402514854763
 20
-5.61418070123307
 10
-40.56939963916346
 20
-5.612525667511416
 10
-40.440052525265855
 20
-5.566244530123333
 10
-40.43542701588169
 20
-5.564589496401687
 10
-40.430661557916956
 20
-5.563395811322181
 10
-40.390921373667595
 20
-5.553441413372116
 10
-40.29740094098894
 20
-5.530015764474663
 10
-40.29263548302419
 20
-5.528822079395154
 10
-40.28777597044415
 20
-5.528101238797639
 10
-40.27331678039595
 20
-5.525956420562835
 10
-40.15188522307438
 20
-5.507943750589221
 10
-40.14702571049434
 20
-5.507222909991705
 10
-40.14211894306159
 20
-5.506981855965182
 10
-40.00490676743274
 20
-5.500241054026522
 10
-40.0
 20
-5.5
 10
-39.99509323256726
 20
-5.500241054026522
 10
-39.85788105693841
 20
-5.506981855965182
 10
-39.85297428950566
 20
-5.507222909991705
 10
-39.84811477692562
 20
-5.507943750589221
 10
-39.72668321960405
 20
-5.525956420562835
 10
-39.71222402955585
 20
-5.528101238797639
 10
-39.70736451697581
 20
-5.528822079395154
 10
-39.70259905901106
 20
-5.530015764474663
 10
-39.609078626332405
 20
-5.553441413372116
 10
-39.569338442083044
 20
-5.563395811322181
 10
-39.56457298411831
 20
-5.564589496401687
 10
-39.559947474734145
 20
-5.566244530123333
 10
-39.43060036083654
 20
-5.612525667511416
 10
-39.42597485145237
 20
-5.61418070123307
 10
-39.42153383683274
 20
-5.616281144717374
 10
-39.29734590938058
 20
-5.67501765999319
 10
-39.292904894761
 20
-5.677118103477468
 10
-39.28869114430429
 20
-5.679643728305508
 10
-39.17085840092725
 20
-5.750269956718166
 10
-39.166644650470595
 20
-5.752795581546182
 10
-39.162698744897334
 20
-5.755722064570128
 10
-39.052355979327814
 20
-5.83755783693193
 10
-39.04841007375453
 20
-5.840484319955895
 10
-39.044770014292354
 20
-5.8437834775445
 10
-39.02232410308065
 20
-5.864127265627287
 10
-38.942979887682384
 20
-5.9360406706315505
 10
-38.93933982822018
 20
-5.939339828220179
 10
-38.93604067063159
 20
-5.942979887682345
 10
-38.84378347754445
 20
-6.044770014292426
 10
-38.8404843199559
 20
-6.048410073754531
 10
-38.83755783693188
 20
-6.0523559793278805
 10
-38.755722064570136
 20
-6.162698744897314
 10
-38.75279558154618
 20
-6.166644650470596
 10
-38.75026995671817
 20
-6.170858400927238
 10
-38.67964372830548
 20
-6.288691144304334
 10
-38.67711810347747
 20
-6.292904894761003
 10
-38.675017659993166
 20
-6.297345909380628
 10
-38.65454725286324
 20
-6.340626948843552
 10
-38.616281144717405
 20
-6.421533836832667
 10
-38.61418070123307
 20
-6.425974851452365
 10
-38.61252566751145
 20
-6.430600360836474
 10
-38.56624453012334
 20
-6.559947474734143
 10
-38.56458949640169
 20
-6.564572984118306
 10
-38.56339581132219
 20
-6.569338442083033
 10
-38.541834700623504
 20
-6.655415221018814
 10
-38.530015764474655
 20
-6.702599059011088
 10
-38.528822079395155
 20
-6.707364516975807
 10
-38.52810123879763
 20
-6.712224029555886
 10
-38.52020080422785
 20
-6.765484433190185
 10
-38.50794375058923
 20
-6.8481147769255895
 10
-38.507222909991704
 20
-6.852974289505659
 10
-38.506981855965186
 20
-6.85788105693838
 10
-38.500241054026525
 20
-6.995093232567258
 10
-38.5
 20
-7.0
 10
-38.500241054026525
 20
-7.004906767432742
 10
-38.506981855965186
 20
-7.14211894306162
 10
-38.507222909991704
 20
-7.147025710494341
 10
-38.50794375058923
 20
-7.1518852230744105
 10
-38.520203951192855
 20
-7.234536781924629
 10
-38.52810123879763
 20
-7.287775970444113
 10
-38.528822079395155
 20
-7.292635483024192
 10
-38.530015764474655
 20
-7.2974009409889105
 10
-38.54530670169486
 20
-7.3584457842355615
 10
-38.56180182754991
 20
-7.4242980179903295
 10
-38.56458949640169
 20
-7.435427015881693
 10
-38.61418070123307
 20
-7.574025148547634
 10
-38.67711810347747
 20
-7.707095105238997
 10
-38.75279558154618
 20
-7.833355349529404
 10
-38.84048431995589
 20
-7.951589926245468
 10
-38.93933982822018
 20
-8.060660171779821
 10
-39.04841007375453
 20
-8.159515680044105
 10
-39.166644650470595
 20
-8.247204418453817
 10
-39.292904894761
 20
-8.322881896522532
 10
-39.42597485145237
 20
-8.385819298766929
 10
-39.56457298411831
 20
-8.435410503598312
 10
-39.70736451697581
 20
-8.471177920604845
 10
-39.85297428950566
 20
-8.492777090008296
 10
-40.0
 20
-8.5
 10
-40.14702571049434
 20
-8.492777090008296
 10
-40.29263548302419
 20
-8.471177920604845
 10
-40.43542701588169
 20
-8.435410503598312
 10
-40.57402514854763
 20
-8.385819298766929
 10
-40.707095105239
 20
-8.322881896522533
 10
-40.833355349529405
 20
-8.247204418453817
 10
-40.95158992624547
 20
-8.159515680044105
 10
-41.06066017177982
 20
-8.060660171779821
 10
-41.15951568004411
 20
-7.951589926245468
 10
-41.24720441845382
 20
-7.833355349529404
 10
-41.32288189652253
 20
-7.707095105238997
 10
-41.38581929876693
 20
-7.574025148547635
 10
-41.43541050359831
 20
-7.435427015881694
 10
-41.43819817245009
 20
-7.4242980179903295
 10
-41.45540061593105
 20
-7.355622013986727
 10
-41.469984235525345
 20
-7.297400940988911
 10
-41.471177920604845
 20
-7.292635483024193
 10
-41.47189876120237
 20
-7.287775970444114
 10
-41.47979919577215
 20
-7.234515566809815
 10
-41.49205624941077
 20
-7.1518852230744105
 10
-41.492777090008296
 20
-7.147025710494341
 10
-41.493018144034814
 20
-7.14211894306162
 10
-41.499758945973475
 20
-7.004906767432742
 10
-41.5
 20
-7.0
 10
-41.499758945973475
 20
-6.995093232567258
 10
-41.493018144034814
 20
-6.85788105693838
 10
-41.492777090008296
 20
-6.852974289505659
 10
-41.49205624941077
 20
-6.8481147769255895
 10
-41.47979919577215
 20
-6.765484433190185
 10
-41.47189876120237
 20
-6.712224029555886
 10
-41.471177920604845
 20
-6.707364516975807
 10
-41.469984235525345
 20
-6.702599059011088
 10
-41.45815477865481
 20
-6.6553732199434465
 10
-41.43660418867781
 20
-6.569338442083034
 10
-41.43541050359831
 20
-6.564572984118307
 10
-41.43375546987666
 20
-6.559947474734145
 10
-41.38747433248856
 20
-6.430600360836492
 10
-41.38581929876693
 20
-6.425974851452366
 10
-41.3837188552826
 20
-6.421533836832684
 10
-41.324982340006834
 20
-6.29734590938063
 10
-41.32288189652253
 20
-6.292904894761003
 10
-41.32035627169452
 20
-6.288691144304337
 10
-41.249730043281836
 20
-6.170858400927252
 10
-41.24720441845382
 20
-6.166644650470597
 10
-41.24427793542987
 20
-6.162698744897331
 10
-41.16244216306806
 20
-6.052355979327793
 10
-41.15951568004411
 20
-6.048410073754532
 10
-41.15621652245549
 20
-6.0447700142923315
 10
-41.06395932936842
 20
-5.942979887682347
 10
-41.06066017177982
 20
-5.939339828220179
 10
-41.05702011231763
 20
-5.936040670631555
  0
LWPOLYLINE
  5
30
330
17
100
AcDbEntity
  8
0
100
AcDbPolyline
 90
21
 70
0
 10
-59.141586642964434
 20
-2.561731656763491
 10
-59.13397459621556
 20
-2.6
 10
-59.13397459621556
 20
-7.3999999999999995
 10
-59.141586642964434
 20
-7.438268343236508
 10
-59.1632639180969
 20
-7.470710678118654
 10
-59.19570625297905
 20
-7.492387953251128
 10
-59.23397459621556
 20
-7.499999999999999
 10
-60.76602540378444
 20
-7.499999999999999
 10
-60.80429374702095
 20
-7.492387953251128
 10
-60.8367360819031
 20
-7.470710678118654
 10
-60.858413357035566
 20
-7.438268343236508
 10
-60.86602540378444
 20
-7.3999999999999995
 10
-60.86602540378444
 20
-2.6
 10
-60.858413357035566
 20
-2.561731656763491
 10
-60.8367360819031
 20
-2.5292893218813455
 10
-60.80429374702095
 20
-2.5076120467488714
 10
-60.76602540378444
 20
-2.5
 10
-59.23397459621556
 20
-2.5
 10
-59.19570625297905
 20
-2.5076120467488714
 10
-59.1632639180969
 20
-2.5292893218813455
 10
-59.141586642964434
 20
-2.561731656763491
  0
LWPOLYLINE
  5
31
330
17
100
AcDbEntity
  8
0
100
AcDbPolyline
 90
21
 70
0
 10
-19.14158664296443
 20
-2.561731656763491
 10
-19.13397459621556
 20
-2.6
 10
-19.13397459621556
 20
-7.3999999999999995
 10
-19.14158664296443
 20
-7.438268343236508
 10
-19.163263918096906
 20
-7.470710678118654
 10
-19.19570625297905
 20
-7.492387953251128
 10
-19.23397459621556
 20
-7.499999999999999
 10
-20.76602540378444
 20
-7.499999999999999
 10
-20.80429374702095
 20
-7.492387953251128
 10
-20.836736081903094
 20
-7.470710678118654
 10
-20.85841335703557
 20
-7.438268343236508
 10
-20.86602540378444
 20
-7.3999999999999995
 10
-20.86602540378444
 20
-2.6
 10
-20.85841335703557
 20
-2.561731656763491
 10
-20.836736081903094
 20
-2.5292893218813455
 10
-20.80429374702095
 20
-2.5076120467488714
 10
-20.76602540378444
 20
-2.5
 10
-19.23397459621556
 20
-2.5
 10
-19.19570625297905
 20
-2.5076120467488714
 10
-19.163263918096906
 20
-2.5292893218813455
 10
-19.14158664296443
 20
-2.561731656763491
  0
LWPOLYLINE
  5
32
330
17
100
AcDbEntity
  8
0
100
AcDbPolyline
 90
65
 70
0
 10
10.435427015881693
 20
-1.4354105035983136
 10
10.292635483024192
 20
-1.4711779206048459
 10
10.147025710494342
 20
-1.4927770900082955
 10
10.0
 20
-1.5000000000000002
 10
9.852974289505658
 20
-1.4927770900082955
 10
9.707364516975808
 20
-1.4711779206048459
 10
9.564572984118307
 20
-1.4354105035983136
 10
9.425974851452365
 20
-1.3858192987669302
 10
9.292904894761003
 20
-1.3228818965225329
 10
9.166644650470596
 20
-1.2472044184538182
 10
9.048410073754532
 20
-1.159515680044106
 10
8.939339828220179
 20
-1.0606601717798216
 10
8.840484319955895
 20
-0.9515899262454683
 10
8.752795581546183
 20
-0.8333553495294034
 10
8.677118103477468
 20
-0.7070951052389968
 10
8.614180701233071
 20
-0.574025148547635
 10
8.564589496401688
 20
-0.4354270158816937
 10
8.528822079395155
 20
-0.292635483024193
 10
8.507222909991704
 20
-0.14702571049434135
 10
8.5
 20
-2.9471932233461867e-16
 10
8.507222909991704
 20
0.14702571049434077
 10
8.528822079395155
 20
0.2926354830241924
 10
8.564589496401688
 20
0.4354270158816931
 10
8.61418070123307
 20
0.5740251485476344
 10
8.677118103477467
 20
0.7070951052389963
 10
8.75279558154618
 20
0.8333553495294028
 10
8.840484319955895
 20
0.9515899262454678
 10
8.939339828220179
 20
1.060660171779821
 10
9.048410073754532
 20
1.1595156800441047
 10
9.166644650470596
 20
1.2472044184538176
 10
9.292904894761003
 20
1.3228818965225322
 10
9.425974851452365
 20
1.3858192987669296
 10
9.564572984118307
 20
1.4354105035983131
 10
9.707364516975806
 20
1.4711779206048452
 10
9.85297428950566
 20
1.492777090008295
 10
10.0
 20
1.4999999999999998
 10
10.14702571049434
 20
1.492777090008295
 10
10.292635483024192
 20
1.4711779206048454
 10
10.435427015881693
 20
1.4354105035983131
 10
10.574025148547635
 20
1.3858192987669298
 10
10.707095105238997
 20
1.3228818965225324
 10
10.833355349529402
 20
1.247204418453818
 10
10.951589926245468
 20
1.159515680044105
 10
11.060660171779821
 20
1.0606601717798212
 10
11.159515680044105
 20
0.9515899262454688
 10
11.247204418453817
 20
0.8333553495294032
 10
11.322881896522532
 20
0.7070951052389968
 10
11.385819298766929
 20
0.5740251485476354
 10
11.435410503598312
 20
0.43542701588169364
 10
11.471177920604845
 20
0.29263548302419295
 10
11.492777090008296
 20
0.14702571049434066
 10
11.5
 20
-1.110223024625157e-16
 10
11.492777090008296
 20
-0.14702571049434102
 10
11.471177920604845
 20
-0.2926354830241925
 10
11.435410503598312
 20
-0.43542701588169364
 10
11.385819298766929
 20
-0.5740251485476348
 10
11.322881896522533
 20
-0.7070951052389965
 10
11.247204418453817
 20
-0.8333553495294034
 10
11.159515680044105
 20
-0.9515899262454683
 10
11.060660171779821
 20
-1.0606601717798216
 10
10.951589926245468
 20
-1.1595156800441055
 10
10.833355349529404
 20
-1.247204418453818
 10
10.707095105238997
 20
-1.3228818965225326
 10
10.574025148547635
 20
-1.3858192987669302
 10
10.435427015881693
 20
-1.4354105035983136
  0
LWPOLYLINE
  5
33
330
17
100
AcDbEntity
  8
0
100
AcDbPolyline
 90
65
 70
0
 10
-89.85297428950565
 20
-1.4927770900082953
 10
-90.0
 20
-1.5
 10
-90.14702571049435
 20
-1.4927770900082953
 10
-90.2926354830242
 20
-1.4711779206048456
 10
-90.4354270158817
 20
-1.4354105035983133
 10
-90.57402514854763
 20
-1.38581929876693
 10
-90.70709510523899
 20
-1.3228818965225326
 10
-90.8333553495294
 20
-1.247204418453818
 10
-90.95158992624548
 20
-1.1595156800441058
 10
-91.06066017177982
 20
-1.0606601717798214
 10
-91.15951568004411
 20
-0.9515899262454682
 10
-91.24720441845382
 20
-0.8333553495294033
 10
-91.32288189652253
 20
-0.7070951052389967
 10
-91.38581929876693
 20
-0.5740251485476349
 10
-91.43541050359832
 20
-0.4354270158816936
 10
-91.47117792060484
 20
-0.2926354830241929
 10
-91.49277709000829
 20
-0.14702571049434124
 10
-91.5
 20
-1.8369701987210297e-16
 10
-91.49277709000829
 20
0.14702571049434088
 10
-91.47117792060484
 20
0.2926354830241925
 10
-91.43541050359832
 20
0.4354270158816932
 10
-91.38581929876693
 20
0.5740251485476345
 10
-91.32288189652253
 20
0.7070951052389964
 10
-91.24720441845382
 20
0.8333553495294029
 10
-91.15951568004411
 20
0.9515899262454679
 10
-91.06066017177982
 20
1.0606601717798212
 10
-90.95158992624548
 20
1.1595156800441049
 10
-90.8333553495294
 20
1.2472044184538178
 10
-90.70709510523899
 20
1.3228818965225324
 10
-90.57402514854763
 20
1.3858192987669298
 10
-90.4354270158817
 20
1.4354105035983133
 10
-90.2926354830242
 20
1.4711779206048454
 10
-90.14702571049435
 20
1.4927770900082953
 10
-90.0
 20
1.5
 10
-89.85297428950565
 20
1.4927770900082953
 10
-89.7073645169758
 20
1.4711779206048456
 10
-89.56457298411831
 20
1.4354105035983133
 10
-89.42597485145237
 20
1.38581929876693
 10
-89.29290489476101
 20
1.3228818965225326
 10
-89.1666446504706
 20
1.2472044184538182
 10
-89.04841007375452
 20
1.1595156800441053
 10
-88.93933982822018
 20
1.0606601717798214
 10
-88.84048431995589
 20
0.9515899262454689
 10
-88.75279558154618
 20
0.8333553495294033
 10
-88.67711810347747
 20
0.7070951052389969
 10
-88.61418070123307
 20
0.5740251485476355
 10
-88.56458949640168
 20
0.43542701588169375
 10
-88.52882207939516
 20
0.29263548302419307
 10
-88.50722290999171
 20
0.14702571049434077
 10
-88.5
 20
0.0
 10
-88.50722290999171
 20
-0.1470257104943409
 10
-88.52882207939516
 20
-0.2926354830241924
 10
-88.56458949640168
 20
-0.4354270158816935
 10
-88.61418070123307
 20
-0.5740251485476346
 10
-88.67711810347747
 20
-0.7070951052389964
 10
-88.75279558154618
 20
-0.8333553495294033
 10
-88.84048431995589
 20
-0.9515899262454682
 10
-88.93933982822018
 20
-1.0606601717798214
 10
-89.04841007375452
 20
-1.1595156800441053
 10
-89.1666446504706
 20
-1.2472044184538178
 10
-89.29290489476101
 20
-1.3228818965225324
 10
-89.42597485145237
 20
-1.38581929876693
 10
-89.5645729841183
 20
-1.4354105035983133
 10
-89.7073645169758
 20
-1.4711779206048456
 10
-89.85297428950565
 20
-1.4927770900082953
  0
LWPOLYLINE
  5
34
330
17
100
AcDbEntity
  8
0
100
AcDbPolyline
 90
65
 70
0
 10
-69.5645729841183
 20
-1.4354105035983133
 10
-69.7073645169758
 20
-1.4711779206048456
 10
-69.85297428950565
 20
-1.4927770900082953
 10
-70.0
 20
-1.5
 10
-70.14702571049435
 20
-1.4927770900082953
 10
-70.2926354830242
 20
-1.4711779206048456
 10
-70.4354270158817
 20
-1.4354105035983133
 10
-70.57402514854763
 20
-1.38581929876693
 10
-70.70709510523899
 20
-1.3228818965225326
 10
-70.8333553495294
 20
-1.247204418453818
 10
-70.95158992624548
 20
-1.1595156800441058
 10
-71.06066017177982
 20
-1.0606601717798214
 10
-71.15951568004411
 20
-0.9515899262454682
 10
-71.24720441845382
 20
-0.8333553495294033
 10
-71.32288189652253
 20
-0.7070951052389967
 10
-71.38581929876693
 20
-0.5740251485476349
 10
-71.43541050359832
 20
-0.4354270158816936
 10
-71.47117792060484
 20
-0.2926354830241929
 10
-71.49277709000829
 20
-0.14702571049434124
 10
-71.5
 20
-1.8369701987210297e-16
 10
-71.49277709000829
 20
0.14702571049434088
 10
-71.47117792060484
 20
0.2926354830241925
 10
-71.43541050359832
 20
0.4354270158816932
 10
-71.38581929876693
 20
0.5740251485476345
 10
-71.32288189652253
 20
0.7070951052389964
 10
-71.24720441845382
 20
0.8333553495294029
 10
-71.15951568004411
 20
0.9515899262454679
 10
-71.06066017177982
 20
1.0606601717798212
 10
-70.95158992624548
 20
1.1595156800441049
 10
-70.8333553495294
 20
1.2472044184538178
 10
-70.70709510523899
 20
1.3228818965225324
 10
-70.57402514854763
 20
1.3858192987669298
 10
-70.4354270158817
 20
1.4354105035983133
 10
-70.2926354830242
 20
1.4711779206048454
 10
-70.14702571049435
 20
1.4927770900082953
 10
-70.0
 20
1.5
 10
-69.85297428950565
 20
1.4927770900082953
 10
-69.7073645169758
 20
1.4711779206048456
 10
-69.56457298411831
 20
1.4354105035983133
 10
-69.42597485145237
 20
1.38581929876693
 10
-69.29290489476101
 20
1.3228818965225326
 10
-69.1666446504706
 20
1.2472044184538182
 10
-69.04841007375452
 20
1.1595156800441053
 10
-68.93933982822018
 20
1.0606601717798214
 10
-68.84048431995589
 20
0.9515899262454689
 10
-68.75279558154618
 20
0.8333553495294033
 10
-68.67711810347747
 20
0.7070951052389969
 10
-68.61418070123307
 20
0.5740251485476355
 10
-68.56458949640168
 20
0.43542701588169375
 10
-68.52882207939516
 20
0.29263548302419307
 10
-68.50722290999171
 20
0.14702571049434077
 10
-68.5
 20
0.0
 10
-68.50722290999171
 20
-0.1470257104943409
 10
-68.52882207939516
 20
-0.2926354830241924
 10
-68.56458949640168
 20
-0.4354270158816935
 10
-68.61418070123307
 20
-0.5740251485476346
 10
-68.67711810347747
 20
-0.7070951052389964
 10
-68.75279558154618
 20
-0.8333553495294033
 10
-68.84048431995589
 20
-0.9515899262454682
 10
-68.93933982822018
 20
-1.0606601717798214
 10
-69.04841007375452
 20
-1.1595156800441053
 10
-69.1666446504706
 20
-1.2472044184538178
 10
-69.29290489476101
 20
-1.3228818965225324
 10
-69.42597485145237
 20
-1.38581929876693
 10
-69.5645729841183
 20
-1.4354105035983133
  0
LWPOLYLINE
  5
35
330
17
100
AcDbEntity
  8
0
100
AcDbPolyline
 90
69
 70
0
 10
-33.82816731601907
 20
-4.465820354036149
 10
-33.99034010813411
 20
-4.498078528040322
 10
-34.0
 20
-4.5
 10
-34.009849140335724
 20
-4.499999999999999
 10
-45.990150859664276
 20
-4.499999999999999
 10
-46.0
 20
-4.5
 10
-46.00965989186589
 20
-4.498078528040322
 10
-46.17183268398093
 20
-4.465820354036149
 10
-46.19134171618254
 20
-4.461939766255643
 10
-46.20788067508128
 20
-4.450888787226082
 10
-46.337014431694534
 20
-4.364604369622838
 10
-46.35355339059328
 20
-4.353553390593274
 10
-46.36460436962283
 20
-4.337014431694544
 10
-46.400348020664595
 20
-4.283520277566738
 10
-46.45088878722609
 20
-4.207880675081276
 10
-46.46193976625565
 20
-4.191341716182545
 10
-46.46582035403616
 20
-4.171832683980925
 10
-46.498078528040324
 20
-4.00965989186592
 10
-46.5
 20
-4.0
 10
-46.5
 20
-3.9901508596643085
 10
-46.5
 20
-2.6
 10
-46.5
 20
2.6
 10
-46.5
 20
3.9901508596643085
 10
-46.5
 20
4.0
 10
-46.498078528040324
 20
4.00965989186592
 10
-46.46582035403616
 20
4.171832683980925
 10
-46.46193976625565
 20
4.191341716182545
 10
-46.45088878722609
 20
4.207880675081276
 10
-46.400348020664595
 20
4.283520277566738
 10
-46.36460436962283
 20
4.337014431694544
 10
-46.35355339059328
 20
4.353553390593274
 10
-46.337014431694534
 20
4.364604369622838
 10
-46.20788067508128
 20
4.450888787226082
 10
-46.19134171618254
 20
4.461939766255643
 10
-46.17183268398093
 20
4.465820354036149
 10
-46.00965989186589
 20
4.498078528040322
 10
-46.0
 20
4.5
 10
-45.990150859664276
 20
4.499999999999999
 10
-34.009849140335724
 20
4.499999999999999
 10
-34.0
 20
4.5
 10
-33.99034010813411
 20
4.498078528040322
 10
-33.82816731601907
 20
4.465820354036149
 10
-33.80865828381746
 20
4.461939766255643
 10
-33.79211932491872
 20
4.450888787226082
 10
-33.662985568305466
 20
4.364604369622838
 10
-33.64644660940672
 20
4.353553390593274
 10
-33.63539563037717
 20
4.337014431694544
 10
-33.599651979335405
 20
4.283520277566738
 10
-33.54911121277391
 20
4.207880675081276
 10
-33.53806023374435
 20
4.191341716182545
 10
-33.53417964596384
 20
4.171832683980925
 10
-33.501921471959676
 20
4.00965989186592
 10
-33.5
 20
4.0
 10
-33.5
 20
3.9901508596643085
 10
-33.5
 20
2.6
 10
-33.5
 20
-2.6
 10
-33.5
 20
-3.9901508596643085
 10
-33.5
 20
-4.0
 10
-33.501921471959676
 20
-4.00965989186592
 10
-33.53417964596384
 20
-4.171832683980925
 10
-33.53806023374435
 20
-4.191341716182545
 10
-33.54911121277391
 20
-4.207880675081276
 10
-33.599651979335405
 20
-4.283520277566738
 10
-33.63539563037717
 20
-4.337014431694544
 10
-33.64644660940672
 20
-4.353553390593274
 10
-33.662985568305466
 20
-4.364604369622838
 10
-33.79211932491872
 20
-4.450888787226082
 10
-33.80865828381746
 20
-4.461939766255643
 10
-33.82816731601907
 20
-4.465820354036149
  0
LWPOLYLINE
  5
36
330
17
100
AcDbEntity
  8
0
100
AcDbPolyline
 90
25
 70
0
 10
-45.5
 20
-2.6
 10
-45.5
 20
-3.3901508596642786
 10
-45.49057796624244
 20
-3.4375186220697898
 10
-45.46932537403661
 20
-3.469325374036622
 10
-45.437518622069796
 20
-3.4905779662424425
 10
-45.39015085966428
 20
-3.5
 10
-34.60984914033572
 20
-3.5
 10
-34.562481377930204
 20
-3.4905779662424425
 10
-34.53067462596339
 20
-3.469325374036622
 10
-34.50942203375756
 20
-3.4375186220697898
 10
-34.5
 20
-3.3901508596642786
 10
-34.5
 20
-2.6
 10
-34.5
 20
2.6
 10
-34.5
 20
3.3901508596642786
 10
-34.50942203375756
 20
3.4375186220697898
 10
-34.53067462596339
 20
3.469325374036622
 10
-34.562481377930204
 20
3.4905779662424425
 10
-34.60984914033572
 20
3.5
 10
-45.39015085966428
 20
3.5
 10
-45.437518622069796
 20
3.4905779662424425
 10
-45.46932537403661
 20
3.469325374036622
 10
-45.49057796624244
 20
3.4375186220697898
 10
-45.5
 20
3.3901508596642786
 10
-45.5
 20
2.6
 10
-45.5
 20
-2.6
  0
LWPOLYLINE
  5
37
330
17
100
AcDbEntity
  8
0
100
AcDbPolyline
 90
65
 70
0
 10
-9.564572984118307
 20
-1.4354105035983133
 10
-9.707364516975808
 20
-1.4711779206048456
 10
-9.852974289505658
 20
-1.4927770900082953
 10
-10.0
 20
-1.5
 10
-10.147025710494342
 20
-1.4927770900082953
 10
-10.292635483024192
 20
-1.4711779206048456
 10
-10.435427015881693
 20
-1.4354105035983133
 10
-10.574025148547635
 20
-1.38581929876693
 10
-10.707095105238997
 20
-1.3228818965225326
 10
-10.833355349529404
 20
-1.247204418453818
 10
-10.951589926245468
 20
-1.1595156800441058
 10
-11.060660171779821
 20
-1.0606601717798214
 10
-11.159515680044105
 20
-0.9515899262454682
 10
-11.247204418453817
 20
-0.8333553495294033
 10
-11.322881896522532
 20
-0.7070951052389967
 10
-11.385819298766929
 20
-0.5740251485476349
 10
-11.435410503598312
 20
-0.4354270158816936
 10
-11.471177920604845
 20
-0.2926354830241929
 10
-11.492777090008296
 20
-0.1470257104943412
 10
-11.5
 20
-1.5594144425647406e-16
 10
-11.492777090008296
 20
0.1470257104943409
 10
-11.471177920604845
 20
0.2926354830241925
 10
-11.435410503598312
 20
0.4354270158816932
 10
-11.38581929876693
 20
0.5740251485476345
 10
-11.322881896522533
 20
0.7070951052389964
 10
-11.24720441845382
 20
0.8333553495294029
 10
-11.159515680044105
 20
0.9515899262454679
 10
-11.060660171779821
 20
1.0606601717798212
 10
-10.951589926245468
 20
1.1595156800441049
 10
-10.833355349529404
 20
1.2472044184538178
 10
-10.707095105238997
 20
1.3228818965225324
 10
-10.574025148547635
 20
1.3858192987669298
 10
-10.435427015881693
 20
1.4354105035983133
 10
-10.292635483024194
 20
1.4711779206048454
 10
-10.14702571049434
 20
1.4927770900082953
 10
-10.0
 20
1.5
 10
-9.85297428950566
 20
1.4927770900082953
 10
-9.707364516975808
 20
1.4711779206048456
 10
-9.564572984118307
 20
1.4354105035983133
 10
-9.425974851452365
 20
1.38581929876693
 10
-9.292904894761003
 20
1.3228818965225326
 10
-9.166644650470598
 20
1.2472044184538182
 10
-9.048410073754532
 20
1.1595156800441053
 10
-8.939339828220179
 20
1.0606601717798214
 10
-8.840484319955895
 20
0.9515899262454689
 10
-8.752795581546183
 20
0.8333553495294033
 10
-8.677118103477468
 20
0.7070951052389969
 10
-8.614180701233071
 20
0.5740251485476355
 10
-8.564589496401688
 20
0.43542701588169375
 10
-8.528822079395155
 20
0.29263548302419307
 10
-8.507222909991704
 20
0.1470257104943408
 10
-8.5
 20
2.775557561562891e-17
 10
-8.507222909991704
 20
-0.14702571049434088
 10
-8.528822079395155
 20
-0.2926354830241924
 10
-8.564589496401688
 20
-0.4354270158816935
 10
-8.614180701233071
 20
-0.5740251485476346
 10
-8.677118103477467
 20
-0.7070951052389964
 10
-8.752795581546183
 20
-0.8333553495294033
 10
-8.840484319955895
 20
-0.9515899262454682
 10
-8.939339828220179
 20
-1.0606601717798214
 10
-9.048410073754532
 20
-1.1595156800441053
 10
-9.166644650470596
 20
-1.2472044184538178
 10
-9.292904894761003
 20
-1.3228818965225324
 10
-9.425974851452365
 20
-1.38581929876693
 10
-9.564572984118307
 20
-1.4354105035983133
  0
LWPOLYLINE
  5
38
330
17
100
AcDbEntity
  8
0
100
AcDbPolyline
 90
21
 70
0
 10
-59.141586642964434
 20
7.438268343236508
 10
-59.13397459621556
 20
7.3999999999999995
 10
-59.13397459621556
 20
2.6
 10
-59.141586642964434
 20
2.561731656763491
 10
-59.1632639180969
 20
2.5292893218813455
 10
-59.19570625297905
 20
2.5076120467488714
 10
-59.23397459621556
 20
2.5
 10
-60.76602540378444
 20
2.5
 10
-60.80429374702095
 20
2.5076120467488714
 10
-60.8367360819031
 20
2.5292893218813455
 10
-60.858413357035566
 20
2.561731656763491
 10
-60.86602540378444
 20
2.6
 10
-60.86602540378444
 20
7.3999999999999995
 10
-60.858413357035566
 20
7.438268343236508
 10
-60.8367360819031
 20
7.470710678118654
 10
-60.80429374702095
 20
7.492387953251128
 10
-60.76602540378444
 20
7.499999999999999
 10
-59.23397459621556
 20
7.499999999999999
 10
-59.19570625297905
 20
7.492387953251128
 10
-59.1632639180969
 20
7.470710678118654
 10
-59.141586642964434
 20
7.438268343236508
  0
LWPOLYLINE
  5
39
330
17
100
AcDbEntity
  8
0
100
AcDbPolyline
 90
21
 70
0
 10
-19.13397459621556
 20
2.6
 10
-19.14158664296443
 20
2.561731656763491
 10
-19.163263918096906
 20
2.5292893218813455
 10
-19.19570625297905
 20
2.5076120467488714
 10
-19.23397459621556
 20
2.5
 10
-20.76602540378444
 20
2.5
 10
-20.80429374702095
 20
2.5076120467488714
 10
-20.836736081903094
 20
2.5292893218813455
 10
-20.85841335703557
 20
2.561731656763491
 10
-20.86602540378444
 20
2.6
 10
-20.86602540378444
 20
7.3999999999999995
 10
-20.85841335703557
 20
7.438268343236508
 10
-20.836736081903094
 20
7.470710678118654
 10
-20.80429374702095
 20
7.492387953251128
 10
-20.76602540378444
 20
7.499999999999999
 10
-19.23397459621556
 20
7.499999999999999
 10
-19.19570625297905
 20
7.492387953251128
 10
-19.163263918096906
 20
7.470710678118654
 10
-19.14158664296443
 20
7.438268343236508
 10
-19.13397459621556
 20
7.3999999999999995
 10
-19.13397459621556
 20
2.6
  0
LWPOLYLINE
  5
3A
330
17
100
AcDbEntity
  8
0
100
AcDbPolyline
 90
21
 70
0
 10
20.86602540378444
 20
2.6
 10
20.85841335703557
 20
2.561731656763491
 10
20.836736081903094
 20
2.5292893218813455
 10
20.80429374702095
 20
2.5076120467488714
 10
20.76602540378444
 20
2.5
 10
19.23397459621556
 20
2.5
 10
19.19570625297905
 20
2.5076120467488714
 10
19.163263918096906
 20
2.5292893218813455
 10
19.14158664296443
 20
2.561731656763491
 10
19.13397459621556
 20
2.6
 10
19.13397459621556
 20
7.3999999999999995
 10
19.14158664296443
 20
7.438268343236508
 10
19.163263918096906
 20
7.470710678118654
 10
19.19570625297905
 20
7.492387953251128
 10
19.23397459621556
 20
7.499999999999999
 10
20.76602540378444
 20
7.499999999999999
 10
20.80429374702095
 20
7.492387953251128
 10
20.836736081903094
 20
7.470710678118654
 10
20.85841335703557
 20
7.438268343236508
 10
20.86602540378444
 20
7.3999999999999995
 10
20.86602540378444
 20
2.6
  0
LWPOLYLINE
  5
3B
330
17
100
AcDbEntity
  8
0
100
AcDbPolyline
 90
156
 70
0
 10
-41.43541050359831
 20
6.564572984118306
 10
-41.43660418867781
 20
6.569338442083033
 10
-41.458165299376496
 20
6.655415221018814
 10
-41.469984235525345
 20
6.702599059011088
 10
-41.471177920604845
 20
6.707364516975807
 10
-41.47189876120237
 20
6.712224029555886
 10
-41.47979919577215
 20
6.765484433190185
 10
-41.49205624941077
 20
6.8481147769255895
 10
-41.492777090008296
 20
6.852974289505659
 10
-41.493018144034814
 20
6.85788105693838
 10
-41.499758945973475
 20
6.995093232567258
 10
-41.5
 20
7.0
 10
-41.499758945973475
 20
7.004906767432742
 10
-41.493018144034814
 20
7.14211894306162
 10
-41.492777090008296
 20
7.147025710494341
 10
-41.49205624941077
 20
7.1518852230744105
 10
-41.47979919577215
 20
7.234515566809815
 10
-41.47189876120237
 20
7.287775970444114
 10
-41.471177920604845
 20
7.292635483024193
 10
-41.469984235525345
 20
7.297400940988911
 10
-41.4547242327627
 20
7.358322286958336
 10
-41.43819817245009
 20
7.4242980179903295
 10
-41.43541050359831
 20
7.435427015881693
 10
-41.38581929876693
 20
7.574025148547634
 10
-41.32288189652253
 20
7.707095105238997
 10
-41.24720441845382
 20
7.833355349529403
 10
-41.15951568004411
 20
7.951589926245468
 10
-41.06066017177982
 20
8.060660171779821
 10
-40.95158992624547
 20
8.159515680044105
 10
-40.833355349529405
 20
8.247204418453817
 10
-40.707095105239
 20
8.322881896522532
 10
-40.57402514854763
 20
8.385819298766929
 10
-40.43542701588169
 20
8.435410503598312
 10
-40.29263548302419
 20
8.471177920604845
 10
-40.14702571049434
 20
8.492777090008296
 10
-40.0
 20
8.5
 10
-39.85297428950566
 20
8.492777090008296
 10
-39.70736451697581
 20
8.471177920604845
 10
-39.56457298411831
 20
8.435410503598312
 10
-39.42597485145237
 20
8.385819298766929
 10
-39.292904894761
 20
8.322881896522533
 10
-39.166644650470595
 20
8.24720441845382
 10
-39.04841007375453
 20
8.159515680044105
 10
-38.93933982822018
 20
8.060660171779821
 10
-38.8404843199559
 20
7.951589926245469
 10
-38.75279558154618
 20
7.833355349529404
 10
-38.67711810347747
 20
7.707095105238997
 10
-38.61418070123307
 20
7.574025148547635
 10
-38.56458949640169
 20
7.435427015881694
 10
-38.56180182754991
 20
7.4242980179903295
 10
-38.54459938406895
 20
7.355622013986727
 10
-38.530015764474655
 20
7.297400940988911
 10
-38.528822079395155
 20
7.292635483024193
 10
-38.52810123879763
 20
7.287775970444114
 10
-38.52020080422785
 20
7.234515566809815
 10
-38.50794375058923
 20
7.1518852230744105
 10
-38.507222909991704
 20
7.147025710494341
 10
-38.506981855965186
 20
7.14211894306162
 10
-38.500241054026525
 20
7.004906767432742
 10
-38.5
 20
7.0
 10
-38.500241054026525
 20
6.995093232567258
 10
-38.506981855965186
 20
6.85788105693838
 10
-38.507222909991704
 20
6.852974289505659
 10
-38.50794375058923
 20
6.8481147769255895
 10
-38.520203951192855
 20
6.765463218075371
 10
-38.52810123879763
 20
6.712224029555887
 10
-38.528822079395155
 20
6.707364516975808
 10
-38.530015764474655
 20
6.702599059011089
 10
-38.541834700623504
 20
6.655415221018815
 10
-38.56339581132219
 20
6.569338442083034
 10
-38.56458949640169
 20
6.564572984118307
 10
-38.56624453012334
 20
6.559947474734145
 10
-38.61252566751144
 20
6.430600360836492
 10
-38.61418070123307
 20
6.425974851452366
 10
-38.6162811447174
 20
6.421533836832681
 10
-38.6750176599932
 20
6.297345909380566
 10
-38.67711810347747
 20
6.292904894761003
 10
-38.679643728305514
 20
6.2886911443042806
 10
-38.75026995671813
 20
6.170858400927305
 10
-38.75279558154618
 20
6.166644650470596
 10
-38.755722064570094
 20
6.162698744897381
 10
-38.83755783693193
 20
6.052355979327811
 10
-38.84048431995589
 20
6.048410073754532
 10
-38.8437834775445
 20
6.04477001429235
 10
-38.93604067063158
 20
5.942979887682348
 10
-38.93933982822018
 20
5.939339828220179
 10
-38.94297988768237
 20
5.936040670631555
 10
-39.04477001429234
 20
5.84378347754451
 10
-39.04841007375453
 20
5.840484319955895
 10
-39.0523559793278
 20
5.837557836931943
 10
-39.054925378247596
 20
5.8356522408194875
 10
-39.16269874489731
 20
5.7557220645701435
 10
-39.166644650470595
 20
5.752795581546183
 10
-39.17085840092724
 20
5.750269956718179
 10
-39.196295489183434
 20
5.735023552757383
 10
-39.28869114430433
 20
5.67964372830549
 10
-39.292904894761
 20
5.677118103477468
 10
-39.29734590938062
 20
5.675017659993174
 10
-39.42153383683274
 20
5.616281144717374
 10
-39.42597485145237
 20
5.61418070123307
 10
-39.43060036083654
 20
5.612525667511416
 10
-39.559947474734145
 20
5.566244530123333
 10
-39.56457298411831
 20
5.564589496401687
 10
-39.569338442083044
 20
5.563395811322181
 10
-39.609078626332405
 20
5.553441413372116
 10
-39.70259905901106
 20
5.530015764474663
 10
-39.70736451697581
 20
5.528822079395154
 10
-39.71222402955585
 20
5.528101238797639
 10
-39.72668321960405
 20
5.525956420562835
 10
-39.84811477692562
 20
5.507943750589221
 10
-39.85297428950566
 20
5.507222909991705
 10
-39.85788105693841
 20
5.506981855965182
 10
-39.99509323256726
 20
5.500241054026522
 10
-40.0
 20
5.5
 10
-40.00490676743274
 20
5.500241054026522
 10
-40.14211894306159
 20
5.506981855965182
 10
-40.14702571049434
 20
5.507222909991705
 10
-40.15188522307438
 20
5.507943750589221
 10
-40.27331678039595
 20
5.525956420562835
 10
-40.28777597044415
 20
5.528101238797639
 10
-40.29263548302419
 20
5.528822079395154
 10
-40.29740094098894
 20
5.530015764474663
 10
-40.390921373667595
 20
5.553441413372116
 10
-40.430661557916956
 20
5.563395811322181
 10
-40.43542701588169
 20
5.564589496401687
 10
-40.440052525265855
 20
5.566244530123333
 10
-40.56939963916346
 20
5.612525667511416
 10
-40.57402514854763
 20
5.61418070123307
 10
-40.57846616316726
 20
5.616281144717374
 10
-40.70265409061942
 20
5.67501765999319
 10
-40.707095105239
 20
5.677118103477468
 10
-40.71130885569571
 20
5.679643728305508
 10
-40.82914159907275
 20
5.750269956718166
 10
-40.833355349529405
 20
5.752795581546182
 10
-40.837301255102666
 20
5.755722064570128
 10
-40.947644020672186
 20
5.83755783693193
 10
-40.95158992624547
 20
5.840484319955895
 10
-40.955229985707646
 20
5.8437834775444975
 10
-41.05702011231763
 20
5.936040670631554
 10
-41.06066017177982
 20
5.939339828220179
 10
-41.06395932936842
 20
5.942979887682348
 10
-41.1562165224555
 20
6.04477001429235
 10
-41.15951568004411
 20
6.048410073754532
 10
-41.16244216306807
 20
6.052355979327811
 10
-41.244277935429906
 20
6.162698744897381
 10
-41.24720441845382
 20
6.166644650470596
 10
-41.24973004328187
 20
6.170858400927304
 10
-41.32035627169452
 20
6.2886911443043365
 10
-41.32288189652253
 20
6.292904894761003
 10
-41.324982340006834
 20
6.297345909380628
 10
-41.34545274713676
 20
6.340626948843552
 10
-41.383718855282595
 20
6.421533836832667
 10
-41.38581929876693
 20
6.425974851452365
 10
-41.38747433248855
 20
6.430600360836474
 10
-41.43375546987666
 20
6.559947474734143
 10
-41.43541050359831
 20
6.564572984118306
  0
LWPOLYLINE
  5
3C
330
17
100
AcDbEntity
  8
0
100
AcDbPolyline
 90
157
 70
0
 10
39.04841007375453
 20
-5.840484319955895
 10
39.0523559793278
 20
-5.837557836931943
 10
39.054925378247596
 20
-5.8356522408194875
 10
39.16269874489731
 20
-5.7557220645701435
 10
39.166644650470595
 20
-5.752795581546183
 10
39.17085840092724
 20
-5.750269956718179
 10
39.196295489183434
 20
-5.735023552757383
 10
39.28869114430433
 20
-5.67964372830549
 10
39.292904894761
 20
-5.677118103477468
 10
39.29734590938062
 20
-5.675017659993174
 10
39.42153383683274
 20
-5.616281144717374
 10
39.42597485145237
 20
-5.61418070123307
 10
39.43060036083654
 20
-5.612525667511416
 10
39.559947474734145
 20
-5.566244530123333
 10
39.56457298411831
 20
-5.564589496401687
 10
39.569338442083044
 20
-5.563395811322181
 10
39.609078626332405
 20
-5.553441413372116
 10
39.70259905901106
 20
-5.530015764474663
 10
39.70736451697581
 20
-5.528822079395154
 10
39.71222402955585
 20
-5.528101238797639
 10
39.72668321960405
 20
-5.525956420562835
 10
39.84811477692562
 20
-5.507943750589221
 10
39.85297428950566
 20
-5.507222909991705
 10
39.85788105693841
 20
-5.506981855965182
 10
39.99509323256726
 20
-5.500241054026522
 10
40.0
 20
-5.5
 10
40.00490676743274
 20
-5.500241054026522
 10
40.14211894306159
 20
-5.506981855965182
 10
40.14702571049434
 20
-5.507222909991705
 10
40.15188522307438
 20
-5.507943750589221
 10
40.27331678039595
 20
-5.525956420562835
 10
40.28777597044415
 20
-5.528101238797639
 10
40.29263548302419
 20
-5.528822079395154
 10
40.29740094098894
 20
-5.530015764474663
 10
40.390921373667595
 20
-5.553441413372116
 10
40.430661557916956
 20
-5.563395811322181
 10
40.43542701588169
 20
-5.564589496401687
 10
40.440052525265855
 20
-5.566244530123333
 10
40.56939963916346
 20
-5.612525667511416
 10
40.57402514854763
 20
-5.61418070123307
 10
40.57846616316726
 20
-5.616281144717374
 10
40.70265409061942
 20
-5.67501765999319
 10
40.707095105239
 20
-5.677118103477468
 10
40.71130885569571
 20
-5.679643728305508
 10
40.82914159907275
 20
-5.750269956718166
 10
40.833355349529405
 20
-5.752795581546182
 10
40.837301255102666
 20
-5.755722064570128
 10
40.947644020672186
 20
-5.83755783693193
 10
40.95158992624547
 20
-5.840484319955895
 10
40.955229985707646
 20
-5.8437834775445
 10
40.97767589691935
 20
-5.864127265627287
 10
41.057020112317616
 20
-5.9360406706315505
 10
41.06066017177982
 20
-5.939339828220179
 10
41.06395932936841
 20
-5.942979887682345
 10
41.15621652245555
 20
-6.044770014292426
 10
41.1595156800441
 20
-6.048410073754531
 10
41.16244216306812
 20
-6.0523559793278805
 10
41.244277935429864
 20
-6.162698744897314
 10
41.24720441845382
 20
-6.166644650470596
 10
41.24973004328183
 20
-6.170858400927238
 10
41.32035627169452
 20
-6.288691144304334
 10
41.32288189652253
 20
-6.292904894761003
 10
41.324982340006834
 20
-6.297345909380628
 10
41.34545274713676
 20
-6.340626948843552
 10
41.383718855282595
 20
-6.421533836832667
 10
41.38581929876693
 20
-6.425974851452365
 10
41.38747433248855
 20
-6.430600360836474
 10
41.43375546987666
 20
-6.559947474734143
 10
41.43541050359831
 20
-6.564572984118306
 10
41.43660418867781
 20
-6.569338442083033
 10
41.458165299376496
 20
-6.655415221018814
 10
41.469984235525345
 20
-6.702599059011088
 10
41.471177920604845
 20
-6.707364516975807
 10
41.47189876120237
 20
-6.712224029555886
 10
41.47979919577215
 20
-6.765484433190185
 10
41.49205624941077
 20
-6.8481147769255895
 10
41.492777090008296
 20
-6.852974289505659
 10
41.493018144034814
 20
-6.85788105693838
 10
41.499758945973475
 20
-6.995093232567258
 10
41.5
 20
-7.0
 10
41.499758945973475
 20
-7.004906767432742
 10
41.493018144034814
 20
-7.14211894306162
 10
41.492777090008296
 20
-7.147025710494341
 10
41.49205624941077
 20
-7.1518852230744105
 10
41.479796048807145
 20
-7.234536781924629
 10
41.47189876120237
 20
-7.287775970444113
 10
41.471177920604845
 20
-7.292635483024192
 10
41.469984235525345
 20
-7.2974009409889105
 10
41.45469329830514
 20
-7.3584457842355615
 10
41.43819817245009
 20
-7.4242980179903295
 10
41.43541050359831
 20
-7.435427015881693
 10
41.38581929876693
 20
-7.574025148547634
 10
41.32288189652253
 20
-7.707095105238997
 10
41.24720441845382
 20
-7.833355349529404
 10
41.15951568004411
 20
-7.951589926245468
 10
41.06066017177982
 20
-8.060660171779821
 10
40.95158992624547
 20
-8.159515680044105
 10
40.833355349529405
 20
-8.247204418453817
 10
40.707095105239
 20
-8.322881896522532
 10
40.57402514854763
 20
-8.385819298766929
 10
40.43542701588169
 20
-8.435410503598312
 10
40.29263548302419
 20
-8.471177920604845
 10
40.14702571049434
 20
-8.492777090008296
 10
40.0
 20
-8.5
 10
39.85297428950566
 20
-8.492777090008296
 10
39.70736451697581
 20
-8.471177920604845
 10
39.56457298411831
 20
-8.435410503598312
 10
39.42597485145237
 20
-8.385819298766929
 10
39.292904894761
 20
-8.322881896522533
 10
39.166644650470595
 20
-8.247204418453817
 10
39.04841007375453
 20
-8.159515680044105
 10
38.93933982822018
 20
-8.060660171779821
 10
38.84048431995589
 20
-7.951589926245468
 10
38.75279558154618
 20
-7.833355349529404
 10
38.67711810347747
 20
-7.707095105238997
 10
38.61418070123307
 20
-7.574025148547635
 10
38.56458949640169
 20
-7.435427015881694
 10
38.56180182754991
 20
-7.4242980179903295
 10
38.54459938406895
 20
-7.355622013986727
 10
38.530015764474655
 20
-7.297400940988911
 10
38.528822079395155
 20
-7.292635483024193
 10
38.52810123879763
 20
-7.287775970444114
 10
38.52020080422785
 20
-7.234515566809815
 10
38.50794375058923
 20
-7.1518852230744105
 10
38.507222909991704
 20
-7.147025710494341
 10
38.506981855965186
 20
-7.14211894306162
 10
38.500241054026525
 20
-7.004906767432742
 10
38.5
 20
-7.0
 10
38.500241054026525
 20
-6.995093232567258
 10
38.506981855965186
 20
-6.85788105693838
 10
38.507222909991704
 20
-6.852974289505659
 10
38.50794375058923
 20
-6.8481147769255895
 10
38.52020080422785
 20
-6.765484433190185
 10
38.52810123879763
 20
-6.712224029555886
 10
38.528822079395155
 20
-6.707364516975807
 10
38.530015764474655
 20
-6.702599059011088
 10
38.54184522134519
 20
-6.6553732199434465
 10
38.56339581132219
 20
-6.569338442083034
 10
38.56458949640169
 20
-6.564572984118307
 10
38.56624453012334
 20
-6.559947474734145
 10
38.61252566751144
 20
-6.430600360836492
 10
38.61418070123307
 20
-6.425974851452366
 10
38.6162811447174
 20
-6.421533836832684
 10
38.675017659993166
 20
-6.29734590938063
 10
38.67711810347747
 20
-6.292904894761003
 10
38.67964372830548
 20
-6.288691144304337
 10
38.750269956718164
 20
-6.170858400927252
 10
38.75279558154618
 20
-6.166644650470597
 10
38.75572206457013
 20
-6.162698744897331
 10
38.83755783693194
 20
-6.052355979327793
 10
38.84048431995589
 20
-6.048410073754532
 10
38.84378347754451
 20
-6.0447700142923315
 10
38.93604067063158
 20
-5.942979887682347
 10
38.93933982822018
 20
-5.939339828220179
 10
38.94297988768237
 20
-5.936040670631555
 10
39.04477001429234
 20
-5.84378347754451
 10
39.04841007375453
 20
-5.840484319955895
  0
LWPOLYLINE
  5
3D
330
17
100
AcDbEntity
  8
0
100
AcDbPolyline
 90
21
 70
0
 10
20.86602540378444
 20
-7.3999999999999995
 10
20.85841335703557
 20
-7.438268343236508
 10
20.836736081903094
 20
-7.470710678118654
 10
20.80429374702095
 20
-7.492387953251128
 10
20.76602540378444
 20
-7.499999999999999
 10
19.23397459621556
 20
-7.499999999999999
 10
19.19570625297905
 20
-7.492387953251128
 10
19.163263918096906
 20
-7.470710678118654
 10
19.14158664296443
 20
-7.438268343236508
 10
19.13397459621556
 20
-7.3999999999999995
 10
19.13397459621556
 20
-2.6
 10
19.14158664296443
 20
-2.561731656763491
 10
19.163263918096906
 20
-2.5292893218813455
 10
19.19570625297905
 20
-2.5076120467488714
 10
19.23397459621556
 20
-2.5
 10
20.76602540378444
 20
-2.5
 10
20.80429374702095
 20
-2.5076120467488714
 10
20.836736081903094
 20
-2.5292893218813455
 10
20.85841335703557
 20
-2.561731656763491
 10
20.86602540378444
 20
-2.6
 10
20.86602540378444
 20
-7.3999999999999995
  0
LWPOLYLINE
  5
3E
330
17
100
AcDbEntity
  8
0
100
AcDbPolyline
 90
21
 70
0
 10
60.858413357035566
 20
-2.561731656763491
 10
60.86602540378444
 20
-2.6
 10
60.86602540378444
 20
-7.3999999999999995
 10
60.858413357035566
 20
-7.438268343236508
 10
60.8367360819031
 20
-7.470710678118654
 10
60.80429374702095
 20
-7.492387953251128
 10
60.76602540378444
 20
-7.499999999999999
 10
59.23397459621556
 20
-7.499999999999999
 10
59.19570625297905
 20
-7.492387953251128
 10
59.1632639180969
 20
-7.470710678118654
 10
59.141586642964434
 20
-7.438268343236508
 10
59.13397459621556
 20
-7.3999999999999995
 10
59.13397459621556
 20
-2.6
 10
59.141586642964434
 20
-2.561731656763491
 10
59.1632639180969
 20
-2.5292893218813455
 10
59.19570625297905
 20
-2.5076120467488714
 10
59.23397459621556
 20
-2.5
 10
60.76602540378444
 20
-2.5
 10
60.80429374702095
 20
-2.5076120467488714
 10
60.8367360819031
 20
-2.5292893218813455
 10
60.858413357035566
 20
-2.561731656763491
  0
LWPOLYLINE
  5
3F
330
17
100
AcDbEntity
  8
0
100
AcDbPolyline
 90
21
 70
0
 10
110.86602540378442
 20
-7.3999999999999995
 10
110.85841335703556
 20
-7.438268343236508
 10
110.83673608190308
 20
-7.470710678118654
 10
110.80429374702094
 20
-7.492387953251128
 10
110.76602540378443
 20
-7.499999999999999
 10
109.23397459621557
 20
-7.499999999999999
 10
109.19570625297906
 20
-7.492387953251128
 10
109.16326391809692
 20
-7.470710678118654
 10
109.14158664296444
 20
-7.438268343236508
 10
109.13397459621558
 20
-7.3999999999999995
 10
109.13397459621558
 20
-2.6
 10
109.14158664296444
 20
-2.561731656763491
 10
109.16326391809692
 20
-2.5292893218813455
 10
109.19570625297906
 20
-2.5076120467488714
 10
109.23397459621557
 20
-2.5
 10
110.76602540378443
 20
-2.5
 10
110.80429374702094
 20
-2.5076120467488714
 10
110.83673608190308
 20
-2.5292893218813455
 10
110.85841335703556
 20
-2.561731656763491
 10
110.86602540378442
 20
-2.6
 10
110.86602540378442
 20
-7.3999999999999995
  0
LWPOLYLINE
  5
40
330
17
100
AcDbEntity
  8
0
100
AcDbPolyline
 90
5
 70
0
 10
168.3078528040323
 20
28.307852804032304
 10
168.3078528040323
 20
-28.30785280403231
 10
-118.3078528040323
 20
-28.30785280403231
 10
-118.3078528040323
 20
28.307852804032304
 10
168.3078528040323
 20
28.307852804032304
  0
LWPOLYLINE
  5
41
330
17
100
AcDbEntity
  8
0
100
AcDbPolyline
 90
37
 70
0
 10
20.866025403784437
 20
12.0
 10
20.0
 20
12.0
 10
19.133974596215563
 20
12.0
 10
-19.133974596215563
 20
12.0
 10
-20.0
 20
12.0
 10
-20.866025403784437
 20
12.0
 10
-59.13397459621556
 20
12.0
 10
-60.0
 20
12.0
 10
-60.86602540378444
 20
12.0
 10
-100.0
 20
12.0
 10
-100.0
 20
10.0
 10
-100.0
 20
-12.0
 10
-90.0
 20
-12.0
 10
-60.86602540378444
 20
-12.0
 10
-60.0
 20
-12.0
 10
-59.13397459621556
 20
-12.0
 10
-20.866025403784437
 20
-12.0
 10
-20.0
 20
-12.0
 10
-19.133974596215563
 20
-12.0
 10
19.133974596215563
 20
-12.0
 10
20.0
 20
-12.0
 10
20.866025403784437
 20
-12.0
 10
59.13397459621556
 20
-12.0
 10
60.0
 20
-12.0
 10
60.86602540378444
 20
-12.0
 10
109.13397459621557
 20
-12.0
 10
110.0
 20
-12.0
 10
110.86602540378443
 20
-12.0
 10
150.0
 20
-12.0
 10
150.0
 20
12.0
 10
110.86602540378443
 20
12.0
 10
110.0
 20
12.0
 10
109.13397459621557
 20
12.0
 10
60.86602540378444
 20
12.0
 10
60.0
 20
12.0
 10
59.13397459621556
 20
12.0
 10
20.866025403784437
 20
12.0
  0
LWPOLYLINE
  5
42
330
17
100
AcDbEntity
  8
0
100
AcDbPolyline
 90
69
 70
0
 10
46.20788067508128
 20
-4.450888787226082
 10
46.19134171618254
 20
-4.461939766255643
 10
46.17183268398093
 20
-4.465820354036149
 10
46.00965989186589
 20
-4.498078528040322
 10
46.0
 20
-4.5
 10
45.990150859664276
 20
-4.499999999999999
 10
34.009849140335724
 20
-4.499999999999999
 10
34.0
 20
-4.5
 10
33.99034010813411
 20
-4.498078528040322
 10
33.82816731601907
 20
-4.465820354036149
 10
33.80865828381746
 20
-4.461939766255643
 10
33.79211932491872
 20
-4.450888787226082
 10
33.662985568305466
 20
-4.364604369622838
 10
33.64644660940672
 20
-4.353553390593274
 10
33.63539563037717
 20
-4.337014431694544
 10
33.599651979335405
 20
-4.283520277566738
 10
33.54911121277391
 20
-4.207880675081276
 10
33.53806023374435
 20
-4.191341716182545
 10
33.53417964596384
 20
-4.171832683980925
 10
33.501921471959676
 20
-4.00965989186592
 10
33.5
 20
-4.0
 10
33.5
 20
-3.9901508596643085
 10
33.5
 20
-2.6
 10
33.5
 20
2.6
 10
33.5
 20
3.9901508596643085
 10
33.5
 20
4.0
 10
33.501921471959676
 20
4.00965989186592
 10
33.53417964596384
 20
4.171832683980925
 10
33.53806023374435
 20
4.191341716182545
 10
33.54911121277391
 20
4.207880675081276
 10
33.599651979335405
 20
4.283520277566738
 10
33.63539563037717
 20
4.337014431694544
 10
33.64644660940672
 20
4.353553390593274
 10
33.662985568305466
 20
4.364604369622838
 10
33.79211932491872
 20
4.450888787226082
 10
33.80865828381746
 20
4.461939766255643
 10
33.82816731601907
 20
4.465820354036149
 10
33.99034010813411
 20
4.498078528040322
 10
34.0
 20
4.5
 10
34.009849140335724
 20
4.499999999999999
 10
45.990150859664276
 20
4.499999999999999
 10
46.0
 20
4.5
 10
46.00965989186589
 20
4.498078528040322
 10
46.17183268398093
 20
4.465820354036149
 10
46.19134171618254
 20
4.461939766255643
 10
46.20788067508128
 20
4.450888787226082
 10
46.337014431694534
 20
4.364604369622838
 10
46.35355339059328
 20
4.353553390593274
 10
46.36460436962283
 20
4.337014431694544
 10
46.400348020664595
 20
4.283520277566738
 10
46.45088878722609
 20
4.207880675081276
 10
46.46193976625565
 20
4.191341716182545
 10
46.46582035403616
 20
4.171832683980925
 10
46.498078528040324
 20
4.00965989186592
 10
46.5
 20
4.0
 10
46.5
 20
3.9901508596643085
 10
46.5
 20
2.6
 10
46.5
 20
-2.6
 10
46.5
 20
-3.9901508596643085
 10
46.5
 20
-4.0
 10
46.498078528040324
 20
-4.00965989186592
 10
46.46582035403616
 20
-4.171832683980925
 10
46.46193976625565
 20
-4.191341716182545
 10
46.45088878722609
 20
-4.207880675081276
 10
46.400348020664595
 20
-4.283520277566738
 10
46.36460436962283
 20
-4.337014431694544
 10
46.35355339059328
 20
-4.353553390593274
 10
46.337014431694534
 20
-4.364604369622838
 10
46.20788067508128
 20
-4.450888787226082
  0
LWPOLYLINE
  5
43
330
17
100
AcDbEntity
  8
0
100
AcDbPolyline
 90
25
 70
0
 10
34.53067462596339
 20
3.469325374036622
 10
34.50942203375756
 20
3.4375186220697898
 10
34.5
 20
3.3901508596642786
 10
34.5
 20
2.6
 10
34.5
 20
-2.6
 10
34.5
 20
-3.3901508596642786
 10
34.50942203375756
 20
-3.4375186220697898
 10
34.53067462596339
 20
-3.469325374036622
 10
34.562481377930204
 20
-3.4905779662424425
 10
34.60984914033572
 20
-3.5
 10
45.39015085966428
 20
-3.5
 10
45.437518622069796
 20
-3.4905779662424425
 10
45.46932537403661
 20
-3.469325374036622
 10
45.49057796624244
 20
-3.4375186220697898
 10
45.5
 20
-3.3901508596642786
 10
45.5
 20
-2.6
 10
45.5
 20
2.6
 10
45.5
 20
3.3901508596642786
 10
45.49057796624244
 20
3.4375186220697898
 10
45.46932537403661
 20
3.469325374036622
 10
45.437518622069796
 20
3.4905779662424425
 10
45.39015085966428
 20
3.5
 10
34.60984914033572
 20
3.5
 10
34.562481377930204
 20
3.4905779662424425
 10
34.53067462596339
 20
3.469325374036622
  0
LWPOLYLINE
  5
44
330
17
100
AcDbEntity
  8
0
100
AcDbPolyline
 90
65
 70
0
 10
120.4354270158817
 20
-1.4354105035983133
 10
120.2926354830242
 20
-1.4711779206048456
 10
120.14702571049435
 20
-1.4927770900082953
 10
120.0
 20
-1.5
 10
119.85297428950565
 20
-1.4927770900082953
 10
119.7073645169758
 20
-1.4711779206048456
 10
119.5645729841183
 20
-1.4354105035983133
 10
119.42597485145237
 20
-1.38581929876693
 10
119.29290489476101
 20
-1.3228818965225326
 10
119.1666446504706
 20
-1.247204418453818
 10
119.04841007375452
 20
-1.1595156800441058
 10
118.93933982822018
 20
-1.0606601717798214
 10
118.84048431995589
 20
-0.9515899262454682
 10
118.75279558154618
 20
-0.8333553495294033
 10
118.67711810347747
 20
-0.7070951052389967
 10
118.61418070123307
 20
-0.5740251485476349
 10
118.56458949640168
 20
-0.4354270158816936
 10
118.52882207939516
 20
-0.2926354830241929
 10
118.50722290999171
 20
-0.14702571049434124
 10
118.5
 20
-1.8369701987210297e-16
 10
118.50722290999171
 20
0.14702571049434088
 10
118.52882207939516
 20
0.2926354830241925
 10
118.56458949640168
 20
0.4354270158816932
 10
118.61418070123307
 20
0.5740251485476345
 10
118.67711810347747
 20
0.7070951052389964
 10
118.75279558154618
 20
0.8333553495294029
 10
118.84048431995589
 20
0.9515899262454679
 10
118.93933982822018
 20
1.0606601717798212
 10
119.04841007375452
 20
1.1595156800441049
 10
119.1666446504706
 20
1.2472044184538178
 10
119.29290489476101
 20
1.3228818965225324
 10
119.42597485145237
 20
1.3858192987669298
 10
119.5645729841183
 20
1.4354105035983133
 10
119.7073645169758
 20
1.4711779206048454
 10
119.85297428950565
 20
1.4927770900082953
 10
120.0
 20
1.5
 10
120.14702571049435
 20
1.4927770900082953
 10
120.2926354830242
 20
1.4711779206048456
 10
120.43542701588169
 20
1.4354105035983133
 10
120.57402514854763
 20
1.38581929876693
 10
120.70709510523899
 20
1.3228818965225326
 10
120.8333553495294
 20
1.2472044184538182
 10
120.95158992624548
 20
1.1595156800441053
 10
121.06066017177982
 20
1.0606601717798214
 10
121.15951568004411
 20
0.9515899262454689
 10
121.24720441845382
 20
0.8333553495294033
 10
121.32288189652253
 20
0.7070951052389969
 10
121.38581929876693
 20
0.5740251485476355
 10
121.43541050359832
 20
0.43542701588169375
 10
121.47117792060484
 20
0.29263548302419307
 10
121.49277709000829
 20
0.14702571049434077
 10
121.5
 20
0.0
 10
121.49277709000829
 20
-0.1470257104943409
 10
121.47117792060484
 20
-0.2926354830241924
 10
121.43541050359832
 20
-0.4354270158816935
 10
121.38581929876693
 20
-0.5740251485476346
 10
121.32288189652253
 20
-0.7070951052389964
 10
121.24720441845382
 20
-0.8333553495294033
 10
121.15951568004411
 20
-0.9515899262454682
 10
121.06066017177982
 20
-1.0606601717798214
 10
120.95158992624548
 20
-1.1595156800441053
 10
120.8333553495294
 20
-1.2472044184538178
 10
120.70709510523899
 20
-1.3228818965225324
 10
120.57402514854763
 20
-1.38581929876693
 10
120.4354270158817
 20
-1.4354105035983133
  0
LWPOLYLINE
  5
45
330
17
100
AcDbEntity
  8
0
100
AcDbPolyline
 90
65
 70
0
 10
140.4354270158817
 20
-1.4354105035983133
 10
140.29263548302418
 20
-1.4711779206048456
 10
140.14702571049435
 20
-1.4927770900082953
 10
140.0
 20
-1.5
 10
139.85297428950565
 20
-1.4927770900082953
 10
139.70736451697582
 20
-1.4711779206048456
 10
139.5645729841183
 20
-1.4354105035983133
 10
139.42597485145237
 20
-1.38581929876693
 10
139.292904894761
 20
-1.3228818965225326
 10
139.1666446504706
 20
-1.247204418453818
 10
139.04841007375452
 20
-1.1595156800441058
 10
138.93933982822017
 20
-1.0606601717798214
 10
138.8404843199559
 20
-0.9515899262454682
 10
138.7527955815462
 20
-0.8333553495294033
 10
138.67711810347745
 20
-0.7070951052389967
 10
138.61418070123307
 20
-0.5740251485476349
 10
138.56458949640168
 20
-0.4354270158816936
 10
138.52882207939516
 20
-0.2926354830241929
 10
138.5072229099917
 20
-0.14702571049434124
 10
138.5
 20
-1.8369701987210297e-16
 10
138.5072229099917
 20
0.14702571049434088
 10
138.52882207939516
 20
0.2926354830241925
 10
138.56458949640168
 20
0.4354270158816932
 10
138.61418070123307
 20
0.5740251485476345
 10
138.67711810347745
 20
0.7070951052389964
 10
138.7527955815462
 20
0.8333553495294029
 10
138.8404843199559
 20
0.9515899262454679
 10
138.93933982822017
 20
1.0606601717798212
 10
139.04841007375452
 20
1.1595156800441049
 10
139.1666446504706
 20
1.2472044184538178
 10
139.292904894761
 20
1.3228818965225324
 10
139.42597485145237
 20
1.3858192987669298
 10
139.5645729841183
 20
1.4354105035983133
 10
139.70736451697582
 20
1.4711779206048454
 10
139.85297428950565
 20
1.4927770900082953
 10
140.0
 20
1.5
 10
140.14702571049435
 20
1.4927770900082953
 10
140.29263548302418
 20
1.4711779206048456
 10
140.4354270158817
 20
1.4354105035983133
 10
140.57402514854763
 20
1.38581929876693
 10
140.707095105239
 20
1.3228818965225326
 10
140.8333553495294
 20
1.2472044184538182
 10
140.95158992624548
 20
1.1595156800441053
 10
141.06066017177983
 20
1.0606601717798214
 10
141.1595156800441
 20
0.9515899262454689
 10
141.2472044184538
 20
0.8333553495294033
 10
141.32288189652255
 20
0.7070951052389969
 10
141.38581929876693
 20
0.5740251485476355
 10
141.43541050359832
 20
0.43542701588169375
 10
141.47117792060484
 20
0.29263548302419307
 10
141.4927770900083
 20
0.14702571049434077
 10
141.5
 20
0.0
 10
141.4927770900083
 20
-0.1470257104943409
 10
141.47117792060484
 20
-0.2926354830241924
 10
141.43541050359832
 20
-0.4354270158816935
 10
141.38581929876693
 20
-0.5740251485476346
 10
141.32288189652255
 20
-0.7070951052389964
 10
141.2472044184538
 20
-0.8333553495294033
 10
141.1595156800441
 20
-0.9515899262454682
 10
141.06066017177983
 20
-1.0606601717798214
 10
140.95158992624548
 20
-1.1595156800441053
 10
140.8333553495294
 20
-1.2472044184538178
 10
140.707095105239
 20
-1.3228818965225324
 10
140.57402514854763
 20
-1.38581929876693
 10
140.4354270158817
 20
-1.4354105035983133
  0
LWPOLYLINE
  5
46
330
17
100
AcDbEntity
  8
0
100
AcDbPolyline
 90
21
 70
0
 10
60.858413357035566
 20
7.438268343236508
 10
60.86602540378444
 20
7.3999999999999995
 10
60.86602540378444
 20
2.6
 10
60.858413357035566
 20
2.561731656763491
 10
60.8367360819031
 20
2.5292893218813455
 10
60.80429374702095
 20
2.5076120467488714
 10
60.76602540378444
 20
2.5
 10
59.23397459621556
 20
2.5
 10
59.19570625297905
 20
2.5076120467488714
 10
59.1632639180969
 20
2.5292893218813455
 10
59.141586642964434
 20
2.561731656763491
 10
59.13397459621556
 20
2.6
 10
59.13397459621556
 20
7.3999999999999995
 10
59.141586642964434
 20
7.438268343236508
 10
59.1632639180969
 20
7.470710678118654
 10
59.19570625297905
 20
7.492387953251128
 10
59.23397459621556
 20
7.499999999999999
 10
60.76602540378444
 20
7.499999999999999
 10
60.80429374702095
 20
7.492387953251128
 10
60.8367360819031
 20
7.470710678118654
 10
60.858413357035566
 20
7.438268343236508
  0
LWPOLYLINE
  5
47
330
17
100
AcDbEntity
  8
0
100
AcDbPolyline
 90
21
 70
0
 10
110.86602540378442
 20
2.6
 10
110.85841335703556
 20
2.561731656763491
 10
110.83673608190308
 20
2.5292893218813455
 10
110.80429374702094
 20
2.5076120467488714
 10
110.76602540378443
 20
2.5
 10
109.23397459621557
 20
2.5
 10
109.19570625297906
 20
2.5076120467488714
 10
109.16326391809692
 20
2.5292893218813455
 10
109.14158664296444
 20
2.561731656763491
 10
109.13397459621558
 20
2.6
 10
109.13397459621558
 20
7.3999999999999995
 10
109.14158664296444
 20
7.438268343236508
 10
109.16326391809692
 20
7.470710678118654
 10
109.19570625297906
 20
7.492387953251128
 10
109.23397459621557
 20
7.499999999999999
 10
110.76602540378443
 20
7.499999999999999
 10
110.80429374702094
 20
7.492387953251128
 10
110.83673608190308
 20
7.470710678118654
 10
110.85841335703556
 20
7.438268343236508
 10
110.86602540378442
 20
7.3999999999999995
 10
110.86602540378442
 20
2.6
  0
LWPOLYLINE
  5
48
330
17
100
AcDbEntity
  8
0
100
AcDbPolyline
 90
156
 70
0
 10
38.541834700623504
 20
6.655415221018814
 10
38.530015764474655
 20
6.702599059011088
 10
38.528822079395155
 20
6.707364516975807
 10
38.52810123879763
 20
6.712224029555886
 10
38.52020080422785
 20
6.765484433190185
 10
38.50794375058923
 20
6.8481147769255895
 10
38.507222909991704
 20
6.852974289505659
 10
38.506981855965186
 20
6.85788105693838
 10
38.500241054026525
 20
6.995093232567258
 10
38.5
 20
7.0
 10
38.500241054026525
 20
7.004906767432742
 10
38.506981855965186
 20
7.14211894306162
 10
38.507222909991704
 20
7.147025710494341
 10
38.50794375058923
 20
7.1518852230744105
 10
38.52020080422785
 20
7.234515566809815
 10
38.52810123879763
 20
7.287775970444114
 10
38.528822079395155
 20
7.292635483024193
 10
38.530015764474655
 20
7.297400940988911
 10
38.5452757672373
 20
7.358322286958336
 10
38.56180182754991
 20
7.4242980179903295
 10
38.56458949640169
 20
7.435427015881693
 10
38.61418070123307
 20
7.574025148547634
 10
38.67711810347747
 20
7.707095105238997
 10
38.75279558154618
 20
7.833355349529403
 10
38.84048431995589
 20
7.951589926245468
 10
38.93933982822018
 20
8.060660171779821
 10
39.04841007375453
 20
8.159515680044105
 10
39.166644650470595
 20
8.247204418453817
 10
39.292904894761
 20
8.322881896522532
 10
39.42597485145237
 20
8.385819298766929
 10
39.56457298411831
 20
8.435410503598312
 10
39.70736451697581
 20
8.471177920604845
 10
39.85297428950566
 20
8.492777090008296
 10
40.0
 20
8.5
 10
40.14702571049434
 20
8.492777090008296
 10
40.29263548302419
 20
8.471177920604845
 10
40.43542701588169
 20
8.435410503598312
 10
40.57402514854763
 20
8.385819298766929
 10
40.707095105239
 20
8.322881896522533
 10
40.833355349529405
 20
8.24720441845382
 10
40.95158992624547
 20
8.159515680044105
 10
41.06066017177982
 20
8.060660171779821
 10
41.1595156800441
 20
7.951589926245469
 10
41.24720441845382
 20
7.833355349529404
 10
41.32288189652253
 20
7.707095105238997
 10
41.38581929876693
 20
7.574025148547635
 10
41.43541050359831
 20
7.435427015881694
 10
41.43819817245009
 20
7.4242980179903295
 10
41.45540061593105
 20
7.355622013986727
 10
41.469984235525345
 20
7.297400940988911
 10
41.471177920604845
 20
7.292635483024193
 10
41.47189876120237
 20
7.287775970444114
 10
41.47979919577215
 20
7.234515566809815
 10
41.49205624941077
 20
7.1518852230744105
 10
41.492777090008296
 20
7.147025710494341
 10
41.493018144034814
 20
7.14211894306162
 10
41.499758945973475
 20
7.004906767432742
 10
41.5
 20
7.0
 10
41.499758945973475
 20
6.995093232567258
 10
41.493018144034814
 20
6.85788105693838
 10
41.492777090008296
 20
6.852974289505659
 10
41.49205624941077
 20
6.8481147769255895
 10
41.479796048807145
 20
6.765463218075371
 10
41.47189876120237
 20
6.712224029555887
 10
41.471177920604845
 20
6.707364516975808
 10
41.469984235525345
 20
6.702599059011089
 10
41.458165299376496
 20
6.655415221018815
 10
41.43660418867781
 20
6.569338442083034
 10
41.43541050359831
 20
6.564572984118307
 10
41.43375546987666
 20
6.559947474734145
 10
41.38747433248856
 20
6.430600360836492
 10
41.38581929876693
 20
6.425974851452366
 10
41.3837188552826
 20
6.421533836832681
 10
41.3249823400068
 20
6.297345909380566
 10
41.32288189652253
 20
6.292904894761003
 10
41.320356271694486
 20
6.2886911443042806
 10
41.24973004328187
 20
6.170858400927305
 10
41.24720441845382
 20
6.166644650470596
 10
41.244277935429906
 20
6.162698744897381
 10
41.16244216306807
 20
6.052355979327811
 10
41.15951568004411
 20
6.048410073754532
 10
41.1562165224555
 20
6.04477001429235
 10
41.06395932936842
 20
5.942979887682348
 10
41.06066017177982
 20
5.939339828220179
 10
41.05702011231763
 20
5.936040670631555
 10
40.95522998570766
 20
5.84378347754451
 10
40.95158992624547
 20
5.840484319955895
 10
40.9476440206722
 20
5.837557836931943
 10
40.945074621752404
 20
5.8356522408194875
 10
40.83730125510269
 20
5.7557220645701435
 10
40.833355349529405
 20
5.752795581546183
 10
40.82914159907276
 20
5.750269956718179
 10
40.803704510816566
 20
5.735023552757383
 10
40.71130885569567
 20
5.67964372830549
 10
40.707095105239
 20
5.677118103477468
 10
40.70265409061938
 20
5.675017659993174
 10
40.57846616316726
 20
5.616281144717374
 10
40.57402514854763
 20
5.61418070123307
 10
40.56939963916346
 20
5.612525667511416
 10
40.440052525265855
 20
5.566244530123333
 10
40.43542701588169
 20
5.564589496401687
 10
40.430661557916956
 20
5.563395811322181
 10
40.390921373667595
 20
5.553441413372116
 10
40.29740094098894
 20
5.530015764474663
 10
40.29263548302419
 20
5.528822079395154
 10
40.28777597044415
 20
5.528101238797639
 10
40.27331678039595
 20
5.525956420562835
 10
40.15188522307438
 20
5.507943750589221
 10
40.14702571049434
 20
5.507222909991705
 10
40.14211894306159
 20
5.506981855965182
 10
40.00490676743274
 20
5.500241054026522
 10
40.0
 20
5.5
 10
39.99509323256726
 20
5.500241054026522
 10
39.85788105693841
 20
5.506981855965182
 10
39.85297428950566
 20
5.507222909991705
 10
39.84811477692562
 20
5.507943750589221
 10
39.72668321960405
 20
5.525956420562835
 10
39.71222402955585
 20
5.528101238797639
 10
39.70736451697581
 20
5.528822079395154
 10
39.70259905901106
 20
5.530015764474663
 10
39.609078626332405
 20
5.553441413372116
 10
39.569338442083044
 20
5.563395811322181
 10
39.56457298411831
 20
5.564589496401687
 10
39.559947474734145
 20
5.566244530123333
 10
39.43060036083654
 20
5.612525667511416
 10
39.42597485145237
 20
5.61418070123307
 10
39.42153383683274
 20
5.616281144717374
 10
39.29734590938058
 20
5.67501765999319
 10
39.292904894761
 20
5.677118103477468
 10
39.28869114430429
 20
5.679643728305508
 10
39.17085840092725
 20
5.750269956718166
 10
39.166644650470595
 20
5.752795581546182
 10
39.162698744897334
 20
5.755722064570128
 10
39.052355979327814
 20
5.83755783693193
 10
39.04841007375453
 20
5.840484319955895
 10
39.044770014292354
 20
5.8437834775444975
 10
38.94297988768237
 20
5.936040670631554
 10
38.93933982822018
 20
5.939339828220179
 10
38.93604067063158
 20
5.942979887682348
 10
38.8437834775445
 20
6.04477001429235
 10
38.84048431995589
 20
6.048410073754532
 10
38.83755783693193
 20
6.052355979327811
 10
38.755722064570094
 20
6.162698744897381
 10
38.75279558154618
 20
6.166644650470596
 10
38.75026995671813
 20
6.170858400927304
 10
38.67964372830548
 20
6.2886911443043365
 10
38.67711810347747
 20
6.292904894761003
 10
38.675017659993166
 20
6.297345909380628
 10
38.65454725286324
 20
6.340626948843552
 10
38.616281144717405
 20
6.421533836832667
 10
38.61418070123307
 20
6.425974851452365
 10
38.61252566751145
 20
6.430600360836474
 10
38.56624453012334
 20
6.559947474734143
 10
38.56458949640169
 20
6.564572984118306
 10
38.56339581132219
 20
6.569338442083033
 10
38.541834700623504
 20
6.655415221018814
  0
ENDSEC
  0
SECTION
  2
OBJECTS
  0
DICTIONARY
  5
A
330
0
100
AcDbDictionary
280
0
281
1
  3
ACAD_COLOR
350
B
  3
ACAD_GROUP
350
C
  3
ACAD_LAYOUT
350
D
  3
ACAD_MATERIAL
350
E
  3
ACAD_MLEADERSTYLE
350
F
  3
ACAD_MLINESTYLE
350
10
  3
ACAD_PLOTSETTINGS
350
11
  3
ACAD_PLOTSTYLENAME
350
12
  3
ACAD_SCALELIST
350
14
  3
ACAD_TABLESTYLE
350
15
  3
ACAD_VISUALSTYLE
350
16
  3
EZDXF_META
350
2D
  0
DICTIONARY
  5
B
330
A
100
AcDbDictionary
280
0
281
1
  0
DICTIONARY
  5
C
330
A
100
AcDbDictionary
280
0
281
1
  0
DICTIONARY
  5
D
330
A
100
AcDbDictionary
280
0
281
1
  3
Model
350
1A
  3
Layout1
350
1E
  0
DICTIONARY
  5
E
330
A
100
AcDbDictionary
280
0
281
1
  3
ByBlock
350
1F
  3
ByLayer
350
20
  3
Global
350
21
  0
DICTIONARY
  5
F
330
A
100
AcDbDictionary
280
0
281
1
  3
Standard
350
2C
  0
DICTIONARY
  5
10
330
A
100
AcDbDictionary
280
0
281
1
  3
Standard
350
22
  0
DICTIONARY
  5
11
330
A
100
AcDbDictionary
280
0
281
1
  0
ACDBDICTIONARYWDFLT
  5
12
330
A
100
AcDbDictionary
280
0
281
1
  3
Normal
350
13
100
AcDbDictionaryWithDefault
340
13
  0
ACDBPLACEHOLDER
  5
13
330
12
  0
DICTIONARY
  5
14
330
A
100
AcDbDictionary
280
0
281
1
  0
DICTIONARY
  5
15
330
A
100
AcDbDictionary
280
0
281
1
  0
DICTIONARY
  5
16
330
A
100
AcDbDictionary
280
0
281
1
  0
LAYOUT
  5
1A
330
D
100
AcDbPlotSettings
  1

  4
A3
  6

 40
7.5
 41
20.0
 42
7.5
 43
20.0
 44
420.0
 45
297.0
 46
0.0
 47
0.0
 48
0.0
 49
0.0
140
0.0
141
0.0
142
1.0
143
1.0
 70
1024
 72
1
 73
0
 74
5
  7

 75
16
 76
0
 77
2
 78
300
147
1.0
148
0.0
149
0.0
100
AcDbLayout
  1
Model
 70
1
 71
0
 10
0.0
 20
0.0
 11
420.0
 21
297.0
 12
0.0
 22
0.0
 32
0.0
 14
1e+20
 24
1e+20
 34
1e+20
 15
-1e+20
 25
-1e+20
 35
-1e+20
146
0.0
 13
0.0
 23
0.0
 33
0.0
 16
1.0
 26
0.0
 36
0.0
 17
0.0
 27
1.0
 37
0.0
 76
1
330
17
  0
LAYOUT
  5
1E
330
D
100
AcDbPlotSettings
  1

  4
A3
  6

 40
7.5
 41
20.0
 42
7.5
 43
20.0
 44
420.0
 45
297.0
 46
0.0
 47
0.0
 48
0.0
 49
0.0
140
0.0
141
0.0
142
1.0
143
1.0
 70
0
 72
1
 73
0
 74
5
  7

 75
16
 76
0
 77
2
 78
300
147
1.0
148
0.0
149
0.0
100
AcDbLayout
  1
Layout1
 70
1
 71
1
 10
0.0
 20
0.0
 11
420.0
 21
297.0
 12
0.0
 22
0.0
 32
0.0
 14
1e+20
 24
1e+20
 34
1e+20
 15
-1e+20
 25
-1e+20
 35
-1e+20
146
0.0
 13
0.0
 23
0.0
 33
0.0
 16
1.0
 26
0.0
 36
0.0
 17
0.0
 27
1.0
 37
0.0
 76
1
330
1B
  0
MATERIAL
  5
1F
102
{ACAD_REACTORS
330
E
102
}
330
E
100
AcDbMaterial
  1
ByBlock
  2

 70
0
 40
1.0
 71
1
 41
1.0
 91
-1023410177
 42
1.0
 72
1
  3

 73
1
 74
1
 75
1
 44
0.5
 73
0
 45
1.0
 46
1.0
 77
1
  4

 78
1
 79
1
170
1
 48
1.0
171
1
  6

172
1
173
1
174
1
140
1.0
141
1.0
175
1
  7

176
1
177
1
178
1
143
1.0
179
1
  8

270
1
271
1
272
1
145
1.0
146
1.0
273
1
  9

274
1
275
1
276
1
 42
1.0
 72
1
  3

 73
1
 74
1
 75
1
 94
63
  0
MATERIAL
  5
20
102
{ACAD_REACTORS
330
E
102
}
330
E
100
AcDbMaterial
  1
ByLayer
  2

 70
0
 40
1.0
 71
1
 41
1.0
 91
-1023410177
 42
1.0
 72
1
  3

 73
1
 74
1
 75
1
 44
0.5
 73
0
 45
1.0
 46
1.0
 77
1
  4

 78
1
 79
1
170
1
 48
1.0
171
1
  6

172
1
173
1
174
1
140
1.0
141
1.0
175
1
  7

176
1
177
1
178
1
143
1.0
179
1
  8

270
1
271
1
272
1
145
1.0
146
1.0
273
1
  9

274
1
275
1
276
1
 42
1.0
 72
1
  3

 73
1
 74
1
 75
1
 94
63
  0
MATERIAL
  5
21
102
{ACAD_REACTORS
330
E
102
}
330
E
100
AcDbMaterial
  1
Global
  2

 70
0
 40
1.0
 71
1
 41
1.0
 91
-1023410177
 42
1.0
 72
1
  3

 73
1
 74
1
 75
1
 44
0.5
 73
0
 45
1.0
 46
1.0
 77
1
  4

 78
1
 79
1
170
1
 48
1.0
171
1
  6

172
1
173
1
174
1
140
1.0
141
1.0
175
1
  7

176
1
177
1
178
1
143
1.0
179
1
  8

270
1
271
1
272
1
145
1.0
146
1.0
273
1
  9

274
1
275
1
276
1
 42
1.0
 72
1
  3

 73
1
 74
1
 75
1
 94
63
  0
MLINESTYLE
  5
22
102
{ACAD_REACTORS
330
10
102
}
330
10
100
AcDbMlineStyle
  2
Standard
 70
0
  3

 62
256
 51
90.0
 52
90.0
 71
2
 49
0.5
 62
256
  6
BYLAYER
 49
-0.5
 62
256
  6
BYLAYER
  0
MLEADERSTYLE
  5
2C
102
{ACAD_REACTORS
330
F
102
}
330
F
100
AcDbMLeaderStyle
179
2
170
2
171
1
172
0
 90
2
 40
0.0
 41
0.0
173
1
 91
-1056964608
 92
-2
290
1
 42
2.0
291
1
 43
8.0
  3
Standard
 44
4.0
300

342
29
174
1
175
1
176
0
178
1
 93
-1056964608
 45
4.0
292
0
297
0
 46
4.0
 94
-1056964608
 47
1.0
 49
1.0
140
1.0
294
1
141
0.0
177
0
142
1.0
295
0
296
0
143
3.75
271
0
272
9
273
9
  0
DICTIONARY
  5
2D
330
A
100
AcDbDictionary
281
1
  3
CREATED_BY_EZDXF
350
2E
  3
WRITTEN_BY_EZDXF
350
4B
  0
DICTIONARYVAR
  5
2E
330
2D
100
DictionaryVariables
280
0
  1
1.3.4 @ 2024-12-06T05:24:22.244847+00:00
  0
DICTIONARYVAR
  5
4B
330
2D
100
DictionaryVariables
280
0
  1
1.3.4 @ 2024-12-06T05:24:22.254849+00:00
  0
ENDSEC
  0
EOF
