  0
SECTION
  2
HEADER
  9
$ACADVER
  1
AC1024
  9
$ACADMAINTVER
 70
6
  9
$DWGCODEPAGE
  3
ANSI_1252
  9
$LASTSAVEDBY
  1
ezdxf
  9
$INSBASE
 10
0.0
 20
0.0
 30
0.0
  9
$EXTMIN
 10
1e+20
 20
1e+20
 30
1e+20
  9
$EXTMAX
 10
-1e+20
 20
-1e+20
 30
-1e+20
  9
$LIMMIN
 10
0.0
 20
0.0
  9
$LIMMAX
 10
420.0
 20
297.0
  9
$ORTHOMODE
 70
0
  9
$REGENMODE
 70
1
  9
$FILLMODE
 70
1
  9
$QTEXTMODE
 70
0
  9
$MIRRTEXT
 70
1
  9
$LTSCALE
 40
1.0
  9
$ATTMODE
 70
1
  9
$TEXTSIZE
 40
2.5
  9
$TRACEWID
 40
1.0
  9
$TEXTSTYLE
  7
Standard
  9
$CLAYER
  8
0
  9
$CELTYPE
  6
ByLayer
  9
$CECOLOR
 62
256
  9
$CELTSCALE
 40
1.0
  9
$DISPSILH
 70
0
  9
$DIMSCALE
 40
1.0
  9
$DIMASZ
 40
2.5
  9
$DIMEXO
 40
0.625
  9
$DIMDLI
 40
3.75
  9
$DIMRND
 40
0.0
  9
$DIMDLE
 40
0.0
  9
$DIMEXE
 40
1.25
  9
$DIMTP
 40
0.0
  9
$DIMTM
 40
0.0
  9
$DIMTXT
 40
2.5
  9
$DIMCEN
 40
2.5
  9
$DIMTSZ
 40
0.0
  9
$DIMTOL
 70
0
  9
$DIMLIM
 70
0
  9
$DIMTIH
 70
0
  9
$DIMTOH
 70
0
  9
$DIMSE1
 70
0
  9
$DIMSE2
 70
0
  9
$DIMTAD
 70
1
  9
$DIMZIN
 70
8
  9
$DIMBLK
  1

  9
$DIMASO
 70
1
  9
$DIMSHO
 70
1
  9
$DIMPOST
  1

  9
$DIMAPOST
  1

  9
$DIMALT
 70
0
  9
$DIMALTD
 70
3
  9
$DIMALTF
 40
0.03937007874
  9
$DIMLFAC
 40
1.0
  9
$DIMTOFL
 70
1
  9
$DIMTVP
 40
0.0
  9
$DIMTIX
 70
0
  9
$DIMSOXD
 70
0
  9
$DIMSAH
 70
0
  9
$DIMBLK1
  1

  9
$DIMBLK2
  1

  9
$DIMSTYLE
  2
ISO-25
  9
$DIMCLRD
 70
0
  9
$DIMCLRE
 70
0
  9
$DIMCLRT
 70
0
  9
$DIMTFAC
 40
1.0
  9
$DIMGAP
 40
0.625
  9
$DIMJUST
 70
0
  9
$DIMSD1
 70
0
  9
$DIMSD2
 70
0
  9
$DIMTOLJ
 70
0
  9
$DIMTZIN
 70
8
  9
$DIMALTZ
 70
0
  9
$DIMALTTZ
 70
0
  9
$DIMUPT
 70
0
  9
$DIMDEC
 70
2
  9
$DIMTDEC
 70
2
  9
$DIMALTU
 70
2
  9
$DIMALTTD
 70
3
  9
$DIMTXSTY
  7
Standard
  9
$DIMAUNIT
 70
0
  9
$DIMADEC
 70
0
  9
$DIMALTRND
 40
0.0
  9
$DIMAZIN
 70
0
  9
$DIMDSEP
 70
44
  9
$DIMATFIT
 70
3
  9
$DIMFRAC
 70
0
  9
$DIMLDRBLK
  1

  9
$DIMLUNIT
 70
2
  9
$DIMLWD
 70
-2
  9
$DIMLWE
 70
-2
  9
$DIMTMOVE
 70
0
  9
$DIMFXL
 40
1.0
  9
$DIMFXLON
 70
0
  9
$DIMJOGANG
 40
0.785398163397
  9
$DIMTFILL
 70
0
  9
$DIMTFILLCLR
 70
0
  9
$DIMARCSYM
 70
0
  9
$DIMLTYPE
  6

  9
$DIMLTEX1
  6

  9
$DIMLTEX2
  6

  9
$DIMTXTDIRECTION
 70
0
  9
$LUNITS
 70
2
  9
$LUPREC
 70
4
  9
$SKETCHINC
 40
1.0
  9
$FILLETRAD
 40
10.0
  9
$AUNITS
 70
0
  9
$AUPREC
 70
2
  9
$MENU
  1
.
  9
$ELEVATION
 40
0.0
  9
$PELEVATION
 40
0.0
  9
$THICKNESS
 40
0.0
  9
$LIMCHECK
 70
0
  9
$CHAMFERA
 40
0.0
  9
$CHAMFERB
 40
0.0
  9
$CHAMFERC
 40
0.0
  9
$CHAMFERD
 40
0.0
  9
$SKPOLY
 70
0
  9
$TDCREATE
 40
2460649.396898148
  9
$TDUCREATE
 40
2458532.153996898
  9
$TDUPDATE
 40
2460649.396898148
  9
$TDUUPDATE
 40
2458532.1544311
  9
$TDINDWG
 40
0.0
  9
$TDUSRTIMER
 40
0.0
  9
$USRTIMER
 70
1
  9
$ANGBASE
 50
0.0
  9
$ANGDIR
 70
0
  9
$PDMODE
 70
0
  9
$PDSIZE
 40
0.0
  9
$PLINEWID
 40
0.0
  9
$SPLFRAME
 70
0
  9
$SPLINETYPE
 70
6
  9
$SPLINESEGS
 70
8
  9
$HANDSEED
  5
5E
  9
$SURFTAB1
 70
6
  9
$SURFTAB2
 70
6
  9
$SURFTYPE
 70
6
  9
$SURFU
 70
6
  9
$SURFV
 70
6
  9
$UCSBASE
  2

  9
$UCSNAME
  2

  9
$UCSORG
 10
0.0
 20
0.0
 30
0.0
  9
$UCSXDIR
 10
1.0
 20
0.0
 30
0.0
  9
$UCSYDIR
 10
0.0
 20
1.0
 30
0.0
  9
$UCSORTHOREF
  2

  9
$UCSORTHOVIEW
 70
0
  9
$UCSORGTOP
 10
0.0
 20
0.0
 30
0.0
  9
$UCSORGBOTTOM
 10
0.0
 20
0.0
 30
0.0
  9
$UCSORGLEFT
 10
0.0
 20
0.0
 30
0.0
  9
$UCSORGRIGHT
 10
0.0
 20
0.0
 30
0.0
  9
$UCSORGFRONT
 10
0.0
 20
0.0
 30
0.0
  9
$UCSORGBACK
 10
0.0
 20
0.0
 30
0.0
  9
$PUCSBASE
  2

  9
$PUCSNAME
  2

  9
$PUCSORG
 10
0.0
 20
0.0
 30
0.0
  9
$PUCSXDIR
 10
1.0
 20
0.0
 30
0.0
  9
$PUCSYDIR
 10
0.0
 20
1.0
 30
0.0
  9
$PUCSORTHOREF
  2

  9
$PUCSORTHOVIEW
 70
0
  9
$PUCSORGTOP
 10
0.0
 20
0.0
 30
0.0
  9
$PUCSORGBOTTOM
 10
0.0
 20
0.0
 30
0.0
  9
$PUCSORGLEFT
 10
0.0
 20
0.0
 30
0.0
  9
$PUCSORGRIGHT
 10
0.0
 20
0.0
 30
0.0
  9
$PUCSORGFRONT
 10
0.0
 20
0.0
 30
0.0
  9
$PUCSORGBACK
 10
0.0
 20
0.0
 30
0.0
  9
$USERI1
 70
0
  9
$USERI2
 70
0
  9
$USERI3
 70
0
  9
$USERI4
 70
0
  9
$USERI5
 70
0
  9
$USERR1
 40
0.0
  9
$USERR2
 40
0.0
  9
$USERR3
 40
0.0
  9
$USERR4
 40
0.0
  9
$USERR5
 40
0.0
  9
$WORLDVIEW
 70
1
  9
$SHADEDGE
 70
3
  9
$SHADEDIF
 70
70
  9
$TILEMODE
 70
1
  9
$MAXACTVP
 70
64
  9
$PINSBASE
 10
0.0
 20
0.0
 30
0.0
  9
$PLIMCHECK
 70
0
  9
$PEXTMIN
 10
1e+20
 20
1e+20
 30
1e+20
  9
$PEXTMAX
 10
-1e+20
 20
-1e+20
 30
-1e+20
  9
$PLIMMIN
 10
0.0
 20
0.0
  9
$PLIMMAX
 10
420.0
 20
297.0
  9
$UNITMODE
 70
0
  9
$VISRETAIN
 70
1
  9
$PLINEGEN
 70
0
  9
$PSLTSCALE
 70
1
  9
$TREEDEPTH
 70
3020
  9
$CMLSTYLE
  2
Standard
  9
$CMLJUST
 70
0
  9
$CMLSCALE
 40
20.0
  9
$PROXYGRAPHICS
 70
1
  9
$MEASUREMENT
 70
1
  9
$CELWEIGHT
370
-1
  9
$ENDCAPS
280
0
  9
$JOINSTYLE
280
0
  9
$LWDISPLAY
290
0
  9
$INSUNITS
 70
6
  9
$HYPERLINKBASE
  1

  9
$STYLESHEET
  1

  9
$XEDIT
290
1
  9
$CEPSNTYPE
380
0
  9
$PSTYLEMODE
290
1
  9
$FINGERPRINTGUID
  2
{52744776-DCA6-4777-B55F-8165D8E95EF3}
  9
$VERSIONGUID
  2
{E740AC38-F6BB-46D0-9CCB-C88EDA754473}
  9
$EXTNAMES
290
1
  9
$PSVPSCALE
 40
0.0
  9
$OLESTARTUP
290
0
  9
$SORTENTS
280
127
  9
$INDEXCTL
280
0
  9
$HIDETEXT
280
1
  9
$XCLIPFRAME
280
1
  9
$HALOGAP
280
0
  9
$OBSCOLOR
 70
257
  9
$OBSLTYPE
280
0
  9
$INTERSECTIONDISPLAY
280
0
  9
$INTERSECTIONCOLOR
 70
257
  9
$DIMASSOC
280
2
  9
$PROJECTNAME
  1

  9
$CAMERADISPLAY
290
0
  9
$LENSLENGTH
 40
50.0
  9
$CAMERAHEIGHT
 40
0.0
  9
$STEPSPERSEC
 40
24.0
  9
$STEPSIZE
 40
100.0
  9
$3DDWFPREC
 40
2.0
  9
$PSOLWIDTH
 40
0.005
  9
$PSOLHEIGHT
 40
0.08
  9
$LOFTANG1
 40
1.570796326795
  9
$LOFTANG2
 40
1.570796326795
  9
$LOFTMAG1
 40
0.0
  9
$LOFTMAG2
 40
0.0
  9
$LOFTPARAM
 70
7
  9
$LOFTNORMALS
280
1
  9
$LATITUDE
 40
37.795
  9
$LONGITUDE
 40
-122.394
  9
$NORTHDIRECTION
 40
0.0
  9
$TIMEZONE
 70
-8000
  9
$LIGHTGLYPHDISPLAY
280
1
  9
$TILEMODELIGHTSYNCH
280
1
  9
$CMATERIAL
347
20
  9
$SOLIDHIST
280
0
  9
$SHOWHIST
280
1
  9
$DWFFRAME
280
2
  9
$DGNFRAME
280
2
  9
$REALWORLDSCALE
290
1
  9
$INTERFERECOLOR
 62
256
  9
$CSHADOW
280
0
  9
$SHADOWPLANELOCATION
 40
0.0
  0
ENDSEC
  0
SECTION
  2
CLASSES
  0
CLASS
  1
ACDBDICTIONARYWDFLT
  2
AcDbDictionaryWithDefault
  3
ObjectDBX Classes
 90
0
 91
0
280
0
281
0
  0
CLASS
  1
SUN
  2
AcDbSun
  3
SCENEOE
 90
1153
 91
0
280
0
281
0
  0
CLASS
  1
VISUALSTYLE
  2
AcDbVisualStyle
  3
ObjectDBX Classes
 90
4095
 91
0
280
0
281
0
  0
CLASS
  1
MATERIAL
  2
AcDbMaterial
  3
ObjectDBX Classes
 90
1153
 91
0
280
0
281
0
  0
CLASS
  1
SCALE
  2
AcDbScale
  3
ObjectDBX Classes
 90
1153
 91
0
280
0
281
0
  0
CLASS
  1
TABLESTYLE
  2
AcDbTableStyle
  3
ObjectDBX Classes
 90
4095
 91
0
280
0
281
0
  0
CLASS
  1
MLEADERSTYLE
  2
AcDbMLeaderStyle
  3
ACDB_MLEADERSTYLE_CLASS
 90
4095
 91
0
280
0
281
0
  0
CLASS
  1
DICTIONARYVAR
  2
AcDbDictionaryVar
  3
ObjectDBX Classes
 90
0
 91
0
280
0
281
0
  0
CLASS
  1
CELLSTYLEMAP
  2
AcDbCellStyleMap
  3
ObjectDBX Classes
 90
1152
 91
0
280
0
281
0
  0
CLASS
  1
MENTALRAYRENDERSETTINGS
  2
AcDbMentalRayRenderSettings
  3
SCENEOE
 90
1024
 91
0
280
0
281
0
  0
CLASS
  1
ACDBDETAILVIEWSTYLE
  2
AcDbDetailViewStyle
  3
ObjectDBX Classes
 90
1025
 91
0
280
0
281
0
  0
CLASS
  1
ACDBSECTIONVIEWSTYLE
  2
AcDbSectionViewStyle
  3
ObjectDBX Classes
 90
1025
 91
0
280
0
281
0
  0
CLASS
  1
RASTERVARIABLES
  2
AcDbRasterVariables
  3
ISM
 90
0
 91
0
280
0
281
0
  0
CLASS
  1
ACDBPLACEHOLDER
  2
AcDbPlaceHolder
  3
ObjectDBX Classes
 90
0
 91
0
280
0
281
0
  0
CLASS
  1
LAYOUT
  2
AcDbLayout
  3
ObjectDBX Classes
 90
0
 91
0
280
0
281
0
  0
ENDSEC
  0
SECTION
  2
TABLES
  0
TABLE
  2
VPORT
  5
8
330
0
100
AcDbSymbolTable
 70
1
  0
VPORT
  5
23
330
8
100
AcDbSymbolTableRecord
100
AcDbViewportTableRecord
  2
*Active
 70
0
 10
0.0
 20
0.0
 11
1.0
 21
1.0
 12
0.0
 22
0.0
 13
0.0
 23
0.0
 14
0.5
 24
0.5
 15
0.5
 25
0.5
 16
0.0
 26
0.0
 36
1.0
 17
0.0
 27
0.0
 37
0.0
 40
1000.0
 41
1.34
 42
50.0
 43
0.0
 44
0.0
 50
0.0
 51
0.0
 71
0
 72
1000
 73
1
 74
3
 75
0
 76
0
 77
0
 78
0
281
0
 65
0
146
0.0
  0
ENDTAB
  0
TABLE
  2
LTYPE
  5
2
330
0
100
AcDbSymbolTable
 70
3
  0
LTYPE
  5
24
330
2
100
AcDbSymbolTableRecord
100
AcDbLinetypeTableRecord
  2
ByBlock
 70
0
  3

 72
65
 73
0
 40
0.0
  0
LTYPE
  5
25
330
2
100
AcDbSymbolTableRecord
100
AcDbLinetypeTableRecord
  2
ByLayer
 70
0
  3

 72
65
 73
0
 40
0.0
  0
LTYPE
  5
26
330
2
100
AcDbSymbolTableRecord
100
AcDbLinetypeTableRecord
  2
Continuous
 70
0
  3

 72
65
 73
0
 40
0.0
  0
ENDTAB
  0
TABLE
  2
LAYER
  5
1
330
0
100
AcDbSymbolTable
 70
2
  0
LAYER
  5
27
330
1
100
AcDbSymbolTableRecord
100
AcDbLayerTableRecord
  2
0
 70
0
 62
7
  6
Continuous
370
-3
390
13
347
21
  0
LAYER
  5
28
330
1
100
AcDbSymbolTableRecord
100
AcDbLayerTableRecord
  2
Defpoints
 70
0
 62
7
  6
Continuous
290
0
370
-3
390
13
347
21
  0
ENDTAB
  0
TABLE
  2
STYLE
  5
5
330
0
100
AcDbSymbolTable
 70
1
  0
STYLE
  5
29
330
5
100
AcDbSymbolTableRecord
100
AcDbTextStyleTableRecord
  2
Standard
 70
0
 40
0.0
 41
1.0
 50
0.0
 71
0
 42
2.5
  3
txt
  4

  0
ENDTAB
  0
TABLE
  2
VIEW
  5
7
330
0
100
AcDbSymbolTable
 70
0
  0
ENDTAB
  0
TABLE
  2
UCS
  5
6
330
0
100
AcDbSymbolTable
 70
0
  0
ENDTAB
  0
TABLE
  2
APPID
  5
3
330
0
100
AcDbSymbolTable
 70
3
  0
APPID
  5
2A
330
3
100
AcDbSymbolTableRecord
100
AcDbRegAppTableRecord
  2
ACAD
 70
0
  0
APPID
  5
5B
330
3
100
AcDbSymbolTableRecord
100
AcDbRegAppTableRecord
  2
HATCHBACKGROUNDCOLOR
 70
0
  0
APPID
  5
5C
330
3
100
AcDbSymbolTableRecord
100
AcDbRegAppTableRecord
  2
EZDXF
 70
0
  0
ENDTAB
  0
TABLE
  2
DIMSTYLE
  5
4
330
0
100
AcDbSymbolTable
 70
1
100
AcDbDimStyleTable
  0
DIMSTYLE
105
2B
330
4
100
AcDbSymbolTableRecord
100
AcDbDimStyleTableRecord
  2
Standard
 70
0
 40
1.0
 41
2.5
 42
0.625
 43
3.75
 44
1.25
 45
0.0
 46
0.0
 47
0.0
 48
0.0
 49
2.5
140
2.5
141
2.5
142
0.0
143
0.03937007874
144
1.0
145
0.0
146
1.0
147
0.625
148
0.0
 69
0
 70
0
 71
0
 72
0
 73
0
 74
0
 75
0
 76
0
 77
1
 78
8
 79
3
170
0
171
3
172
1
173
0
174
0
175
0
176
0
177
0
178
0
179
2
271
2
272
2
273
2
274
3
275
0
276
0
277
2
278
44
279
0
280
0
281
0
282
0
283
0
284
8
285
0
286
0
288
0
289
3
290
0
371
-2
372
-2
  0
ENDTAB
  0
TABLE
  2
BLOCK_RECORD
  5
9
330
0
100
AcDbSymbolTable
 70
2
  0
BLOCK_RECORD
  5
17
330
9
100
AcDbSymbolTableRecord
100
AcDbBlockTableRecord
  2
*Model_Space
340
1A
 70
0
280
1
281
0
  0
BLOCK_RECORD
  5
1B
330
9
100
AcDbSymbolTableRecord
100
AcDbBlockTableRecord
  2
*Paper_Space
340
1E
 70
0
280
1
281
0
  0
ENDTAB
  0
ENDSEC
  0
SECTION
  2
BLOCKS
  0
BLOCK
  5
18
330
17
100
AcDbEntity
  8
0
100
AcDbBlockBegin
  2
*Model_Space
 70
0
 10
0.0
 20
0.0
 30
0.0
  3
*Model_Space
  1

  0
ENDBLK
  5
19
330
17
100
AcDbEntity
  8
0
100
AcDbBlockEnd
  0
BLOCK
  5
1C
330
1B
100
AcDbEntity
  8
0
100
AcDbBlockBegin
  2
*Paper_Space
 70
0
 10
0.0
 20
0.0
 30
0.0
  3
*Paper_Space
  1

  0
ENDBLK
  5
1D
330
1B
100
AcDbEntity
  8
0
100
AcDbBlockEnd
  0
ENDSEC
  0
SECTION
  2
ENTITIES
  0
LWPOLYLINE
  5
2F
330
17
100
AcDbEntity
  8
0
100
AcDbPolyline
 90
5
 70
0
 10
229.3078528040323
 20
78.3078528040323
 10
229.3078528040323
 20
-78.3078528040323
 10
-77.3078528040323
 20
-78.3078528040323
 10
-77.3078528040323
 20
78.3078528040323
 10
229.3078528040323
 20
78.3078528040323
  0
LWPOLYLINE
  5
30
330
17
100
AcDbEntity
  8
0
100
AcDbPolyline
 90
25
 70
0
 10
58.30346729289023
 20
-40.55447923883615
 10
58.30357462785771
 20
-40.55463987696701
 10
58.57933471924855
 20
-40.83039996835785
 10
58.57949535737941
 20
-40.83050730332533
 10
58.93979328002079
 20
-40.979747589377524
 10
58.94003118164329
 20
-40.97979491095246
 10
59.13502372306539
 20
-40.998999999999995
 10
60.86497627693461
 20
-40.998999999999995
 10
61.05996881835671
 20
-40.97979491095246
 10
61.06020671997921
 20
-40.979747589377524
 10
61.42050464262059
 20
-40.83050730332533
 10
61.42066528075145
 20
-40.83039996835785
 10
61.69642537214229
 20
-40.55463987696701
 10
61.69653270710977
 20
-40.55447923883615
 10
61.845772993161965
 20
-40.19418131619477
 10
61.8458203147369
 20
-40.19394341457227
 10
61.86492207380871
 20
-40.0
 10
60.86602540378444
 20
-40.0
 10
60.86602540378444
 20
-22.0
 10
59.13397459621556
 20
-22.0
 10
59.13397459621556
 20
-40.0
 10
58.13507792619129
 20
-40.0
 10
58.1541796852631
 20
-40.19394341457227
 10
58.154227006838035
 20
-40.19418131619477
 10
58.30346729289023
 20
-40.55447923883615
  0
LWPOLYLINE
  5
31
330
17
100
AcDbEntity
  8
0
100
AcDbPolyline
 90
43
 70
0
 10
-58.1541796852631
 20
40.19394341457227
 10
-58.154227006838035
 20
40.19418131619477
 10
-58.30346729289023
 20
40.55447923883615
 10
-58.30357462785771
 20
40.55463987696701
 10
-58.57933471924855
 20
40.83039996835785
 10
-58.57949535737941
 20
40.83050730332533
 10
-58.93979328002079
 20
40.979747589377524
 10
-58.94003118164329
 20
40.97979491095246
 10
-59.13502372306539
 20
40.998999999999995
 10
-59.99895087315017
 20
40.998999999999995
 10
-60.19394341457227
 20
40.97979491095246
 10
-60.19418131619477
 20
40.979747589377524
 10
-60.55447923883615
 20
40.83050730332533
 10
-60.55463987696701
 20
40.83039996835785
 10
-60.83039996835785
 20
40.55463987696701
 10
-60.83050730332533
 20
40.55447923883615
 10
-60.979747589377524
 20
40.19418131619477
 10
-60.97979491095246
 20
40.19394341457227
 10
-60.998999999999995
 20
39.99895087315017
 10
-60.998999999999995
 20
-39.99895087315017
 10
-60.97979491095246
 20
-40.19394341457227
 10
-60.979747589377524
 20
-40.19418131619477
 10
-60.83050730332533
 20
-40.55447923883615
 10
-60.83039996835785
 20
-40.55463987696701
 10
-60.55463987696701
 20
-40.83039996835785
 10
-60.55447923883615
 20
-40.83050730332533
 10
-60.19418131619477
 20
-40.979747589377524
 10
-60.19394341457227
 20
-40.97979491095246
 10
-59.99895087315017
 20
-40.998999999999995
 10
-59.13502372306539
 20
-40.998999999999995
 10
-58.94003118164329
 20
-40.97979491095246
 10
-58.93979328002079
 20
-40.979747589377524
 10
-58.57949535737941
 20
-40.83050730332533
 10
-58.57933471924855
 20
-40.83039996835785
 10
-58.30357462785771
 20
-40.55463987696701
 10
-58.30346729289023
 20
-40.55447923883615
 10
-58.154227006838035
 20
-40.19418131619477
 10
-58.1541796852631
 20
-40.19394341457227
 10
-58.13507792619129
 20
-40.0
 10
-59.13397459621556
 20
-40.0
 10
-59.13397459621556
 20
40.0
 10
-58.13507792619129
 20
40.0
 10
-58.1541796852631
 20
40.19394341457227
  0
LWPOLYLINE
  5
32
330
17
100
AcDbEntity
  8
0
100
AcDbPolyline
 90
25
 70
0
 10
60.86602540378444
 20
40.0
 10
61.86492207380871
 20
40.0
 10
61.8458203147369
 20
40.19394341457227
 10
61.845772993161965
 20
40.19418131619477
 10
61.69653270710977
 20
40.55447923883615
 10
61.69642537214229
 20
40.55463987696701
 10
61.42066528075145
 20
40.83039996835785
 10
61.42050464262059
 20
40.83050730332533
 10
61.06020671997921
 20
40.979747589377524
 10
61.05996881835671
 20
40.97979491095246
 10
60.86497627693461
 20
40.998999999999995
 10
59.13502372306539
 20
40.998999999999995
 10
58.94003118164329
 20
40.97979491095246
 10
58.93979328002079
 20
40.979747589377524
 10
58.57949535737941
 20
40.83050730332533
 10
58.57933471924855
 20
40.83039996835785
 10
58.30357462785771
 20
40.55463987696701
 10
58.30346729289023
 20
40.55447923883615
 10
58.154227006838035
 20
40.19418131619477
 10
58.1541796852631
 20
40.19394341457227
 10
58.13507792619129
 20
40.0
 10
59.13397459621556
 20
40.0
 10
59.13397459621556
 20
22.0
 10
60.86602540378444
 20
22.0
 10
60.86602540378444
 20
40.0
  0
LWPOLYLINE
  5
33
330
17
100
AcDbEntity
  8
0
100
AcDbPolyline
 90
5
 70
0
 10
60.86602540378444
 20
18.0
 10
59.13397459621556
 20
18.0
 10
59.13397459621556
 20
-18.0
 10
60.86602540378444
 20
-18.0
 10
60.86602540378444
 20
18.0
  0
LWPOLYLINE
  5
34
330
17
100
AcDbEntity
  8
0
100
AcDbPolyline
 90
25
 70
0
 10
76.86602540378443
 20
40.0
 10
77.8649220738087
 20
40.0
 10
77.84582031472995
 20
40.193943414607226
 10
77.84577299315498
 20
40.19418131622986
 10
77.69653270712662
 20
40.554479238810956
 10
77.69642537215913
 20
40.55463987694184
 10
77.42066528074305
 20
40.83039996836347
 10
77.42050464261219
 20
40.830507303330954
 10
77.06020671997923
 20
40.979747589377524
 10
77.05996881835671
 20
40.97979491095246
 10
76.86497627693463
 20
40.998999999999995
 10
75.13502372306537
 20
40.998999999999995
 10
74.94003118164329
 20
40.97979491095246
 10
74.93979328002077
 20
40.979747589377524
 10
74.57949535738781
 20
40.830507303330954
 10
74.57933471925695
 20
40.83039996836347
 10
74.30357462784087
 20
40.55463987694184
 10
74.30346729287338
 20
40.554479238810956
 10
74.15422700684502
 20
40.19418131622986
 10
74.15417968527005
 20
40.193943414607226
 10
74.1350779261913
 20
40.0
 10
75.13397459621557
 20
40.0
 10
75.13397459621557
 20
22.0
 10
76.86602540378443
 20
22.0
 10
76.86602540378443
 20
40.0
  0
LWPOLYLINE
  5
35
330
17
100
AcDbEntity
  8
0
100
AcDbPolyline
 90
5
 70
0
 10
75.13397459621557
 20
-18.0
 10
76.86602540378443
 20
-18.0
 10
76.86602540378443
 20
18.0
 10
75.13397459621557
 20
18.0
 10
75.13397459621557
 20
-18.0
  0
LWPOLYLINE
  5
36
330
17
100
AcDbEntity
  8
0
100
AcDbPolyline
 90
25
 70
0
 10
74.15422700684502
 20
-40.19418131622986
 10
74.30346729287338
 20
-40.554479238810956
 10
74.30357462784087
 20
-40.55463987694184
 10
74.57933471925695
 20
-40.83039996836347
 10
74.57949535738781
 20
-40.830507303330954
 10
74.93979328002077
 20
-40.979747589377524
 10
74.94003118164329
 20
-40.97979491095246
 10
75.13502372306537
 20
-40.998999999999995
 10
76.86497627693463
 20
-40.998999999999995
 10
77.05996881835671
 20
-40.97979491095246
 10
77.06020671997923
 20
-40.979747589377524
 10
77.42050464261219
 20
-40.830507303330954
 10
77.42066528074305
 20
-40.83039996836347
 10
77.69642537215913
 20
-40.55463987694184
 10
77.69653270712662
 20
-40.554479238810956
 10
77.84577299315498
 20
-40.19418131622986
 10
77.84582031472995
 20
-40.193943414607226
 10
77.8649220738087
 20
-40.0
 10
76.86602540378443
 20
-40.0
 10
76.86602540378443
 20
-22.0
 10
75.13397459621557
 20
-22.0
 10
75.13397459621557
 20
-40.0
 10
74.1350779261913
 20
-40.0
 10
74.15417968527005
 20
-40.193943414607226
 10
74.15422700684502
 20
-40.19418131622986
  0
LWPOLYLINE
  5
37
330
17
100
AcDbEntity
  8
0
100
AcDbPolyline
 90
17
 70
0
 10
-66.76776695296637
 20
-64.23223304703363
 10
-67.30969883127821
 20
-65.04329141908728
 10
-67.5
 20
-66.0
 10
-67.30969883127821
 20
-66.95670858091272
 10
-66.76776695296637
 20
-67.76776695296637
 10
-65.95670858091272
 20
-68.30969883127821
 10
-65.0
 20
-68.5
 10
-64.04329141908728
 20
-68.30969883127821
 10
-63.23223304703363
 20
-67.76776695296637
 10
-62.69030116872178
 20
-66.95670858091272
 10
-62.5
 20
-66.0
 10
-62.69030116872178
 20
-65.04329141908727
 10
-63.23223304703363
 20
-64.23223304703363
 10
-64.04329141908727
 20
-63.69030116872178
 10
-65.0
 20
-63.5
 10
-65.95670858091273
 20
-63.69030116872178
 10
-66.76776695296637
 20
-64.23223304703363
  0
LWPOLYLINE
  5
38
330
17
100
AcDbEntity
  8
0
100
AcDbPolyline
 90
17
 70
0
 10
215.23223304703362
 20
-64.23223304703363
 10
214.6903011687218
 20
-65.04329141908728
 10
214.5
 20
-66.0
 10
214.6903011687218
 20
-66.95670858091272
 10
215.23223304703365
 20
-67.76776695296637
 10
216.04329141908727
 20
-68.30969883127821
 10
217.0
 20
-68.5
 10
217.95670858091273
 20
-68.30969883127821
 10
218.76776695296638
 20
-67.76776695296637
 10
219.3096988312782
 20
-66.95670858091272
 10
219.5
 20
-66.0
 10
219.3096988312782
 20
-65.04329141908727
 10
218.76776695296635
 20
-64.23223304703363
 10
217.95670858091273
 20
-63.69030116872178
 10
217.0
 20
-63.5
 10
216.04329141908727
 20
-63.69030116872178
 10
215.23223304703362
 20
-64.23223304703363
  0
LWPOLYLINE
  5
39
330
17
100
AcDbEntity
  8
0
100
AcDbPolyline
 90
17
 70
0
 10
-66.76776695296637
 20
67.76776695296637
 10
-67.30969883127821
 20
66.95670858091272
 10
-67.5
 20
66.0
 10
-67.30969883127821
 20
65.04329141908728
 10
-66.76776695296637
 20
64.23223304703363
 10
-65.95670858091272
 20
63.69030116872178
 10
-65.0
 20
63.5
 10
-64.04329141908728
 20
63.69030116872178
 10
-63.23223304703363
 20
64.23223304703363
 10
-62.69030116872178
 20
65.04329141908728
 10
-62.5
 20
66.0
 10
-62.69030116872178
 20
66.95670858091273
 10
-63.23223304703363
 20
67.76776695296637
 10
-64.04329141908727
 20
68.30969883127821
 10
-65.0
 20
68.5
 10
-65.95670858091273
 20
68.30969883127821
 10
-66.76776695296637
 20
67.76776695296637
  0
LWPOLYLINE
  5
3A
330
17
100
AcDbEntity
  8
0
100
AcDbPolyline
 90
17
 70
0
 10
215.23223304703362
 20
67.76776695296637
 10
214.6903011687218
 20
66.95670858091272
 10
214.5
 20
66.0
 10
214.6903011687218
 20
65.04329141908728
 10
215.23223304703365
 20
64.23223304703363
 10
216.04329141908727
 20
63.69030116872178
 10
217.0
 20
63.5
 10
217.95670858091273
 20
63.69030116872178
 10
218.76776695296638
 20
64.23223304703363
 10
219.3096988312782
 20
65.04329141908728
 10
219.5
 20
66.0
 10
219.3096988312782
 20
66.95670858091273
 10
218.76776695296635
 20
67.76776695296637
 10
217.95670858091273
 20
68.30969883127821
 10
217.0
 20
68.5
 10
216.04329141908727
 20
68.30969883127821
 10
215.23223304703362
 20
67.76776695296637
  0
LWPOLYLINE
  5
3B
330
17
100
AcDbEntity
  8
0
100
AcDbPolyline
 90
11
 70
0
 10
-53.6261015625
 20
-69.03078125
 10
-54.0679140625
 20
-69.1109375
 10
-53.9241171875
 20
-69.5474921875
 10
-53.2632890625
 20
-69.21453125
 10
-51.9822265625
 20
-65.90703125
 10
-52.4220703125
 20
-65.90703125
 10
-53.1564453125
 20
-68.009375
 10
-53.8845703125
 20
-65.90703125
 10
-54.3580078125
 20
-65.90703125
 10
-53.3736328125
 20
-68.5046875
 10
-53.6261015625
 20
-69.03078125
  0
LWPOLYLINE
  5
3C
330
17
100
AcDbEntity
  8
0
100
AcDbPolyline
 90
15
 70
0
 10
-54.65048828125
 20
-68.5
 10
-54.84091796875
 20
-66.3196015625
 10
-55.34220703125
 20
-65.8984375
 10
-56.38173828125
 20
-65.940625
 10
-56.96298828125
 20
-66.646875
 10
-55.730488281250004
 20
-66.2184375
 10
-55.31173828125
 20
-66.41134375
 10
-55.23408203125
 20
-66.8546875
 10
-56.72470703125
 20
-67.215625
 10
-57.00201953125
 20
-68.05778125
 10
-56.46230078125
 20
-68.52521875
 10
-55.48405078125
 20
-68.3853125
 10
-55.19736328125
 20
-68.18046875
 10
-55.10986328125
 20
-68.5
 10
-54.65048828125
 20
-68.5
  0
LWPOLYLINE
  5
3D
330
17
100
AcDbEntity
  8
0
100
AcDbPolyline
 90
14
 70
0
 10
-50.2138671875
 20
-68.134859375
 10
-50.8154296875
 20
-68.140234375
 10
-51.294203124999996
 20
-67.39909375
 10
-49.3673828125
 20
-67.315625
 10
-49.6947265625
 20
-66.20234375
 10
-50.442570312499996
 20
-65.8519765625
 10
-51.349453125
 20
-66.1414296875
 10
-51.752296875
 20
-67.09778125
 10
-51.4220703125
 20
-68.20859375
 10
-50.4310234375
 20
-68.5563984375
 10
-49.5328125
 20
-68.0744140625
 10
-49.3798828125
 20
-67.72109375
 10
-49.8337890625
 20
-67.66484375
 10
-50.2138671875
 20
-68.134859375
  0
LWPOLYLINE
  5
3E
330
17
100
AcDbEntity
  8
0
100
AcDbPolyline
 90
10
 70
0
 10
-48.37771484375
 20
-66.19721875
 10
-48.43740234375
 20
-65.90703125
 10
-48.83271484375
 20
-65.90703125
 10
-48.83271484375
 20
-68.5
 10
-48.39365234375
 20
-68.5
 10
-48.27083984375
 20
-66.5173125
 10
-47.57568359375
 20
-66.39765625
 10
-47.42412109375
 20
-65.98984375
 10
-47.99468359375
 20
-65.8625625
 10
-48.37771484375
 20
-66.19721875
  0
LWPOLYLINE
  5
3F
330
17
100
AcDbEntity
  8
0
100
AcDbPolyline
 90
9
 70
0
 10
-44.1312890625
 20
-68.390078125
 10
-43.573781249999996
 20
-67.0911015625
 10
-43.8942734375
 20
-65.3143125
 10
-44.408953125
 20
-64.94815625
 10
-45.150234375
 20
-64.98190625
 10
-45.848734375
 20
-66.06240625
 10
-45.541796875
 20
-68.18984375
 10
-44.927296874999996
 20
-68.54609375
 10
-44.1312890625
 20
-68.390078125
  0
LWPOLYLINE
  5
40
330
17
100
AcDbEntity
  8
0
100
AcDbPolyline
 90
7
 70
0
 10
-57.39765625
 20
-68.07734375
 10
-59.16015625
 20
-68.07734375
 10
-59.16015625
 20
-64.92109375
 10
-59.63359375
 20
-64.92109375
 10
-59.63359375
 20
-68.5
 10
-57.39765625
 20
-68.5
 10
-57.39765625
 20
-68.07734375
  0
LWPOLYLINE
  5
41
330
17
100
AcDbEntity
  8
0
100
AcDbPolyline
 90
25
 70
0
 10
196.86602540378445
 20
40.0
 10
197.8649220738087
 20
40.0
 10
197.84582031473
 20
40.193943414607084
 10
197.845772993155
 20
40.19418131622986
 10
197.6965327071266
 20
40.554479238810956
 10
197.6964253721591
 20
40.55463987694187
 10
197.42066528075992
 20
40.83039996835218
 10
197.420504642629
 20
40.83050730331972
 10
197.06020671997223
 20
40.97974758937892
 10
197.05996881834977
 20
40.97979491095384
 10
196.8649762769346
 20
40.998999999999995
 10
195.1350237230654
 20
40.998999999999995
 10
194.94003118165023
 20
40.97979491095384
 10
194.93979328002777
 20
40.97974758937892
 10
194.579495357371
 20
40.83050730331972
 10
194.57933471924008
 20
40.83039996835218
 10
194.3035746278409
 20
40.55463987694187
 10
194.3034672928734
 20
40.554479238810956
 10
194.154227006845
 20
40.19418131622986
 10
194.15417968527
 20
40.193943414607084
 10
194.1350779261913
 20
40.0
 10
195.13397459621555
 20
40.0
 10
195.13397459621555
 20
22.0
 10
196.86602540378445
 20
22.0
 10
196.86602540378445
 20
40.0
  0
LWPOLYLINE
  5
42
330
17
100
AcDbEntity
  8
0
100
AcDbPolyline
 90
5
 70
0
 10
196.86602540378445
 20
18.0
 10
195.13397459621555
 20
18.0
 10
195.13397459621555
 20
-18.0
 10
196.86602540378445
 20
-18.0
 10
196.86602540378445
 20
18.0
  0
LWPOLYLINE
  5
43
330
17
100
AcDbEntity
  8
0
100
AcDbPolyline
 90
25
 70
0
 10
194.15417968527
 20
-40.193943414607084
 10
194.154227006845
 20
-40.19418131622986
 10
194.3034672928734
 20
-40.554479238810956
 10
194.3035746278409
 20
-40.55463987694187
 10
194.57933471924008
 20
-40.83039996835218
 10
194.579495357371
 20
-40.83050730331972
 10
194.93979328002777
 20
-40.97974758937892
 10
194.94003118165023
 20
-40.97979491095384
 10
195.1350237230654
 20
-40.998999999999995
 10
196.8649762769346
 20
-40.998999999999995
 10
197.05996881834977
 20
-40.97979491095384
 10
197.06020671997223
 20
-40.97974758937892
 10
197.420504642629
 20
-40.83050730331972
 10
197.42066528075992
 20
-40.83039996835218
 10
197.6964253721591
 20
-40.55463987694187
 10
197.6965327071266
 20
-40.554479238810956
 10
197.845772993155
 20
-40.19418131622986
 10
197.84582031473
 20
-40.193943414607084
 10
197.8649220738087
 20
-40.0
 10
196.86602540378445
 20
-40.0
 10
196.86602540378445
 20
-22.0
 10
195.13397459621555
 20
-22.0
 10
195.13397459621555
 20
-40.0
 10
194.1350779261913
 20
-40.0
 10
194.15417968527
 20
-40.193943414607084
  0
LWPOLYLINE
  5
44
330
17
100
AcDbEntity
  8
0
100
AcDbPolyline
 90
43
 70
0
 10
210.15417968527
 20
-40.193943414607084
 10
210.154227006845
 20
-40.19418131622986
 10
210.3034672928734
 20
-40.554479238810956
 10
210.3035746278409
 20
-40.55463987694187
 10
210.57933471924008
 20
-40.83039996835218
 10
210.579495357371
 20
-40.83050730331972
 10
210.93979328002777
 20
-40.97974758937892
 10
210.94003118165023
 20
-40.97979491095384
 10
211.1350237230654
 20
-40.998999999999995
 10
211.99895087315016
 20
-40.998999999999995
 10
212.19394341456533
 20
-40.97979491095384
 10
212.19418131618778
 20
-40.97974758937892
 10
212.55447923884455
 20
-40.83050730331972
 10
212.55463987697547
 20
-40.83039996835218
 10
212.83039996837465
 20
-40.55463987694187
 10
212.83050730334216
 20
-40.554479238810956
 10
212.97974758937056
 20
-40.19418131622986
 10
212.97979491094554
 20
-40.193943414607084
 10
212.999
 20
-39.99895087315036
 10
212.999
 20
39.99895087315036
 10
212.97979491094554
 20
40.193943414607084
 10
212.97974758937056
 20
40.19418131622986
 10
212.83050730334216
 20
40.554479238810956
 10
212.83039996837465
 20
40.55463987694187
 10
212.55463987697547
 20
40.83039996835218
 10
212.55447923884455
 20
40.83050730331972
 10
212.19418131618778
 20
40.97974758937892
 10
212.19394341456533
 20
40.97979491095384
 10
211.99895087315016
 20
40.998999999999995
 10
211.1350237230654
 20
40.998999999999995
 10
210.94003118165023
 20
40.97979491095384
 10
210.93979328002777
 20
40.97974758937892
 10
210.579495357371
 20
40.83050730331972
 10
210.57933471924008
 20
40.83039996835218
 10
210.3035746278409
 20
40.55463987694187
 10
210.3034672928734
 20
40.554479238810956
 10
210.154227006845
 20
40.19418131622986
 10
210.15417968527
 20
40.193943414607084
 10
210.1350779261913
 20
40.0
 10
211.13397459621555
 20
40.0
 10
211.13397459621555
 20
-40.0
 10
210.1350779261913
 20
-40.0
 10
210.15417968527
 20
-40.193943414607084
  0
LWPOLYLINE
  5
45
330
17
100
AcDbEntity
  8
0
100
AcDbPolyline
 90
5
 70
0
 10
540.9235584120969
 20
78.3078528040323
 10
540.9235584120969
 20
-78.3078528040323
 10
234.30785280403234
 20
-78.3078528040323
 10
234.30785280403234
 20
78.3078528040323
 10
540.9235584120969
 20
78.3078528040323
  0
LWPOLYLINE
  5
46
330
17
100
AcDbEntity
  8
0
100
AcDbPolyline
 90
25
 70
0
 10
369.91917290095483
 20
-40.55447923883615
 10
369.9192802359223
 20
-40.55463987696701
 10
370.19504032731317
 20
-40.83039996835785
 10
370.19520096544403
 20
-40.83050730332533
 10
370.5554988880854
 20
-40.979747589377524
 10
370.5557367897079
 20
-40.97979491095246
 10
370.75072933113
 20
-40.998999999999995
 10
372.4806818849992
 20
-40.998999999999995
 10
372.6756744264213
 20
-40.97979491095246
 10
372.6759123280438
 20
-40.979747589377524
 10
373.0362102506852
 20
-40.83050730332533
 10
373.03637088881607
 20
-40.83039996835785
 10
373.3121309802069
 20
-40.55463987696701
 10
373.3122383151744
 20
-40.55447923883615
 10
373.4614786012266
 20
-40.19418131619477
 10
373.4615259228015
 20
-40.19394341457227
 10
373.48062768187333
 20
-40.0
 10
372.48173101184904
 20
-40.0
 10
372.48173101184904
 20
-22.0
 10
370.7496802042802
 20
-22.0
 10
370.7496802042802
 20
-40.0
 10
369.7507835342559
 20
-40.0
 10
369.7698852933277
 20
-40.19394341457227
 10
369.76993261490264
 20
-40.19418131619477
 10
369.91917290095483
 20
-40.55447923883615
  0
LWPOLYLINE
  5
47
330
17
100
AcDbEntity
  8
0
100
AcDbPolyline
 90
43
 70
0
 10
253.4615259228015
 20
40.19394341457227
 10
253.4614786012266
 20
40.19418131619477
 10
253.3122383151744
 20
40.55447923883615
 10
253.31213098020692
 20
40.55463987696701
 10
253.03637088881607
 20
40.83039996835785
 10
253.0362102506852
 20
40.83050730332533
 10
252.67591232804384
 20
40.979747589377524
 10
252.67567442642132
 20
40.97979491095246
 10
252.48068188499923
 20
40.998999999999995
 10
251.61675473491445
 20
40.998999999999995
 10
251.42176219349236
 20
40.97979491095246
 10
251.42152429186984
 20
40.979747589377524
 10
251.06122636922845
 20
40.83050730332533
 10
251.0610657310976
 20
40.83039996835785
 10
250.78530563970676
 20
40.55463987696701
 10
250.78519830473928
 20
40.55447923883615
 10
250.6359580186871
 20
40.19418131619477
 10
250.63591069711217
 20
40.19394341457227
 10
250.61670560806462
 20
39.99895087315017
 10
250.61670560806462
 20
-39.99895087315017
 10
250.63591069711217
 20
-40.19394341457227
 10
250.6359580186871
 20
-40.19418131619477
 10
250.78519830473928
 20
-40.55447923883615
 10
250.78530563970676
 20
-40.55463987696701
 10
251.0610657310976
 20
-40.83039996835785
 10
251.06122636922845
 20
-40.83050730332533
 10
251.42152429186984
 20
-40.979747589377524
 10
251.42176219349236
 20
-40.97979491095246
 10
251.61675473491445
 20
-40.998999999999995
 10
252.48068188499923
 20
-40.998999999999995
 10
252.67567442642132
 20
-40.97979491095246
 10
252.67591232804384
 20
-40.979747589377524
 10
253.0362102506852
 20
-40.83050730332533
 10
253.03637088881607
 20
-40.83039996835785
 10
253.31213098020692
 20
-40.55463987696701
 10
253.3122383151744
 20
-40.55447923883615
 10
253.4614786012266
 20
-40.19418131619477
 10
253.4615259228015
 20
-40.19394341457227
 10
253.48062768187333
 20
-40.0
 10
252.48173101184906
 20
-40.0
 10
252.48173101184906
 20
40.0
 10
253.48062768187333
 20
40.0
 10
253.4615259228015
 20
40.19394341457227
  0
LWPOLYLINE
  5
48
330
17
100
AcDbEntity
  8
0
100
AcDbPolyline
 90
25
 70
0
 10
372.48173101184904
 20
40.0
 10
373.48062768187333
 20
40.0
 10
373.4615259228015
 20
40.19394341457227
 10
373.4614786012266
 20
40.19418131619477
 10
373.3122383151744
 20
40.55447923883615
 10
373.3121309802069
 20
40.55463987696701
 10
373.03637088881607
 20
40.83039996835785
 10
373.0362102506852
 20
40.83050730332533
 10
372.6759123280438
 20
40.979747589377524
 10
372.6756744264213
 20
40.97979491095246
 10
372.4806818849992
 20
40.998999999999995
 10
370.75072933113
 20
40.998999999999995
 10
370.5557367897079
 20
40.97979491095246
 10
370.5554988880854
 20
40.979747589377524
 10
370.19520096544403
 20
40.83050730332533
 10
370.19504032731317
 20
40.83039996835785
 10
369.9192802359223
 20
40.55463987696701
 10
369.91917290095483
 20
40.55447923883615
 10
369.76993261490264
 20
40.19418131619477
 10
369.7698852933277
 20
40.19394341457227
 10
369.7507835342559
 20
40.0
 10
370.7496802042802
 20
40.0
 10
370.7496802042802
 20
22.0
 10
372.48173101184904
 20
22.0
 10
372.48173101184904
 20
40.0
  0
LWPOLYLINE
  5
49
330
17
100
AcDbEntity
  8
0
100
AcDbPolyline
 90
5
 70
0
 10
372.48173101184904
 20
18.0
 10
370.7496802042802
 20
18.0
 10
370.7496802042802
 20
-18.0
 10
372.48173101184904
 20
-18.0
 10
372.48173101184904
 20
18.0
  0
LWPOLYLINE
  5
4A
330
17
100
AcDbEntity
  8
0
100
AcDbPolyline
 90
25
 70
0
 10
388.48173101184904
 20
40.0
 10
389.48062768187333
 20
40.0
 10
389.4615259227946
 20
40.193943414607226
 10
389.4614786012196
 20
40.19418131622986
 10
389.3122383151912
 20
40.554479238810956
 10
389.31213098022374
 20
40.55463987694184
 10
389.03637088880765
 20
40.83039996836347
 10
389.0362102506768
 20
40.830507303330954
 10
388.67591232804386
 20
40.979747589377524
 10
388.6756744264213
 20
40.97979491095246
 10
388.4806818849992
 20
40.998999999999995
 10
386.75072933113
 20
40.998999999999995
 10
386.5557367897079
 20
40.97979491095246
 10
386.55549888808537
 20
40.979747589377524
 10
386.19520096545244
 20
40.830507303330954
 10
386.1950403273216
 20
40.83039996836347
 10
385.9192802359055
 20
40.55463987694184
 10
385.919172900938
 20
40.554479238810956
 10
385.76993261490964
 20
40.19418131622986
 10
385.76988529333465
 20
40.193943414607226
 10
385.7507835342559
 20
40.0
 10
386.7496802042802
 20
40.0
 10
386.7496802042802
 20
22.0
 10
388.48173101184904
 20
22.0
 10
388.48173101184904
 20
40.0
  0
LWPOLYLINE
  5
4B
330
17
100
AcDbEntity
  8
0
100
AcDbPolyline
 90
5
 70
0
 10
386.7496802042802
 20
-18.0
 10
388.48173101184904
 20
-18.0
 10
388.48173101184904
 20
18.0
 10
386.7496802042802
 20
18.0
 10
386.7496802042802
 20
-18.0
  0
LWPOLYLINE
  5
4C
330
17
100
AcDbEntity
  8
0
100
AcDbPolyline
 90
25
 70
0
 10
385.76993261490964
 20
-40.19418131622986
 10
385.919172900938
 20
-40.554479238810956
 10
385.9192802359055
 20
-40.55463987694184
 10
386.1950403273216
 20
-40.83039996836347
 10
386.19520096545244
 20
-40.830507303330954
 10
386.55549888808537
 20
-40.979747589377524
 10
386.5557367897079
 20
-40.97979491095246
 10
386.75072933113
 20
-40.998999999999995
 10
388.4806818849992
 20
-40.998999999999995
 10
388.6756744264213
 20
-40.97979491095246
 10
388.67591232804386
 20
-40.979747589377524
 10
389.0362102506768
 20
-40.830507303330954
 10
389.03637088880765
 20
-40.83039996836347
 10
389.31213098022374
 20
-40.55463987694184
 10
389.3122383151912
 20
-40.554479238810956
 10
389.4614786012196
 20
-40.19418131622986
 10
389.4615259227946
 20
-40.193943414607226
 10
389.48062768187333
 20
-40.0
 10
388.48173101184904
 20
-40.0
 10
388.48173101184904
 20
-22.0
 10
386.7496802042802
 20
-22.0
 10
386.7496802042802
 20
-40.0
 10
385.7507835342559
 20
-40.0
 10
385.76988529333465
 20
-40.193943414607226
 10
385.76993261490964
 20
-40.19418131622986
  0
LWPOLYLINE
  5
4D
330
17
100
AcDbEntity
  8
0
100
AcDbPolyline
 90
17
 70
0
 10
244.84793865509823
 20
-64.23223304703363
 10
244.3060067767864
 20
-65.04329141908728
 10
244.11570560806462
 20
-66.0
 10
244.3060067767864
 20
-66.95670858091272
 10
244.84793865509823
 20
-67.76776695296637
 10
245.65899702715188
 20
-68.30969883127821
 10
246.61570560806462
 20
-68.5
 10
247.57241418897735
 20
-68.30969883127821
 10
248.383472561031
 20
-67.76776695296637
 10
248.92540443934283
 20
-66.95670858091272
 10
249.11570560806462
 20
-66.0
 10
248.92540443934283
 20
-65.04329141908727
 10
248.383472561031
 20
-64.23223304703363
 10
247.57241418897735
 20
-63.69030116872178
 10
246.61570560806462
 20
-63.5
 10
245.65899702715188
 20
-63.69030116872178
 10
244.84793865509823
 20
-64.23223304703363
  0
LWPOLYLINE
  5
4E
330
17
100
AcDbEntity
  8
0
100
AcDbPolyline
 90
17
 70
0
 10
526.8479386550982
 20
-64.23223304703363
 10
526.3060067767864
 20
-65.04329141908728
 10
526.1157056080647
 20
-66.0
 10
526.3060067767864
 20
-66.95670858091272
 10
526.8479386550982
 20
-67.76776695296637
 10
527.6589970271518
 20
-68.30969883127821
 10
528.6157056080647
 20
-68.5
 10
529.5724141889773
 20
-68.30969883127821
 10
530.383472561031
 20
-67.76776695296637
 10
530.9254044393429
 20
-66.95670858091272
 10
531.1157056080647
 20
-66.0
 10
530.9254044393429
 20
-65.04329141908727
 10
530.383472561031
 20
-64.23223304703363
 10
529.5724141889773
 20
-63.69030116872178
 10
528.6157056080647
 20
-63.5
 10
527.6589970271518
 20
-63.69030116872178
 10
526.8479386550982
 20
-64.23223304703363
  0
LWPOLYLINE
  5
4F
330
17
100
AcDbEntity
  8
0
100
AcDbPolyline
 90
17
 70
0
 10
244.84793865509823
 20
67.76776695296637
 10
244.3060067767864
 20
66.95670858091272
 10
244.11570560806462
 20
66.0
 10
244.3060067767864
 20
65.04329141908728
 10
244.84793865509823
 20
64.23223304703363
 10
245.65899702715188
 20
63.69030116872178
 10
246.61570560806462
 20
63.5
 10
247.57241418897735
 20
63.69030116872178
 10
248.383472561031
 20
64.23223304703363
 10
248.92540443934283
 20
65.04329141908728
 10
249.11570560806462
 20
66.0
 10
248.92540443934283
 20
66.95670858091273
 10
248.383472561031
 20
67.76776695296637
 10
247.57241418897735
 20
68.30969883127821
 10
246.61570560806462
 20
68.5
 10
245.65899702715188
 20
68.30969883127821
 10
244.84793865509823
 20
67.76776695296637
  0
LWPOLYLINE
  5
50
330
17
100
AcDbEntity
  8
0
100
AcDbPolyline
 90
17
 70
0
 10
526.8479386550982
 20
67.76776695296637
 10
526.3060067767864
 20
66.95670858091272
 10
526.1157056080647
 20
66.0
 10
526.3060067767864
 20
65.04329141908728
 10
526.8479386550982
 20
64.23223304703363
 10
527.6589970271518
 20
63.69030116872178
 10
528.6157056080647
 20
63.5
 10
529.5724141889773
 20
63.69030116872178
 10
530.383472561031
 20
64.23223304703363
 10
530.9254044393429
 20
65.04329141908728
 10
531.1157056080647
 20
66.0
 10
530.9254044393429
 20
66.95670858091273
 10
530.383472561031
 20
67.76776695296637
 10
529.5724141889773
 20
68.30969883127821
 10
528.6157056080647
 20
68.5
 10
527.6589970271518
 20
68.30969883127821
 10
526.8479386550982
 20
67.76776695296637
  0
LWPOLYLINE
  5
51
330
17
100
AcDbEntity
  8
0
100
AcDbPolyline
 90
11
 70
0
 10
257.98960404556465
 20
-69.03078125
 10
257.5477915455646
 20
-69.1109375
 10
257.6915884205646
 20
-69.5474921875
 10
258.3524165455646
 20
-69.21453125
 10
259.6334790455646
 20
-65.90703125
 10
259.1936352955646
 20
-65.90703125
 10
258.4592602955646
 20
-68.009375
 10
257.7311352955646
 20
-65.90703125
 10
257.25769779556464
 20
-65.90703125
 10
258.24207279556464
 20
-68.5046875
 10
257.98960404556465
 20
-69.03078125
  0
LWPOLYLINE
  5
52
330
17
100
AcDbEntity
  8
0
100
AcDbPolyline
 90
15
 70
0
 10
256.96521732681464
 20
-68.5
 10
256.77478763931464
 20
-66.3196015625
 10
256.27349857681463
 20
-65.8984375
 10
255.23396732681462
 20
-65.940625
 10
254.6527173268146
 20
-66.646875
 10
255.8852173268146
 20
-66.2184375
 10
256.3039673268146
 20
-66.41134375
 10
256.3816235768146
 20
-66.8546875
 10
254.8909985768146
 20
-67.215625
 10
254.61368607681462
 20
-68.05778125
 10
255.1534048268146
 20
-68.52521875
 10
256.1316548268146
 20
-68.3853125
 10
256.41834232681464
 20
-68.18046875
 10
256.5058423268146
 20
-68.5
 10
256.96521732681464
 20
-68.5
  0
LWPOLYLINE
  5
53
330
17
100
AcDbEntity
  8
0
100
AcDbPolyline
 90
14
 70
0
 10
261.4018384205646
 20
-68.134859375
 10
260.8002759205646
 20
-68.140234375
 10
260.3215024830646
 20
-67.39909375
 10
262.2483227955646
 20
-67.315625
 10
261.9209790455646
 20
-66.20234375
 10
261.17313529556463
 20
-65.8519765625
 10
260.2662524830646
 20
-66.1414296875
 10
259.8634087330646
 20
-67.09778125
 10
260.1936352955646
 20
-68.20859375
 10
261.1846821705646
 20
-68.5563984375
 10
262.08289310806464
 20
-68.0744140625
 10
262.2358227955646
 20
-67.72109375
 10
261.7819165455646
 20
-67.66484375
 10
261.4018384205646
 20
-68.134859375
  0
LWPOLYLINE
  5
54
330
17
100
AcDbEntity
  8
0
100
AcDbPolyline
 90
10
 70
0
 10
263.23799076431465
 20
-66.19721875
 10
263.1783032643146
 20
-65.90703125
 10
262.7829907643146
 20
-65.90703125
 10
262.7829907643146
 20
-68.5
 10
263.22205326431464
 20
-68.5
 10
263.3448657643146
 20
-66.5173125
 10
264.0400220143146
 20
-66.39765625
 10
264.1915845143146
 20
-65.98984375
 10
263.62102201431463
 20
-65.8625625
 10
263.23799076431465
 20
-66.19721875
  0
LWPOLYLINE
  5
55
330
17
100
AcDbEntity
  8
0
100
AcDbPolyline
 90
7
 70
0
 10
252.45554935806462
 20
-68.07734375
 10
252.45554935806462
 20
-64.92109375
 10
251.98211185806463
 20
-64.92109375
 10
251.98211185806463
 20
-68.5
 10
254.2180493580646
 20
-68.5
 10
254.2180493580646
 20
-68.07734375
 10
252.45554935806462
 20
-68.07734375
  0
LWPOLYLINE
  5
56
330
17
100
AcDbEntity
  8
0
100
AcDbPolyline
 90
12
 70
0
 10
265.5754712330646
 20
-67.23984375
 10
265.5754712330646
 20
-67.64296875
 10
267.1285962330646
 20
-67.64296875
 10
267.1285962330646
 20
-68.5
 10
267.5676587330646
 20
-68.5
 10
267.5676587330646
 20
-67.64296875
 10
268.0512524830646
 20
-67.64296875
 10
268.0512524830646
 20
-67.23984375
 10
267.5676587330646
 20
-67.23984375
 10
267.5676587330646
 20
-64.92109375
 10
267.2090649830646
 20
-64.92109375
 10
265.5754712330646
 20
-67.23984375
  0
LWPOLYLINE
  5
57
330
17
100
AcDbEntity
  8
0
100
AcDbPolyline
 90
25
 70
0
 10
508.4817310118491
 20
40.0
 10
509.48062768187333
 20
40.0
 10
509.46152592279464
 20
40.193943414607084
 10
509.4614786012196
 20
40.19418131622986
 10
509.3122383151912
 20
40.554479238810956
 10
509.31213098022374
 20
40.55463987694187
 10
509.03637088882454
 20
40.83039996835218
 10
509.0362102506936
 20
40.83050730331972
 10
508.6759123280368
 20
40.97974758937892
 10
508.6756744264144
 20
40.97979491095384
 10
508.4806818849992
 20
40.998999999999995
 10
506.75072933113
 20
40.998999999999995
 10
506.55573678971484
 20
40.97979491095384
 10
506.5554988880924
 20
40.97974758937892
 10
506.1952009654356
 20
40.83050730331972
 10
506.1950403273047
 20
40.83039996835218
 10
505.9192802359055
 20
40.55463987694187
 10
505.919172900938
 20
40.554479238810956
 10
505.76993261490964
 20
40.19418131622986
 10
505.7698852933346
 20
40.193943414607084
 10
505.7507835342559
 20
40.0
 10
506.74968020428014
 20
40.0
 10
506.74968020428014
 20
22.0
 10
508.4817310118491
 20
22.0
 10
508.4817310118491
 20
40.0
  0
LWPOLYLINE
  5
58
330
17
100
AcDbEntity
  8
0
100
AcDbPolyline
 90
5
 70
0
 10
508.4817310118491
 20
18.0
 10
506.74968020428014
 20
18.0
 10
506.74968020428014
 20
-18.0
 10
508.4817310118491
 20
-18.0
 10
508.4817310118491
 20
18.0
  0
LWPOLYLINE
  5
59
330
17
100
AcDbEntity
  8
0
100
AcDbPolyline
 90
25
 70
0
 10
505.7698852933346
 20
-40.193943414607084
 10
505.76993261490964
 20
-40.19418131622986
 10
505.919172900938
 20
-40.554479238810956
 10
505.9192802359055
 20
-40.55463987694187
 10
506.1950403273047
 20
-40.83039996835218
 10
506.1952009654356
 20
-40.83050730331972
 10
506.5554988880924
 20
-40.97974758937892
 10
506.55573678971484
 20
-40.97979491095384
 10
506.75072933113
 20
-40.998999999999995
 10
508.4806818849992
 20
-40.998999999999995
 10
508.6756744264144
 20
-40.97979491095384
 10
508.6759123280368
 20
-40.97974758937892
 10
509.0362102506936
 20
-40.83050730331972
 10
509.03637088882454
 20
-40.83039996835218
 10
509.31213098022374
 20
-40.55463987694187
 10
509.3122383151912
 20
-40.554479238810956
 10
509.4614786012196
 20
-40.19418131622986
 10
509.46152592279464
 20
-40.193943414607084
 10
509.48062768187333
 20
-40.0
 10
508.4817310118491
 20
-40.0
 10
508.4817310118491
 20
-22.0
 10
506.74968020428014
 20
-22.0
 10
506.74968020428014
 20
-40.0
 10
505.7507835342559
 20
-40.0
 10
505.7698852933346
 20
-40.193943414607084
  0
LWPOLYLINE
  5
5A
330
17
100
AcDbEntity
  8
0
100
AcDbPolyline
 90
43
 70
0
 10
521.7698852933346
 20
-40.193943414607084
 10
521.7699326149096
 20
-40.19418131622986
 10
521.9191729009381
 20
-40.554479238810956
 10
521.9192802359055
 20
-40.55463987694187
 10
522.1950403273047
 20
-40.83039996835218
 10
522.1952009654356
 20
-40.83050730331972
 10
522.5554988880924
 20
-40.97974758937892
 10
522.5557367897148
 20
-40.97979491095384
 10
522.7507293311301
 20
-40.998999999999995
 10
523.6146564812148
 20
-40.998999999999995
 10
523.80964902263
 20
-40.97979491095384
 10
523.8098869242524
 20
-40.97974758937892
 10
524.1701848469091
 20
-40.83050730331972
 10
524.1703454850401
 20
-40.83039996835218
 10
524.4461055764393
 20
-40.55463987694187
 10
524.4462129114067
 20
-40.554479238810956
 10
524.5954531974352
 20
-40.19418131622986
 10
524.5955005190101
 20
-40.193943414607084
 10
524.6147056080646
 20
-39.99895087315036
 10
524.6147056080646
 20
39.99895087315036
 10
524.5955005190101
 20
40.193943414607084
 10
524.5954531974352
 20
40.19418131622986
 10
524.4462129114067
 20
40.554479238810956
 10
524.4461055764393
 20
40.55463987694187
 10
524.1703454850401
 20
40.83039996835218
 10
524.1701848469091
 20
40.83050730331972
 10
523.8098869242524
 20
40.97974758937892
 10
523.80964902263
 20
40.97979491095384
 10
523.6146564812148
 20
40.998999999999995
 10
522.7507293311301
 20
40.998999999999995
 10
522.5557367897148
 20
40.97979491095384
 10
522.5554988880924
 20
40.97974758937892
 10
522.1952009654356
 20
40.83050730331972
 10
522.1950403273047
 20
40.83039996835218
 10
521.9192802359055
 20
40.55463987694187
 10
521.9191729009381
 20
40.554479238810956
 10
521.7699326149096
 20
40.19418131622986
 10
521.7698852933346
 20
40.193943414607084
 10
521.7507835342559
 20
40.0
 10
522.7496802042801
 20
40.0
 10
522.7496802042801
 20
-40.0
 10
521.7507835342559
 20
-40.0
 10
521.7698852933346
 20
-40.193943414607084
  0
ENDSEC
  0
SECTION
  2
OBJECTS
  0
DICTIONARY
  5
A
330
0
100
AcDbDictionary
280
0
281
1
  3
ACAD_COLOR
350
B
  3
ACAD_GROUP
350
C
  3
ACAD_LAYOUT
350
D
  3
ACAD_MATERIAL
350
E
  3
ACAD_MLEADERSTYLE
350
F
  3
ACAD_MLINESTYLE
350
10
  3
ACAD_PLOTSETTINGS
350
11
  3
ACAD_PLOTSTYLENAME
350
12
  3
ACAD_SCALELIST
350
14
  3
ACAD_TABLESTYLE
350
15
  3
ACAD_VISUALSTYLE
350
16
  3
EZDXF_META
350
2D
  0
DICTIONARY
  5
B
330
A
100
AcDbDictionary
280
0
281
1
  0
DICTIONARY
  5
C
330
A
100
AcDbDictionary
280
0
281
1
  0
DICTIONARY
  5
D
330
A
100
AcDbDictionary
280
0
281
1
  3
Model
350
1A
  3
Layout1
350
1E
  0
DICTIONARY
  5
E
330
A
100
AcDbDictionary
280
0
281
1
  3
ByBlock
350
1F
  3
ByLayer
350
20
  3
Global
350
21
  0
DICTIONARY
  5
F
330
A
100
AcDbDictionary
280
0
281
1
  3
Standard
350
2C
  0
DICTIONARY
  5
10
330
A
100
AcDbDictionary
280
0
281
1
  3
Standard
350
22
  0
DICTIONARY
  5
11
330
A
100
AcDbDictionary
280
0
281
1
  0
ACDBDICTIONARYWDFLT
  5
12
330
A
100
AcDbDictionary
280
0
281
1
  3
Normal
350
13
100
AcDbDictionaryWithDefault
340
13
  0
ACDBPLACEHOLDER
  5
13
330
12
  0
DICTIONARY
  5
14
330
A
100
AcDbDictionary
280
0
281
1
  0
DICTIONARY
  5
15
330
A
100
AcDbDictionary
280
0
281
1
  0
DICTIONARY
  5
16
330
A
100
AcDbDictionary
280
0
281
1
  0
LAYOUT
  5
1A
330
D
100
AcDbPlotSettings
  1

  4
A3
  6

 40
7.5
 41
20.0
 42
7.5
 43
20.0
 44
420.0
 45
297.0
 46
0.0
 47
0.0
 48
0.0
 49
0.0
140
0.0
141
0.0
142
1.0
143
1.0
 70
1024
 72
1
 73
0
 74
5
  7

 75
16
 76
0
 77
2
 78
300
147
1.0
148
0.0
149
0.0
100
AcDbLayout
  1
Model
 70
1
 71
0
 10
0.0
 20
0.0
 11
420.0
 21
297.0
 12
0.0
 22
0.0
 32
0.0
 14
1e+20
 24
1e+20
 34
1e+20
 15
-1e+20
 25
-1e+20
 35
-1e+20
146
0.0
 13
0.0
 23
0.0
 33
0.0
 16
1.0
 26
0.0
 36
0.0
 17
0.0
 27
1.0
 37
0.0
 76
1
330
17
  0
LAYOUT
  5
1E
330
D
100
AcDbPlotSettings
  1

  4
A3
  6

 40
7.5
 41
20.0
 42
7.5
 43
20.0
 44
420.0
 45
297.0
 46
0.0
 47
0.0
 48
0.0
 49
0.0
140
0.0
141
0.0
142
1.0
143
1.0
 70
0
 72
1
 73
0
 74
5
  7

 75
16
 76
0
 77
2
 78
300
147
1.0
148
0.0
149
0.0
100
AcDbLayout
  1
Layout1
 70
1
 71
1
 10
0.0
 20
0.0
 11
420.0
 21
297.0
 12
0.0
 22
0.0
 32
0.0
 14
1e+20
 24
1e+20
 34
1e+20
 15
-1e+20
 25
-1e+20
 35
-1e+20
146
0.0
 13
0.0
 23
0.0
 33
0.0
 16
1.0
 26
0.0
 36
0.0
 17
0.0
 27
1.0
 37
0.0
 76
1
330
1B
  0
MATERIAL
  5
1F
102
{ACAD_REACTORS
330
E
102
}
330
E
100
AcDbMaterial
  1
ByBlock
  2

 70
0
 40
1.0
 71
1
 41
1.0
 91
-1023410177
 42
1.0
 72
1
  3

 73
1
 74
1
 75
1
 44
0.5
 73
0
 45
1.0
 46
1.0
 77
1
  4

 78
1
 79
1
170
1
 48
1.0
171
1
  6

172
1
173
1
174
1
140
1.0
141
1.0
175
1
  7

176
1
177
1
178
1
143
1.0
179
1
  8

270
1
271
1
272
1
145
1.0
146
1.0
273
1
  9

274
1
275
1
276
1
 42
1.0
 72
1
  3

 73
1
 74
1
 75
1
 94
63
  0
MATERIAL
  5
20
102
{ACAD_REACTORS
330
E
102
}
330
E
100
AcDbMaterial
  1
ByLayer
  2

 70
0
 40
1.0
 71
1
 41
1.0
 91
-1023410177
 42
1.0
 72
1
  3

 73
1
 74
1
 75
1
 44
0.5
 73
0
 45
1.0
 46
1.0
 77
1
  4

 78
1
 79
1
170
1
 48
1.0
171
1
  6

172
1
173
1
174
1
140
1.0
141
1.0
175
1
  7

176
1
177
1
178
1
143
1.0
179
1
  8

270
1
271
1
272
1
145
1.0
146
1.0
273
1
  9

274
1
275
1
276
1
 42
1.0
 72
1
  3

 73
1
 74
1
 75
1
 94
63
  0
MATERIAL
  5
21
102
{ACAD_REACTORS
330
E
102
}
330
E
100
AcDbMaterial
  1
Global
  2

 70
0
 40
1.0
 71
1
 41
1.0
 91
-1023410177
 42
1.0
 72
1
  3

 73
1
 74
1
 75
1
 44
0.5
 73
0
 45
1.0
 46
1.0
 77
1
  4

 78
1
 79
1
170
1
 48
1.0
171
1
  6

172
1
173
1
174
1
140
1.0
141
1.0
175
1
  7

176
1
177
1
178
1
143
1.0
179
1
  8

270
1
271
1
272
1
145
1.0
146
1.0
273
1
  9

274
1
275
1
276
1
 42
1.0
 72
1
  3

 73
1
 74
1
 75
1
 94
63
  0
MLINESTYLE
  5
22
102
{ACAD_REACTORS
330
10
102
}
330
10
100
AcDbMlineStyle
  2
Standard
 70
0
  3

 62
256
 51
90.0
 52
90.0
 71
2
 49
0.5
 62
256
  6
BYLAYER
 49
-0.5
 62
256
  6
BYLAYER
  0
MLEADERSTYLE
  5
2C
102
{ACAD_REACTORS
330
F
102
}
330
F
100
AcDbMLeaderStyle
179
2
170
2
171
1
172
0
 90
2
 40
0.0
 41
0.0
173
1
 91
-1056964608
 92
-2
290
1
 42
2.0
291
1
 43
8.0
  3
Standard
 44
4.0
300

342
29
174
1
175
1
176
0
178
1
 93
-1056964608
 45
4.0
292
0
297
0
 46
4.0
 94
-1056964608
 47
1.0
 49
1.0
140
1.0
294
1
141
0.0
177
0
142
1.0
295
0
296
0
143
3.75
271
0
272
9
273
9
  0
DICTIONARY
  5
2D
330
A
100
AcDbDictionary
281
1
  3
CREATED_BY_EZDXF
350
2E
  3
WRITTEN_BY_EZDXF
350
5D
  0
DICTIONARYVAR
  5
2E
330
2D
100
DictionaryVariables
280
0
  1
1.3.4 @ 2024-12-04T16:31:32.274945+00:00
  0
DICTIONARYVAR
  5
5D
330
2D
100
DictionaryVariables
280
0
  1
1.3.4 @ 2024-12-04T16:31:32.288910+00:00
  0
ENDSEC
  0
EOF
