  0
SECTION
  2
HEADER
  9
$ACADVER
  1
AC1024
  9
$ACADMAINTVER
 70
6
  9
$DWGCODEPAGE
  3
ANSI_1252
  9
$LASTSAVEDBY
  1
ezdxf
  9
$INSBASE
 10
0.0
 20
0.0
 30
0.0
  9
$EXTMIN
 10
1e+20
 20
1e+20
 30
1e+20
  9
$EXTMAX
 10
-1e+20
 20
-1e+20
 30
-1e+20
  9
$LIMMIN
 10
0.0
 20
0.0
  9
$LIMMAX
 10
420.0
 20
297.0
  9
$ORTHOMODE
 70
0
  9
$REGENMODE
 70
1
  9
$FILLMODE
 70
1
  9
$QTEXTMODE
 70
0
  9
$MIRRTEXT
 70
1
  9
$LTSCALE
 40
1.0
  9
$ATTMODE
 70
1
  9
$TEXTSIZE
 40
2.5
  9
$TRACEWID
 40
1.0
  9
$TEXTSTYLE
  7
Standard
  9
$CLAYER
  8
0
  9
$CELTYPE
  6
ByLayer
  9
$CECOLOR
 62
256
  9
$CELTSCALE
 40
1.0
  9
$DISPSILH
 70
0
  9
$DIMSCALE
 40
1.0
  9
$DIMASZ
 40
2.5
  9
$DIMEXO
 40
0.625
  9
$DIMDLI
 40
3.75
  9
$DIMRND
 40
0.0
  9
$DIMDLE
 40
0.0
  9
$DIMEXE
 40
1.25
  9
$DIMTP
 40
0.0
  9
$DIMTM
 40
0.0
  9
$DIMTXT
 40
2.5
  9
$DIMCEN
 40
2.5
  9
$DIMTSZ
 40
0.0
  9
$DIMTOL
 70
0
  9
$DIMLIM
 70
0
  9
$DIMTIH
 70
0
  9
$DIMTOH
 70
0
  9
$DIMSE1
 70
0
  9
$DIMSE2
 70
0
  9
$DIMTAD
 70
1
  9
$DIMZIN
 70
8
  9
$DIMBLK
  1

  9
$DIMASO
 70
1
  9
$DIMSHO
 70
1
  9
$DIMPOST
  1

  9
$DIMAPOST
  1

  9
$DIMALT
 70
0
  9
$DIMALTD
 70
3
  9
$DIMALTF
 40
0.03937007874
  9
$DIMLFAC
 40
1.0
  9
$DIMTOFL
 70
1
  9
$DIMTVP
 40
0.0
  9
$DIMTIX
 70
0
  9
$DIMSOXD
 70
0
  9
$DIMSAH
 70
0
  9
$DIMBLK1
  1

  9
$DIMBLK2
  1

  9
$DIMSTYLE
  2
ISO-25
  9
$DIMCLRD
 70
0
  9
$DIMCLRE
 70
0
  9
$DIMCLRT
 70
0
  9
$DIMTFAC
 40
1.0
  9
$DIMGAP
 40
0.625
  9
$DIMJUST
 70
0
  9
$DIMSD1
 70
0
  9
$DIMSD2
 70
0
  9
$DIMTOLJ
 70
0
  9
$DIMTZIN
 70
8
  9
$DIMALTZ
 70
0
  9
$DIMALTTZ
 70
0
  9
$DIMUPT
 70
0
  9
$DIMDEC
 70
2
  9
$DIMTDEC
 70
2
  9
$DIMALTU
 70
2
  9
$DIMALTTD
 70
3
  9
$DIMTXSTY
  7
Standard
  9
$DIMAUNIT
 70
0
  9
$DIMADEC
 70
0
  9
$DIMALTRND
 40
0.0
  9
$DIMAZIN
 70
0
  9
$DIMDSEP
 70
44
  9
$DIMATFIT
 70
3
  9
$DIMFRAC
 70
0
  9
$DIMLDRBLK
  1

  9
$DIMLUNIT
 70
2
  9
$DIMLWD
 70
-2
  9
$DIMLWE
 70
-2
  9
$DIMTMOVE
 70
0
  9
$DIMFXL
 40
1.0
  9
$DIMFXLON
 70
0
  9
$DIMJOGANG
 40
0.785398163397
  9
$DIMTFILL
 70
0
  9
$DIMTFILLCLR
 70
0
  9
$DIMARCSYM
 70
0
  9
$DIMLTYPE
  6

  9
$DIMLTEX1
  6

  9
$DIMLTEX2
  6

  9
$DIMTXTDIRECTION
 70
0
  9
$LUNITS
 70
2
  9
$LUPREC
 70
4
  9
$SKETCHINC
 40
1.0
  9
$FILLETRAD
 40
10.0
  9
$AUNITS
 70
0
  9
$AUPREC
 70
2
  9
$MENU
  1
.
  9
$ELEVATION
 40
0.0
  9
$PELEVATION
 40
0.0
  9
$THICKNESS
 40
0.0
  9
$LIMCHECK
 70
0
  9
$CHAMFERA
 40
0.0
  9
$CHAMFERB
 40
0.0
  9
$CHAMFERC
 40
0.0
  9
$CHAMFERD
 40
0.0
  9
$SKPOLY
 70
0
  9
$TDCREATE
 40
2460649.396898148
  9
$TDUCREATE
 40
2458532.153996898
  9
$TDUPDATE
 40
2460649.396898148
  9
$TDUUPDATE
 40
2458532.1544311
  9
$TDINDWG
 40
0.0
  9
$TDUSRTIMER
 40
0.0
  9
$USRTIMER
 70
1
  9
$ANGBASE
 50
0.0
  9
$ANGDIR
 70
0
  9
$PDMODE
 70
0
  9
$PDSIZE
 40
0.0
  9
$PLINEWID
 40
0.0
  9
$SPLFRAME
 70
0
  9
$SPLINETYPE
 70
6
  9
$SPLINESEGS
 70
8
  9
$HANDSEED
  5
50
  9
$SURFTAB1
 70
6
  9
$SURFTAB2
 70
6
  9
$SURFTYPE
 70
6
  9
$SURFU
 70
6
  9
$SURFV
 70
6
  9
$UCSBASE
  2

  9
$UCSNAME
  2

  9
$UCSORG
 10
0.0
 20
0.0
 30
0.0
  9
$UCSXDIR
 10
1.0
 20
0.0
 30
0.0
  9
$UCSYDIR
 10
0.0
 20
1.0
 30
0.0
  9
$UCSORTHOREF
  2

  9
$UCSORTHOVIEW
 70
0
  9
$UCSORGTOP
 10
0.0
 20
0.0
 30
0.0
  9
$UCSORGBOTTOM
 10
0.0
 20
0.0
 30
0.0
  9
$UCSORGLEFT
 10
0.0
 20
0.0
 30
0.0
  9
$UCSORGRIGHT
 10
0.0
 20
0.0
 30
0.0
  9
$UCSORGFRONT
 10
0.0
 20
0.0
 30
0.0
  9
$UCSORGBACK
 10
0.0
 20
0.0
 30
0.0
  9
$PUCSBASE
  2

  9
$PUCSNAME
  2

  9
$PUCSORG
 10
0.0
 20
0.0
 30
0.0
  9
$PUCSXDIR
 10
1.0
 20
0.0
 30
0.0
  9
$PUCSYDIR
 10
0.0
 20
1.0
 30
0.0
  9
$PUCSORTHOREF
  2

  9
$PUCSORTHOVIEW
 70
0
  9
$PUCSORGTOP
 10
0.0
 20
0.0
 30
0.0
  9
$PUCSORGBOTTOM
 10
0.0
 20
0.0
 30
0.0
  9
$PUCSORGLEFT
 10
0.0
 20
0.0
 30
0.0
  9
$PUCSORGRIGHT
 10
0.0
 20
0.0
 30
0.0
  9
$PUCSORGFRONT
 10
0.0
 20
0.0
 30
0.0
  9
$PUCSORGBACK
 10
0.0
 20
0.0
 30
0.0
  9
$USERI1
 70
0
  9
$USERI2
 70
0
  9
$USERI3
 70
0
  9
$USERI4
 70
0
  9
$USERI5
 70
0
  9
$USERR1
 40
0.0
  9
$USERR2
 40
0.0
  9
$USERR3
 40
0.0
  9
$USERR4
 40
0.0
  9
$USERR5
 40
0.0
  9
$WORLDVIEW
 70
1
  9
$SHADEDGE
 70
3
  9
$SHADEDIF
 70
70
  9
$TILEMODE
 70
1
  9
$MAXACTVP
 70
64
  9
$PINSBASE
 10
0.0
 20
0.0
 30
0.0
  9
$PLIMCHECK
 70
0
  9
$PEXTMIN
 10
1e+20
 20
1e+20
 30
1e+20
  9
$PEXTMAX
 10
-1e+20
 20
-1e+20
 30
-1e+20
  9
$PLIMMIN
 10
0.0
 20
0.0
  9
$PLIMMAX
 10
420.0
 20
297.0
  9
$UNITMODE
 70
0
  9
$VISRETAIN
 70
1
  9
$PLINEGEN
 70
0
  9
$PSLTSCALE
 70
1
  9
$TREEDEPTH
 70
3020
  9
$CMLSTYLE
  2
Standard
  9
$CMLJUST
 70
0
  9
$CMLSCALE
 40
20.0
  9
$PROXYGRAPHICS
 70
1
  9
$MEASUREMENT
 70
1
  9
$CELWEIGHT
370
-1
  9
$ENDCAPS
280
0
  9
$JOINSTYLE
280
0
  9
$LWDISPLAY
290
0
  9
$INSUNITS
 70
6
  9
$HYPERLINKBASE
  1

  9
$STYLESHEET
  1

  9
$XEDIT
290
1
  9
$CEPSNTYPE
380
0
  9
$PSTYLEMODE
290
1
  9
$FINGERPRINTGUID
  2
{6A3D5597-1497-45C2-AC0E-DA024B684EC9}
  9
$VERSIONGUID
  2
{E143A15C-CC87-4E76-B945-B17C40AF93EF}
  9
$EXTNAMES
290
1
  9
$PSVPSCALE
 40
0.0
  9
$OLESTARTUP
290
0
  9
$SORTENTS
280
127
  9
$INDEXCTL
280
0
  9
$HIDETEXT
280
1
  9
$XCLIPFRAME
280
1
  9
$HALOGAP
280
0
  9
$OBSCOLOR
 70
257
  9
$OBSLTYPE
280
0
  9
$INTERSECTIONDISPLAY
280
0
  9
$INTERSECTIONCOLOR
 70
257
  9
$DIMASSOC
280
2
  9
$PROJECTNAME
  1

  9
$CAMERADISPLAY
290
0
  9
$LENSLENGTH
 40
50.0
  9
$CAMERAHEIGHT
 40
0.0
  9
$STEPSPERSEC
 40
24.0
  9
$STEPSIZE
 40
100.0
  9
$3DDWFPREC
 40
2.0
  9
$PSOLWIDTH
 40
0.005
  9
$PSOLHEIGHT
 40
0.08
  9
$LOFTANG1
 40
1.570796326795
  9
$LOFTANG2
 40
1.570796326795
  9
$LOFTMAG1
 40
0.0
  9
$LOFTMAG2
 40
0.0
  9
$LOFTPARAM
 70
7
  9
$LOFTNORMALS
280
1
  9
$LATITUDE
 40
37.795
  9
$LONGITUDE
 40
-122.394
  9
$NORTHDIRECTION
 40
0.0
  9
$TIMEZONE
 70
-8000
  9
$LIGHTGLYPHDISPLAY
280
1
  9
$TILEMODELIGHTSYNCH
280
1
  9
$CMATERIAL
347
20
  9
$SOLIDHIST
280
0
  9
$SHOWHIST
280
1
  9
$DWFFRAME
280
2
  9
$DGNFRAME
280
2
  9
$REALWORLDSCALE
290
1
  9
$INTERFERECOLOR
 62
256
  9
$CSHADOW
280
0
  9
$SHADOWPLANELOCATION
 40
0.0
  0
ENDSEC
  0
SECTION
  2
CLASSES
  0
CLASS
  1
ACDBDICTIONARYWDFLT
  2
AcDbDictionaryWithDefault
  3
ObjectDBX Classes
 90
0
 91
0
280
0
281
0
  0
CLASS
  1
SUN
  2
AcDbSun
  3
SCENEOE
 90
1153
 91
0
280
0
281
0
  0
CLASS
  1
VISUALSTYLE
  2
AcDbVisualStyle
  3
ObjectDBX Classes
 90
4095
 91
0
280
0
281
0
  0
CLASS
  1
MATERIAL
  2
AcDbMaterial
  3
ObjectDBX Classes
 90
1153
 91
0
280
0
281
0
  0
CLASS
  1
SCALE
  2
AcDbScale
  3
ObjectDBX Classes
 90
1153
 91
0
280
0
281
0
  0
CLASS
  1
TABLESTYLE
  2
AcDbTableStyle
  3
ObjectDBX Classes
 90
4095
 91
0
280
0
281
0
  0
CLASS
  1
MLEADERSTYLE
  2
AcDbMLeaderStyle
  3
ACDB_MLEADERSTYLE_CLASS
 90
4095
 91
0
280
0
281
0
  0
CLASS
  1
DICTIONARYVAR
  2
AcDbDictionaryVar
  3
ObjectDBX Classes
 90
0
 91
0
280
0
281
0
  0
CLASS
  1
CELLSTYLEMAP
  2
AcDbCellStyleMap
  3
ObjectDBX Classes
 90
1152
 91
0
280
0
281
0
  0
CLASS
  1
MENTALRAYRENDERSETTINGS
  2
AcDbMentalRayRenderSettings
  3
SCENEOE
 90
1024
 91
0
280
0
281
0
  0
CLASS
  1
ACDBDETAILVIEWSTYLE
  2
AcDbDetailViewStyle
  3
ObjectDBX Classes
 90
1025
 91
0
280
0
281
0
  0
CLASS
  1
ACDBSECTIONVIEWSTYLE
  2
AcDbSectionViewStyle
  3
ObjectDBX Classes
 90
1025
 91
0
280
0
281
0
  0
CLASS
  1
RASTERVARIABLES
  2
AcDbRasterVariables
  3
ISM
 90
0
 91
0
280
0
281
0
  0
CLASS
  1
ACDBPLACEHOLDER
  2
AcDbPlaceHolder
  3
ObjectDBX Classes
 90
0
 91
0
280
0
281
0
  0
CLASS
  1
LAYOUT
  2
AcDbLayout
  3
ObjectDBX Classes
 90
0
 91
0
280
0
281
0
  0
ENDSEC
  0
SECTION
  2
TABLES
  0
TABLE
  2
VPORT
  5
8
330
0
100
AcDbSymbolTable
 70
1
  0
VPORT
  5
23
330
8
100
AcDbSymbolTableRecord
100
AcDbViewportTableRecord
  2
*Active
 70
0
 10
0.0
 20
0.0
 11
1.0
 21
1.0
 12
0.0
 22
0.0
 13
0.0
 23
0.0
 14
0.5
 24
0.5
 15
0.5
 25
0.5
 16
0.0
 26
0.0
 36
1.0
 17
0.0
 27
0.0
 37
0.0
 40
1000.0
 41
1.34
 42
50.0
 43
0.0
 44
0.0
 50
0.0
 51
0.0
 71
0
 72
1000
 73
1
 74
3
 75
0
 76
0
 77
0
 78
0
281
0
 65
0
146
0.0
  0
ENDTAB
  0
TABLE
  2
LTYPE
  5
2
330
0
100
AcDbSymbolTable
 70
3
  0
LTYPE
  5
24
330
2
100
AcDbSymbolTableRecord
100
AcDbLinetypeTableRecord
  2
ByBlock
 70
0
  3

 72
65
 73
0
 40
0.0
  0
LTYPE
  5
25
330
2
100
AcDbSymbolTableRecord
100
AcDbLinetypeTableRecord
  2
ByLayer
 70
0
  3

 72
65
 73
0
 40
0.0
  0
LTYPE
  5
26
330
2
100
AcDbSymbolTableRecord
100
AcDbLinetypeTableRecord
  2
Continuous
 70
0
  3

 72
65
 73
0
 40
0.0
  0
ENDTAB
  0
TABLE
  2
LAYER
  5
1
330
0
100
AcDbSymbolTable
 70
2
  0
LAYER
  5
27
330
1
100
AcDbSymbolTableRecord
100
AcDbLayerTableRecord
  2
0
 70
0
 62
7
  6
Continuous
370
-3
390
13
347
21
  0
LAYER
  5
28
330
1
100
AcDbSymbolTableRecord
100
AcDbLayerTableRecord
  2
Defpoints
 70
0
 62
7
  6
Continuous
290
0
370
-3
390
13
347
21
  0
ENDTAB
  0
TABLE
  2
STYLE
  5
5
330
0
100
AcDbSymbolTable
 70
1
  0
STYLE
  5
29
330
5
100
AcDbSymbolTableRecord
100
AcDbTextStyleTableRecord
  2
Standard
 70
0
 40
0.0
 41
1.0
 50
0.0
 71
0
 42
2.5
  3
txt
  4

  0
ENDTAB
  0
TABLE
  2
VIEW
  5
7
330
0
100
AcDbSymbolTable
 70
0
  0
ENDTAB
  0
TABLE
  2
UCS
  5
6
330
0
100
AcDbSymbolTable
 70
0
  0
ENDTAB
  0
TABLE
  2
APPID
  5
3
330
0
100
AcDbSymbolTable
 70
3
  0
APPID
  5
2A
330
3
100
AcDbSymbolTableRecord
100
AcDbRegAppTableRecord
  2
ACAD
 70
0
  0
APPID
  5
4D
330
3
100
AcDbSymbolTableRecord
100
AcDbRegAppTableRecord
  2
HATCHBACKGROUNDCOLOR
 70
0
  0
APPID
  5
4E
330
3
100
AcDbSymbolTableRecord
100
AcDbRegAppTableRecord
  2
EZDXF
 70
0
  0
ENDTAB
  0
TABLE
  2
DIMSTYLE
  5
4
330
0
100
AcDbSymbolTable
 70
1
100
AcDbDimStyleTable
  0
DIMSTYLE
105
2B
330
4
100
AcDbSymbolTableRecord
100
AcDbDimStyleTableRecord
  2
Standard
 70
0
 40
1.0
 41
2.5
 42
0.625
 43
3.75
 44
1.25
 45
0.0
 46
0.0
 47
0.0
 48
0.0
 49
2.5
140
2.5
141
2.5
142
0.0
143
0.03937007874
144
1.0
145
0.0
146
1.0
147
0.625
148
0.0
 69
0
 70
0
 71
0
 72
0
 73
0
 74
0
 75
0
 76
0
 77
1
 78
8
 79
3
170
0
171
3
172
1
173
0
174
0
175
0
176
0
177
0
178
0
179
2
271
2
272
2
273
2
274
3
275
0
276
0
277
2
278
44
279
0
280
0
281
0
282
0
283
0
284
8
285
0
286
0
288
0
289
3
290
0
371
-2
372
-2
  0
ENDTAB
  0
TABLE
  2
BLOCK_RECORD
  5
9
330
0
100
AcDbSymbolTable
 70
2
  0
BLOCK_RECORD
  5
17
330
9
100
AcDbSymbolTableRecord
100
AcDbBlockTableRecord
  2
*Model_Space
340
1A
 70
0
280
1
281
0
  0
BLOCK_RECORD
  5
1B
330
9
100
AcDbSymbolTableRecord
100
AcDbBlockTableRecord
  2
*Paper_Space
340
1E
 70
0
280
1
281
0
  0
ENDTAB
  0
ENDSEC
  0
SECTION
  2
BLOCKS
  0
BLOCK
  5
18
330
17
100
AcDbEntity
  8
0
100
AcDbBlockBegin
  2
*Model_Space
 70
0
 10
0.0
 20
0.0
 30
0.0
  3
*Model_Space
  1

  0
ENDBLK
  5
19
330
17
100
AcDbEntity
  8
0
100
AcDbBlockEnd
  0
BLOCK
  5
1C
330
1B
100
AcDbEntity
  8
0
100
AcDbBlockBegin
  2
*Paper_Space
 70
0
 10
0.0
 20
0.0
 30
0.0
  3
*Paper_Space
  1

  0
ENDBLK
  5
1D
330
1B
100
AcDbEntity
  8
0
100
AcDbBlockEnd
  0
ENDSEC
  0
SECTION
  2
ENTITIES
  0
LWPOLYLINE
  5
2F
330
17
100
AcDbEntity
  8
0
100
AcDbPolyline
 90
65
 70
0
 10
-9.707364516975808
 20
-48.52882207939516
 10
-9.564572984118307
 20
-48.564589496401695
 10
-9.425974851452365
 20
-48.614180701233074
 10
-9.292904894761003
 20
-48.677118103477476
 10
-9.166644650470598
 20
-48.75279558154619
 10
-9.048410073754532
 20
-48.840484319955905
 10
-8.939339828220179
 20
-48.939339828220184
 10
-8.840484319955895
 20
-49.04841007375454
 10
-8.752795581546183
 20
-49.1666446504706
 10
-8.677118103477468
 20
-49.29290489476101
 10
-8.614180701233071
 20
-49.425974851452374
 10
-8.564589496401688
 20
-49.564572984118314
 10
-8.528822079395155
 20
-49.707364516975815
 10
-8.507222909991704
 20
-49.85297428950567
 10
-8.5
 20
-50.00000000000001
 10
-8.507222909991704
 20
-50.14702571049435
 10
-8.528822079395155
 20
-50.2926354830242
 10
-8.564589496401688
 20
-50.4354270158817
 10
-8.614180701233071
 20
-50.57402514854764
 10
-8.677118103477467
 20
-50.707095105239006
 10
-8.752795581546183
 20
-50.83335534952941
 10
-8.840484319955895
 20
-50.951589926245475
 10
-8.939339828220179
 20
-51.06066017177983
 10
-9.048410073754532
 20
-51.15951568004411
 10
-9.166644650470596
 20
-51.247204418453826
 10
-9.292904894761003
 20
-51.32288189652254
 10
-9.425974851452365
 20
-51.38581929876694
 10
-9.564572984118307
 20
-51.43541050359832
 10
-9.707364516975808
 20
-51.47117792060485
 10
-9.852974289505658
 20
-51.4927770900083
 10
-10.0
 20
-51.50000000000001
 10
-10.147025710494342
 20
-51.4927770900083
 10
-10.292635483024192
 20
-51.47117792060485
 10
-10.435427015881693
 20
-51.43541050359832
 10
-10.574025148547635
 20
-51.38581929876694
 10
-10.707095105238997
 20
-51.32288189652254
 10
-10.833355349529404
 20
-51.247204418453826
 10
-10.951589926245468
 20
-51.159515680044116
 10
-11.060660171779821
 20
-51.06066017177983
 10
-11.159515680044105
 20
-50.951589926245475
 10
-11.247204418453817
 20
-50.83335534952941
 10
-11.322881896522532
 20
-50.707095105239006
 10
-11.385819298766929
 20
-50.57402514854764
 10
-11.435410503598312
 20
-50.4354270158817
 10
-11.471177920604845
 20
-50.2926354830242
 10
-11.492777090008296
 20
-50.14702571049435
 10
-11.5
 20
-50.00000000000001
 10
-11.492777090008296
 20
-49.85297428950567
 10
-11.471177920604845
 20
-49.707364516975815
 10
-11.435410503598312
 20
-49.564572984118314
 10
-11.38581929876693
 20
-49.425974851452374
 10
-11.322881896522533
 20
-49.29290489476101
 10
-11.24720441845382
 20
-49.1666446504706
 10
-11.159515680044105
 20
-49.04841007375454
 10
-11.060660171779821
 20
-48.939339828220184
 10
-10.951589926245468
 20
-48.840484319955905
 10
-10.833355349529404
 20
-48.75279558154619
 10
-10.707095105238997
 20
-48.677118103477476
 10
-10.574025148547635
 20
-48.614180701233074
 10
-10.435427015881693
 20
-48.564589496401695
 10
-10.292635483024194
 20
-48.52882207939516
 10
-10.14702571049434
 20
-48.50722290999171
 10
-10.0
 20
-48.50000000000001
 10
-9.85297428950566
 20
-48.50722290999171
 10
-9.707364516975808
 20
-48.52882207939516
  0
LWPOLYLINE
  5
30
330
17
100
AcDbEntity
  8
0
100
AcDbPolyline
 90
65
 70
0
 10
10.574025148547635
 20
-48.61418070123307
 10
10.707095105238997
 20
-48.67711810347747
 10
10.833355349529402
 20
-48.75279558154618
 10
10.951589926245468
 20
-48.84048431995589
 10
11.060660171779821
 20
-48.93933982822018
 10
11.159515680044105
 20
-49.04841007375453
 10
11.247204418453817
 20
-49.166644650470595
 10
11.322881896522532
 20
-49.292904894761
 10
11.385819298766929
 20
-49.42597485145237
 10
11.435410503598312
 20
-49.56457298411831
 10
11.471177920604845
 20
-49.70736451697581
 10
11.492777090008296
 20
-49.85297428950566
 10
11.5
 20
-50.0
 10
11.492777090008296
 20
-50.14702571049434
 10
11.471177920604845
 20
-50.29263548302419
 10
11.435410503598312
 20
-50.43542701588169
 10
11.385819298766929
 20
-50.57402514854763
 10
11.322881896522533
 20
-50.707095105239
 10
11.247204418453817
 20
-50.833355349529405
 10
11.159515680044105
 20
-50.95158992624547
 10
11.060660171779821
 20
-51.06066017177982
 10
10.951589926245468
 20
-51.15951568004411
 10
10.833355349529404
 20
-51.24720441845382
 10
10.707095105238997
 20
-51.32288189652253
 10
10.574025148547635
 20
-51.38581929876693
 10
10.435427015881693
 20
-51.43541050359831
 10
10.292635483024192
 20
-51.471177920604845
 10
10.147025710494342
 20
-51.492777090008296
 10
10.0
 20
-51.5
 10
9.852974289505658
 20
-51.492777090008296
 10
9.707364516975808
 20
-51.471177920604845
 10
9.564572984118307
 20
-51.43541050359831
 10
9.425974851452365
 20
-51.38581929876693
 10
9.292904894761003
 20
-51.32288189652253
 10
9.166644650470596
 20
-51.24720441845382
 10
9.048410073754532
 20
-51.15951568004411
 10
8.939339828220179
 20
-51.06066017177982
 10
8.840484319955895
 20
-50.95158992624547
 10
8.752795581546183
 20
-50.833355349529405
 10
8.677118103477468
 20
-50.707095105239
 10
8.614180701233071
 20
-50.57402514854763
 10
8.564589496401688
 20
-50.43542701588169
 10
8.528822079395155
 20
-50.29263548302419
 10
8.507222909991704
 20
-50.14702571049434
 10
8.5
 20
-50.0
 10
8.507222909991704
 20
-49.85297428950566
 10
8.528822079395155
 20
-49.70736451697581
 10
8.564589496401688
 20
-49.56457298411831
 10
8.61418070123307
 20
-49.42597485145237
 10
8.677118103477467
 20
-49.292904894761
 10
8.75279558154618
 20
-49.166644650470595
 10
8.840484319955895
 20
-49.04841007375453
 10
8.939339828220179
 20
-48.93933982822018
 10
9.048410073754532
 20
-48.8404843199559
 10
9.166644650470596
 20
-48.75279558154618
 10
9.292904894761003
 20
-48.67711810347747
 10
9.425974851452365
 20
-48.61418070123307
 10
9.564572984118307
 20
-48.56458949640169
 10
9.707364516975806
 20
-48.528822079395155
 10
9.85297428950566
 20
-48.507222909991704
 10
10.0
 20
-48.5
 10
10.14702571049434
 20
-48.507222909991704
 10
10.292635483024192
 20
-48.528822079395155
 10
10.435427015881693
 20
-48.56458949640169
 10
10.574025148547635
 20
-48.61418070123307
  0
LWPOLYLINE
  5
31
330
17
100
AcDbEntity
  8
0
100
AcDbPolyline
 90
65
 70
0
 10
-53.425974851452374
 20
-32.614180701233074
 10
-53.29290489476101
 20
-32.677118103477476
 10
-53.1666446504706
 20
-32.75279558154619
 10
-53.04841007375454
 20
-32.840484319955905
 10
-52.939339828220184
 20
-32.939339828220184
 10
-52.840484319955905
 20
-33.04841007375454
 10
-52.75279558154619
 20
-33.1666446504706
 10
-52.677118103477476
 20
-33.29290489476101
 10
-52.614180701233074
 20
-33.425974851452374
 10
-52.564589496401695
 20
-33.564572984118314
 10
-52.52882207939516
 20
-33.707364516975815
 10
-52.50722290999171
 20
-33.85297428950567
 10
-52.50000000000001
 20
-34.00000000000001
 10
-52.50722290999171
 20
-34.14702571049435
 10
-52.52882207939516
 20
-34.2926354830242
 10
-52.564589496401695
 20
-34.4354270158817
 10
-52.614180701233074
 20
-34.57402514854764
 10
-52.677118103477476
 20
-34.707095105239006
 10
-52.75279558154619
 20
-34.83335534952941
 10
-52.8404843199559
 20
-34.951589926245475
 10
-52.939339828220184
 20
-35.06066017177983
 10
-53.04841007375454
 20
-35.15951568004411
 10
-53.1666446504706
 20
-35.247204418453826
 10
-53.29290489476101
 20
-35.32288189652254
 10
-53.425974851452374
 20
-35.38581929876694
 10
-53.564572984118314
 20
-35.43541050359832
 10
-53.707364516975815
 20
-35.47117792060485
 10
-53.85297428950567
 20
-35.4927770900083
 10
-54.00000000000001
 20
-35.50000000000001
 10
-54.14702571049435
 20
-35.4927770900083
 10
-54.2926354830242
 20
-35.47117792060485
 10
-54.4354270158817
 20
-35.43541050359832
 10
-54.57402514854764
 20
-35.38581929876694
 10
-54.707095105239006
 20
-35.32288189652254
 10
-54.83335534952941
 20
-35.247204418453826
 10
-54.951589926245475
 20
-35.159515680044116
 10
-55.06066017177983
 20
-35.06066017177983
 10
-55.159515680044116
 20
-34.951589926245475
 10
-55.247204418453826
 20
-34.83335534952941
 10
-55.32288189652254
 20
-34.707095105239006
 10
-55.38581929876694
 20
-34.57402514854764
 10
-55.43541050359832
 20
-34.4354270158817
 10
-55.47117792060485
 20
-34.2926354830242
 10
-55.4927770900083
 20
-34.14702571049435
 10
-55.50000000000001
 20
-34.00000000000001
 10
-55.4927770900083
 20
-33.85297428950567
 10
-55.47117792060485
 20
-33.707364516975815
 10
-55.43541050359832
 20
-33.564572984118314
 10
-55.38581929876694
 20
-33.425974851452374
 10
-55.32288189652254
 20
-33.29290489476101
 10
-55.247204418453826
 20
-33.1666446504706
 10
-55.159515680044116
 20
-33.04841007375454
 10
-55.06066017177983
 20
-32.939339828220184
 10
-54.951589926245475
 20
-32.840484319955905
 10
-54.83335534952941
 20
-32.75279558154619
 10
-54.707095105239006
 20
-32.677118103477476
 10
-54.57402514854764
 20
-32.614180701233074
 10
-54.4354270158817
 20
-32.564589496401695
 10
-54.2926354830242
 20
-32.52882207939516
 10
-54.14702571049435
 20
-32.50722290999171
 10
-54.00000000000001
 20
-32.50000000000001
 10
-53.85297428950567
 20
-32.50722290999171
 10
-53.707364516975815
 20
-32.52882207939516
 10
-53.564572984118314
 20
-32.564589496401695
 10
-53.425974851452374
 20
-32.614180701233074
  0
LWPOLYLINE
  5
32
330
17
100
AcDbEntity
  8
0
100
AcDbPolyline
 90
65
 70
0
 10
-13.166644650470598
 20
-32.75279558154618
 10
-13.048410073754532
 20
-32.84048431995589
 10
-12.939339828220179
 20
-32.93933982822018
 10
-12.840484319955895
 20
-33.04841007375453
 10
-12.752795581546183
 20
-33.166644650470595
 10
-12.677118103477468
 20
-33.292904894761
 10
-12.614180701233071
 20
-33.42597485145237
 10
-12.564589496401688
 20
-33.56457298411831
 10
-12.528822079395155
 20
-33.70736451697581
 10
-12.507222909991704
 20
-33.85297428950566
 10
-12.5
 20
-34.0
 10
-12.507222909991704
 20
-34.14702571049434
 10
-12.528822079395155
 20
-34.29263548302419
 10
-12.564589496401688
 20
-34.43542701588169
 10
-12.614180701233071
 20
-34.57402514854763
 10
-12.677118103477467
 20
-34.707095105239
 10
-12.752795581546183
 20
-34.833355349529405
 10
-12.840484319955895
 20
-34.95158992624547
 10
-12.939339828220179
 20
-35.06066017177982
 10
-13.048410073754532
 20
-35.15951568004411
 10
-13.166644650470596
 20
-35.24720441845382
 10
-13.292904894761003
 20
-35.32288189652253
 10
-13.425974851452365
 20
-35.38581929876693
 10
-13.564572984118307
 20
-35.43541050359831
 10
-13.707364516975808
 20
-35.471177920604845
 10
-13.852974289505658
 20
-35.492777090008296
 10
-14.0
 20
-35.5
 10
-14.147025710494342
 20
-35.492777090008296
 10
-14.292635483024192
 20
-35.471177920604845
 10
-14.435427015881693
 20
-35.43541050359831
 10
-14.574025148547635
 20
-35.38581929876693
 10
-14.707095105238997
 20
-35.32288189652253
 10
-14.833355349529404
 20
-35.24720441845382
 10
-14.951589926245468
 20
-35.15951568004411
 10
-15.060660171779821
 20
-35.06066017177982
 10
-15.159515680044105
 20
-34.95158992624547
 10
-15.247204418453817
 20
-34.833355349529405
 10
-15.322881896522532
 20
-34.707095105239
 10
-15.385819298766929
 20
-34.57402514854763
 10
-15.435410503598312
 20
-34.43542701588169
 10
-15.471177920604845
 20
-34.29263548302419
 10
-15.492777090008296
 20
-34.14702571049434
 10
-15.5
 20
-34.0
 10
-15.492777090008296
 20
-33.85297428950566
 10
-15.471177920604845
 20
-33.70736451697581
 10
-15.435410503598312
 20
-33.56457298411831
 10
-15.38581929876693
 20
-33.42597485145237
 10
-15.322881896522533
 20
-33.292904894761
 10
-15.24720441845382
 20
-33.166644650470595
 10
-15.159515680044105
 20
-33.04841007375453
 10
-15.060660171779821
 20
-32.93933982822018
 10
-14.951589926245468
 20
-32.8404843199559
 10
-14.833355349529404
 20
-32.75279558154618
 10
-14.707095105238997
 20
-32.67711810347747
 10
-14.574025148547635
 20
-32.61418070123307
 10
-14.435427015881693
 20
-32.56458949640169
 10
-14.292635483024194
 20
-32.528822079395155
 10
-14.14702571049434
 20
-32.507222909991704
 10
-14.0
 20
-32.5
 10
-13.85297428950566
 20
-32.507222909991704
 10
-13.707364516975808
 20
-32.528822079395155
 10
-13.564572984118307
 20
-32.56458949640169
 10
-13.425974851452365
 20
-32.61418070123307
 10
-13.292904894761003
 20
-32.67711810347747
 10
-13.166644650470598
 20
-32.75279558154618
  0
LWPOLYLINE
  5
33
330
17
100
AcDbEntity
  8
0
100
AcDbPolyline
 90
65
 70
0
 10
0.8333553495294036
 20
-32.75279558154618
 10
0.9515899262454691
 20
-32.84048431995589
 10
1.0606601717798219
 20
-32.93933982822018
 10
1.1595156800441058
 20
-33.04841007375453
 10
1.2472044184538187
 20
-33.166644650470595
 10
1.3228818965225329
 20
-33.292904894761
 10
1.3858192987669304
 20
-33.42597485145237
 10
1.4354105035983142
 20
-33.56457298411831
 10
1.471177920604846
 20
-33.70736451697581
 10
1.4927770900082962
 20
-33.85297428950566
 10
1.5000000000000009
 20
-34.0
 10
1.4927770900082962
 20
-34.14702571049434
 10
1.4711779206048465
 20
-34.29263548302419
 10
1.4354105035983142
 20
-34.43542701588169
 10
1.3858192987669309
 20
-34.57402514854763
 10
1.3228818965225333
 20
-34.707095105239
 10
1.2472044184538187
 20
-34.833355349529405
 10
1.1595156800441062
 20
-34.95158992624547
 10
1.0606601717798223
 20
-35.06066017177982
 10
0.951589926245469
 20
-35.15951568004411
 10
0.8333553495294043
 20
-35.24720441845382
 10
0.7070951052389974
 20
-35.32288189652253
 10
0.5740251485476355
 20
-35.38581929876693
 10
0.4354270158816943
 20
-35.43541050359831
 10
0.2926354830241933
 20
-35.471177920604845
 10
0.14702571049434193
 20
-35.492777090008296
 10
8.69004627173661e-16
 20
-35.5
 10
-0.14702571049434018
 20
-35.492777090008296
 10
-0.2926354830241915
 20
-35.471177920604845
 10
-0.43542701588169247
 20
-35.43541050359831
 10
-0.5740251485476339
 20
-35.38581929876693
 10
-0.7070951052389958
 20
-35.32288189652253
 10
-0.8333553495294022
 20
-35.24720441845382
 10
-0.9515899262454673
 20
-35.15951568004411
 10
-1.0606601717798205
 20
-35.06066017177982
 10
-1.1595156800441049
 20
-34.95158992624547
 10
-1.2472044184538174
 20
-34.833355349529405
 10
-1.3228818965225315
 20
-34.707095105239
 10
-1.385819298766929
 20
-34.57402514854763
 10
-1.4354105035983125
 20
-34.43542701588169
 10
-1.4711779206048448
 20
-34.29263548302419
 10
-1.4927770900082944
 20
-34.14702571049434
 10
-1.4999999999999991
 20
-34.0
 10
-1.4927770900082944
 20
-33.85297428950566
 10
-1.4711779206048448
 20
-33.70736451697581
 10
-1.4354105035983125
 20
-33.56457298411831
 10
-1.3858192987669296
 20
-33.42597485145237
 10
-1.322881896522532
 20
-33.292904894761
 10
-1.2472044184538174
 20
-33.166644650470595
 10
-1.1595156800441049
 20
-33.04841007375453
 10
-1.0606601717798205
 20
-32.93933982822018
 10
-0.9515899262454681
 20
-32.8404843199559
 10
-0.8333553495294025
 20
-32.75279558154618
 10
-0.707095105238996
 20
-32.67711810347747
 10
-0.5740251485476348
 20
-32.61418070123307
 10
-0.43542701588169286
 20
-32.56458949640169
 10
-0.29263548302419223
 20
-32.528822079395155
 10
-0.1470257104943399
 20
-32.507222909991704
 10
5.016105874294551e-16
 20
-32.5
 10
0.1470257104943409
 20
-32.507222909991704
 10
0.29263548302419323
 20
-32.528822079395155
 10
0.43542701588169386
 20
-32.56458949640169
 10
0.5740251485476358
 20
-32.61418070123307
 10
0.7070951052389972
 20
-32.67711810347747
 10
0.8333553495294036
 20
-32.75279558154618
  0
LWPOLYLINE
  5
34
330
17
100
AcDbEntity
  8
0
100
AcDbPolyline
 90
65
 70
0
 10
14.574025148547635
 20
-32.61418070123307
 10
14.707095105238997
 20
-32.67711810347747
 10
14.833355349529402
 20
-32.75279558154618
 10
14.951589926245468
 20
-32.84048431995589
 10
15.060660171779821
 20
-32.93933982822018
 10
15.159515680044105
 20
-33.04841007375453
 10
15.247204418453817
 20
-33.166644650470595
 10
15.322881896522532
 20
-33.292904894761
 10
15.385819298766929
 20
-33.42597485145237
 10
15.435410503598312
 20
-33.56457298411831
 10
15.471177920604845
 20
-33.70736451697581
 10
15.492777090008296
 20
-33.85297428950566
 10
15.5
 20
-34.0
 10
15.492777090008296
 20
-34.14702571049434
 10
15.471177920604845
 20
-34.29263548302419
 10
15.435410503598312
 20
-34.43542701588169
 10
15.385819298766929
 20
-34.57402514854763
 10
15.322881896522533
 20
-34.707095105239
 10
15.247204418453817
 20
-34.833355349529405
 10
15.159515680044105
 20
-34.95158992624547
 10
15.060660171779821
 20
-35.06066017177982
 10
14.951589926245468
 20
-35.15951568004411
 10
14.833355349529404
 20
-35.24720441845382
 10
14.707095105238997
 20
-35.32288189652253
 10
14.574025148547635
 20
-35.38581929876693
 10
14.435427015881693
 20
-35.43541050359831
 10
14.292635483024192
 20
-35.471177920604845
 10
14.147025710494342
 20
-35.492777090008296
 10
14.0
 20
-35.5
 10
13.852974289505658
 20
-35.492777090008296
 10
13.707364516975808
 20
-35.471177920604845
 10
13.564572984118307
 20
-35.43541050359831
 10
13.425974851452365
 20
-35.38581929876693
 10
13.292904894761003
 20
-35.32288189652253
 10
13.166644650470596
 20
-35.24720441845382
 10
13.048410073754532
 20
-35.15951568004411
 10
12.939339828220179
 20
-35.06066017177982
 10
12.840484319955895
 20
-34.95158992624547
 10
12.752795581546183
 20
-34.833355349529405
 10
12.677118103477468
 20
-34.707095105239
 10
12.614180701233071
 20
-34.57402514854763
 10
12.564589496401688
 20
-34.43542701588169
 10
12.528822079395155
 20
-34.29263548302419
 10
12.507222909991704
 20
-34.14702571049434
 10
12.5
 20
-34.0
 10
12.507222909991704
 20
-33.85297428950566
 10
12.528822079395155
 20
-33.70736451697581
 10
12.564589496401688
 20
-33.56457298411831
 10
12.61418070123307
 20
-33.42597485145237
 10
12.677118103477467
 20
-33.292904894761
 10
12.75279558154618
 20
-33.166644650470595
 10
12.840484319955895
 20
-33.04841007375453
 10
12.939339828220179
 20
-32.93933982822018
 10
13.048410073754532
 20
-32.8404843199559
 10
13.166644650470596
 20
-32.75279558154618
 10
13.292904894761003
 20
-32.67711810347747
 10
13.425974851452365
 20
-32.61418070123307
 10
13.564572984118307
 20
-32.56458949640169
 10
13.707364516975806
 20
-32.528822079395155
 10
13.85297428950566
 20
-32.507222909991704
 10
14.0
 20
-32.5
 10
14.14702571049434
 20
-32.507222909991704
 10
14.292635483024192
 20
-32.528822079395155
 10
14.435427015881693
 20
-32.56458949640169
 10
14.574025148547635
 20
-32.61418070123307
  0
LWPOLYLINE
  5
35
330
17
100
AcDbEntity
  8
0
100
AcDbPolyline
 90
65
 70
0
 10
-53.42597485145237
 20
-4.614180701233069
 10
-53.292904894761
 20
-4.677118103477467
 10
-53.166644650470595
 20
-4.752795581546181
 10
-53.04841007375453
 20
-4.840484319955894
 10
-52.93933982822018
 20
-4.939339828220177
 10
-52.8404843199559
 20
-5.04841007375453
 10
-52.75279558154618
 20
-5.166644650470596
 10
-52.67711810347747
 20
-5.292904894761002
 10
-52.61418070123307
 20
-5.425974851452364
 10
-52.56458949640169
 20
-5.564572984118305
 10
-52.528822079395155
 20
-5.707364516975806
 10
-52.507222909991704
 20
-5.852974289505658
 10
-52.5
 20
-5.999999999999999
 10
-52.507222909991704
 20
-6.14702571049434
 10
-52.528822079395155
 20
-6.292635483024192
 10
-52.56458949640169
 20
-6.435427015881693
 10
-52.61418070123307
 20
-6.5740251485476335
 10
-52.67711810347747
 20
-6.707095105238995
 10
-52.75279558154618
 20
-6.833355349529402
 10
-52.84048431995589
 20
-6.951589926245467
 10
-52.93933982822018
 20
-7.060660171779821
 10
-53.04841007375453
 20
-7.159515680044104
 10
-53.166644650470595
 20
-7.247204418453817
 10
-53.292904894761
 20
-7.3228818965225315
 10
-53.42597485145237
 20
-7.385819298766929
 10
-53.56457298411831
 20
-7.4354105035983125
 10
-53.70736451697581
 20
-7.471177920604845
 10
-53.85297428950566
 20
-7.492777090008294
 10
-54.0
 20
-7.499999999999999
 10
-54.14702571049434
 20
-7.492777090008294
 10
-54.29263548302419
 20
-7.471177920604845
 10
-54.43542701588169
 20
-7.4354105035983125
 10
-54.57402514854763
 20
-7.385819298766929
 10
-54.707095105239
 20
-7.3228818965225315
 10
-54.833355349529405
 20
-7.247204418453817
 10
-54.95158992624547
 20
-7.159515680044105
 10
-55.06066017177982
 20
-7.060660171779821
 10
-55.15951568004411
 20
-6.951589926245467
 10
-55.24720441845382
 20
-6.833355349529402
 10
-55.32288189652253
 20
-6.707095105238996
 10
-55.38581929876693
 20
-6.5740251485476335
 10
-55.43541050359831
 20
-6.435427015881693
 10
-55.471177920604845
 20
-6.292635483024192
 10
-55.492777090008296
 20
-6.14702571049434
 10
-55.5
 20
-5.999999999999999
 10
-55.492777090008296
 20
-5.852974289505658
 10
-55.471177920604845
 20
-5.707364516975806
 10
-55.43541050359831
 20
-5.564572984118306
 10
-55.38581929876693
 20
-5.425974851452365
 10
-55.32288189652253
 20
-5.292904894761003
 10
-55.24720441845382
 20
-5.166644650470596
 10
-55.15951568004411
 20
-5.048410073754531
 10
-55.06066017177982
 20
-4.939339828220178
 10
-54.95158992624547
 20
-4.840484319955895
 10
-54.833355349529405
 20
-4.752795581546181
 10
-54.707095105239
 20
-4.677118103477467
 10
-54.57402514854763
 20
-4.614180701233069
 10
-54.43542701588169
 20
-4.564589496401686
 10
-54.29263548302419
 20
-4.5288220793951535
 10
-54.14702571049434
 20
-4.507222909991704
 10
-54.0
 20
-4.499999999999999
 10
-53.85297428950566
 20
-4.507222909991704
 10
-53.70736451697581
 20
-4.5288220793951535
 10
-53.56457298411831
 20
-4.564589496401686
 10
-53.42597485145237
 20
-4.614180701233069
  0
LWPOLYLINE
  5
36
330
17
100
AcDbEntity
  8
0
100
AcDbPolyline
 90
65
 70
0
 10
54.57402514854763
 20
-4.614180701233069
 10
54.707095105239
 20
-4.677118103477467
 10
54.833355349529405
 20
-4.752795581546181
 10
54.95158992624547
 20
-4.840484319955894
 10
55.06066017177982
 20
-4.939339828220177
 10
55.1595156800441
 20
-5.04841007375453
 10
55.24720441845382
 20
-5.166644650470596
 10
55.32288189652253
 20
-5.292904894761002
 10
55.38581929876693
 20
-5.425974851452364
 10
55.43541050359831
 20
-5.564572984118305
 10
55.471177920604845
 20
-5.707364516975806
 10
55.492777090008296
 20
-5.852974289505658
 10
55.5
 20
-5.999999999999999
 10
55.492777090008296
 20
-6.14702571049434
 10
55.471177920604845
 20
-6.292635483024192
 10
55.43541050359831
 20
-6.435427015881693
 10
55.38581929876693
 20
-6.5740251485476335
 10
55.32288189652253
 20
-6.707095105238995
 10
55.24720441845382
 20
-6.833355349529402
 10
55.15951568004411
 20
-6.951589926245467
 10
55.06066017177982
 20
-7.060660171779821
 10
54.95158992624547
 20
-7.159515680044104
 10
54.833355349529405
 20
-7.247204418453817
 10
54.707095105239
 20
-7.3228818965225315
 10
54.57402514854763
 20
-7.385819298766929
 10
54.43542701588169
 20
-7.4354105035983125
 10
54.29263548302419
 20
-7.471177920604845
 10
54.14702571049434
 20
-7.492777090008294
 10
54.0
 20
-7.499999999999999
 10
53.85297428950566
 20
-7.492777090008294
 10
53.70736451697581
 20
-7.471177920604845
 10
53.56457298411831
 20
-7.4354105035983125
 10
53.42597485145237
 20
-7.385819298766929
 10
53.292904894761
 20
-7.3228818965225315
 10
53.166644650470595
 20
-7.247204418453817
 10
53.04841007375453
 20
-7.159515680044105
 10
52.93933982822018
 20
-7.060660171779821
 10
52.84048431995589
 20
-6.951589926245467
 10
52.75279558154618
 20
-6.833355349529402
 10
52.67711810347747
 20
-6.707095105238996
 10
52.61418070123307
 20
-6.5740251485476335
 10
52.56458949640169
 20
-6.435427015881693
 10
52.528822079395155
 20
-6.292635483024192
 10
52.507222909991704
 20
-6.14702571049434
 10
52.5
 20
-5.999999999999999
 10
52.507222909991704
 20
-5.852974289505658
 10
52.528822079395155
 20
-5.707364516975806
 10
52.56458949640169
 20
-5.564572984118306
 10
52.61418070123307
 20
-5.425974851452365
 10
52.67711810347747
 20
-5.292904894761003
 10
52.75279558154618
 20
-5.166644650470596
 10
52.84048431995589
 20
-5.048410073754531
 10
52.93933982822018
 20
-4.939339828220178
 10
53.04841007375453
 20
-4.840484319955895
 10
53.166644650470595
 20
-4.752795581546181
 10
53.292904894761
 20
-4.677118103477467
 10
53.42597485145237
 20
-4.614180701233069
 10
53.56457298411831
 20
-4.564589496401686
 10
53.70736451697581
 20
-4.5288220793951535
 10
53.85297428950566
 20
-4.507222909991704
 10
54.0
 20
-4.499999999999999
 10
54.14702571049434
 20
-4.507222909991704
 10
54.29263548302419
 20
-4.5288220793951535
 10
54.43542701588169
 20
-4.564589496401686
 10
54.57402514854763
 20
-4.614180701233069
  0
LWPOLYLINE
  5
37
330
17
100
AcDbEntity
  8
0
100
AcDbPolyline
 90
65
 70
0
 10
-53.1666446504706
 20
7.247204418453819
 10
-53.04841007375454
 20
7.159515680044106
 10
-52.939339828220184
 20
7.060660171779823
 10
-52.840484319955905
 20
6.95158992624547
 10
-52.75279558154619
 20
6.833355349529404
 10
-52.677118103477476
 20
6.707095105238998
 10
-52.614180701233074
 20
6.574025148547636
 10
-52.564589496401695
 20
6.435427015881695
 10
-52.52882207939516
 20
6.292635483024194
 10
-52.50722290999171
 20
6.147025710494342
 10
-52.50000000000001
 20
6.000000000000001
 10
-52.50722290999171
 20
5.85297428950566
 10
-52.52882207939516
 20
5.707364516975808
 10
-52.564589496401695
 20
5.564572984118307
 10
-52.614180701233074
 20
5.4259748514523665
 10
-52.677118103477476
 20
5.292904894761005
 10
-52.75279558154619
 20
5.166644650470598
 10
-52.8404843199559
 20
5.048410073754533
 10
-52.939339828220184
 20
4.939339828220179
 10
-53.04841007375454
 20
4.840484319955896
 10
-53.1666446504706
 20
4.752795581546183
 10
-53.29290489476101
 20
4.6771181034774685
 10
-53.425974851452374
 20
4.614180701233071
 10
-53.564572984118314
 20
4.5645894964016875
 10
-53.707364516975815
 20
4.528822079395155
 10
-53.85297428950567
 20
4.507222909991706
 10
-54.00000000000001
 20
4.500000000000001
 10
-54.14702571049435
 20
4.507222909991706
 10
-54.2926354830242
 20
4.528822079395155
 10
-54.4354270158817
 20
4.5645894964016875
 10
-54.57402514854764
 20
4.614180701233071
 10
-54.707095105239006
 20
4.6771181034774685
 10
-54.83335534952941
 20
4.752795581546183
 10
-54.951589926245475
 20
4.840484319955895
 10
-55.06066017177983
 20
4.939339828220179
 10
-55.159515680044116
 20
5.048410073754533
 10
-55.247204418453826
 20
5.166644650470598
 10
-55.32288189652254
 20
5.292904894761004
 10
-55.38581929876694
 20
5.4259748514523665
 10
-55.43541050359832
 20
5.564572984118307
 10
-55.47117792060485
 20
5.707364516975808
 10
-55.4927770900083
 20
5.85297428950566
 10
-55.50000000000001
 20
6.000000000000001
 10
-55.4927770900083
 20
6.147025710494342
 10
-55.47117792060485
 20
6.292635483024194
 10
-55.43541050359832
 20
6.435427015881694
 10
-55.38581929876694
 20
6.574025148547635
 10
-55.32288189652254
 20
6.707095105238997
 10
-55.247204418453826
 20
6.833355349529404
 10
-55.159515680044116
 20
6.951589926245469
 10
-55.06066017177983
 20
7.060660171779822
 10
-54.951589926245475
 20
7.159515680044105
 10
-54.83335534952941
 20
7.247204418453819
 10
-54.707095105239006
 20
7.322881896522533
 10
-54.57402514854764
 20
7.385819298766931
 10
-54.4354270158817
 20
7.435410503598314
 10
-54.2926354830242
 20
7.4711779206048465
 10
-54.14702571049435
 20
7.492777090008296
 10
-54.00000000000001
 20
7.500000000000001
 10
-53.85297428950567
 20
7.492777090008296
 10
-53.707364516975815
 20
7.4711779206048465
 10
-53.564572984118314
 20
7.435410503598314
 10
-53.425974851452374
 20
7.385819298766931
 10
-53.29290489476101
 20
7.322881896522533
 10
-53.1666446504706
 20
7.247204418453819
  0
LWPOLYLINE
  5
38
330
17
100
AcDbEntity
  8
0
100
AcDbPolyline
 90
65
 70
0
 10
-53.1666446504706
 20
35.24720441845382
 10
-53.04841007375454
 20
35.15951568004411
 10
-52.939339828220184
 20
35.06066017177982
 10
-52.840484319955905
 20
34.95158992624547
 10
-52.75279558154619
 20
34.833355349529405
 10
-52.677118103477476
 20
34.707095105239
 10
-52.614180701233074
 20
34.57402514854763
 10
-52.564589496401695
 20
34.43542701588169
 10
-52.52882207939516
 20
34.29263548302419
 10
-52.50722290999171
 20
34.14702571049434
 10
-52.50000000000001
 20
34.0
 10
-52.50722290999171
 20
33.85297428950566
 10
-52.52882207939516
 20
33.70736451697581
 10
-52.564589496401695
 20
33.56457298411831
 10
-52.614180701233074
 20
33.42597485145237
 10
-52.677118103477476
 20
33.292904894761
 10
-52.75279558154619
 20
33.166644650470595
 10
-52.8404843199559
 20
33.04841007375453
 10
-52.939339828220184
 20
32.93933982822018
 10
-53.04841007375454
 20
32.84048431995589
 10
-53.1666446504706
 20
32.75279558154618
 10
-53.29290489476101
 20
32.67711810347747
 10
-53.425974851452374
 20
32.61418070123307
 10
-53.564572984118314
 20
32.56458949640169
 10
-53.707364516975815
 20
32.528822079395155
 10
-53.85297428950567
 20
32.507222909991704
 10
-54.00000000000001
 20
32.5
 10
-54.14702571049435
 20
32.507222909991704
 10
-54.2926354830242
 20
32.528822079395155
 10
-54.4354270158817
 20
32.56458949640169
 10
-54.57402514854764
 20
32.61418070123307
 10
-54.707095105239006
 20
32.67711810347747
 10
-54.83335534952941
 20
32.75279558154618
 10
-54.951589926245475
 20
32.84048431995589
 10
-55.06066017177983
 20
32.93933982822018
 10
-55.159515680044116
 20
33.04841007375453
 10
-55.247204418453826
 20
33.166644650470595
 10
-55.32288189652254
 20
33.292904894761
 10
-55.38581929876694
 20
33.42597485145237
 10
-55.43541050359832
 20
33.56457298411831
 10
-55.47117792060485
 20
33.70736451697581
 10
-55.4927770900083
 20
33.85297428950566
 10
-55.50000000000001
 20
34.0
 10
-55.4927770900083
 20
34.14702571049434
 10
-55.47117792060485
 20
34.29263548302419
 10
-55.43541050359832
 20
34.43542701588169
 10
-55.38581929876694
 20
34.57402514854763
 10
-55.32288189652254
 20
34.707095105239
 10
-55.247204418453826
 20
34.833355349529405
 10
-55.159515680044116
 20
34.95158992624547
 10
-55.06066017177983
 20
35.06066017177982
 10
-54.951589926245475
 20
35.1595156800441
 10
-54.83335534952941
 20
35.24720441845382
 10
-54.707095105239006
 20
35.32288189652253
 10
-54.57402514854764
 20
35.38581929876693
 10
-54.4354270158817
 20
35.43541050359831
 10
-54.2926354830242
 20
35.471177920604845
 10
-54.14702571049435
 20
35.492777090008296
 10
-54.00000000000001
 20
35.5
 10
-53.85297428950567
 20
35.492777090008296
 10
-53.707364516975815
 20
35.471177920604845
 10
-53.564572984118314
 20
35.43541050359831
 10
-53.425974851452374
 20
35.38581929876693
 10
-53.29290489476101
 20
35.32288189652253
 10
-53.1666446504706
 20
35.24720441845382
  0
LWPOLYLINE
  5
39
330
17
100
AcDbEntity
  8
0
100
AcDbPolyline
 90
65
 70
0
 10
-13.425974851452365
 20
35.38581929876693
 10
-13.292904894761003
 20
35.32288189652253
 10
-13.166644650470598
 20
35.24720441845382
 10
-13.048410073754532
 20
35.15951568004411
 10
-12.939339828220179
 20
35.06066017177982
 10
-12.840484319955895
 20
34.95158992624547
 10
-12.752795581546183
 20
34.833355349529405
 10
-12.677118103477468
 20
34.707095105239
 10
-12.614180701233071
 20
34.57402514854763
 10
-12.564589496401688
 20
34.43542701588169
 10
-12.528822079395155
 20
34.29263548302419
 10
-12.507222909991704
 20
34.14702571049434
 10
-12.5
 20
34.0
 10
-12.507222909991704
 20
33.85297428950566
 10
-12.528822079395155
 20
33.70736451697581
 10
-12.564589496401688
 20
33.56457298411831
 10
-12.614180701233071
 20
33.42597485145237
 10
-12.677118103477467
 20
33.292904894761
 10
-12.752795581546183
 20
33.166644650470595
 10
-12.840484319955895
 20
33.04841007375453
 10
-12.939339828220179
 20
32.93933982822018
 10
-13.048410073754532
 20
32.84048431995589
 10
-13.166644650470596
 20
32.75279558154618
 10
-13.292904894761003
 20
32.67711810347747
 10
-13.425974851452365
 20
32.61418070123307
 10
-13.564572984118307
 20
32.56458949640169
 10
-13.707364516975808
 20
32.528822079395155
 10
-13.852974289505658
 20
32.507222909991704
 10
-14.0
 20
32.5
 10
-14.147025710494342
 20
32.507222909991704
 10
-14.292635483024192
 20
32.528822079395155
 10
-14.435427015881693
 20
32.56458949640169
 10
-14.574025148547635
 20
32.61418070123307
 10
-14.707095105238997
 20
32.67711810347747
 10
-14.833355349529404
 20
32.75279558154618
 10
-14.951589926245468
 20
32.84048431995589
 10
-15.060660171779821
 20
32.93933982822018
 10
-15.159515680044105
 20
33.04841007375453
 10
-15.247204418453817
 20
33.166644650470595
 10
-15.322881896522532
 20
33.292904894761
 10
-15.385819298766929
 20
33.42597485145237
 10
-15.435410503598312
 20
33.56457298411831
 10
-15.471177920604845
 20
33.70736451697581
 10
-15.492777090008296
 20
33.85297428950566
 10
-15.5
 20
34.0
 10
-15.492777090008296
 20
34.14702571049434
 10
-15.471177920604845
 20
34.29263548302419
 10
-15.435410503598312
 20
34.43542701588169
 10
-15.38581929876693
 20
34.57402514854763
 10
-15.322881896522533
 20
34.707095105239
 10
-15.24720441845382
 20
34.833355349529405
 10
-15.159515680044105
 20
34.95158992624547
 10
-15.060660171779821
 20
35.06066017177982
 10
-14.951589926245468
 20
35.1595156800441
 10
-14.833355349529404
 20
35.24720441845382
 10
-14.707095105238997
 20
35.32288189652253
 10
-14.574025148547635
 20
35.38581929876693
 10
-14.435427015881693
 20
35.43541050359831
 10
-14.292635483024194
 20
35.471177920604845
 10
-14.14702571049434
 20
35.492777090008296
 10
-14.0
 20
35.5
 10
-13.85297428950566
 20
35.492777090008296
 10
-13.707364516975808
 20
35.471177920604845
 10
-13.564572984118307
 20
35.43541050359831
 10
-13.425974851452365
 20
35.38581929876693
  0
LWPOLYLINE
  5
3A
330
17
100
AcDbEntity
  8
0
100
AcDbPolyline
 90
65
 70
0
 10
0.8333553495294032
 20
35.24720441845382
 10
0.9515899262454687
 20
35.15951568004411
 10
1.0606601717798214
 20
35.06066017177982
 10
1.1595156800441053
 20
34.95158992624547
 10
1.2472044184538182
 20
34.833355349529405
 10
1.3228818965225326
 20
34.707095105239
 10
1.3858192987669302
 20
34.57402514854763
 10
1.4354105035983138
 20
34.43542701588169
 10
1.4711779206048459
 20
34.29263548302419
 10
1.4927770900082957
 20
34.14702571049434
 10
1.5000000000000004
 20
34.0
 10
1.4927770900082957
 20
33.85297428950566
 10
1.471177920604846
 20
33.70736451697581
 10
1.4354105035983138
 20
33.56457298411831
 10
1.3858192987669304
 20
33.42597485145237
 10
1.322881896522533
 20
33.292904894761
 10
1.2472044184538182
 20
33.166644650470595
 10
1.159515680044106
 20
33.04841007375453
 10
1.0606601717798219
 20
32.93933982822018
 10
0.9515899262454686
 20
32.84048431995589
 10
0.8333553495294038
 20
32.75279558154618
 10
0.707095105238997
 20
32.67711810347747
 10
0.5740251485476351
 20
32.61418070123307
 10
0.43542701588169386
 20
32.56458949640169
 10
0.29263548302419284
 20
32.528822079395155
 10
0.1470257104943415
 20
32.507222909991704
 10
4.249154173235985e-16
 20
32.5
 10
-0.14702571049434063
 20
32.507222909991704
 10
-0.29263548302419196
 20
32.528822079395155
 10
-0.4354270158816929
 20
32.56458949640169
 10
-0.5740251485476343
 20
32.61418070123307
 10
-0.7070951052389962
 20
32.67711810347747
 10
-0.8333553495294026
 20
32.75279558154618
 10
-0.9515899262454678
 20
32.84048431995589
 10
-1.0606601717798207
 20
32.93933982822018
 10
-1.159515680044105
 20
33.04841007375453
 10
-1.2472044184538176
 20
33.166644650470595
 10
-1.322881896522532
 20
33.292904894761
 10
-1.3858192987669296
 20
33.42597485145237
 10
-1.435410503598313
 20
33.56457298411831
 10
-1.4711779206048452
 20
33.70736451697581
 10
-1.4927770900082948
 20
33.85297428950566
 10
-1.4999999999999996
 20
34.0
 10
-1.4927770900082948
 20
34.14702571049434
 10
-1.4711779206048452
 20
34.29263548302419
 10
-1.435410503598313
 20
34.43542701588169
 10
-1.3858192987669298
 20
34.57402514854763
 10
-1.3228818965225322
 20
34.707095105239
 10
-1.2472044184538178
 20
34.833355349529405
 10
-1.1595156800441053
 20
34.95158992624547
 10
-1.060660171779821
 20
35.06066017177982
 10
-0.9515899262454686
 20
35.1595156800441
 10
-0.8333553495294029
 20
35.24720441845382
 10
-0.7070951052389964
 20
35.32288189652253
 10
-0.5740251485476352
 20
35.38581929876693
 10
-0.4354270158816933
 20
35.43541050359831
 10
-0.2926354830241927
 20
35.471177920604845
 10
-0.14702571049434035
 20
35.492777090008296
 10
5.752137757939253e-17
 20
35.5
 10
0.14702571049434046
 20
35.492777090008296
 10
0.2926354830241928
 20
35.471177920604845
 10
0.4354270158816934
 20
35.43541050359831
 10
0.5740251485476353
 20
35.38581929876693
 10
0.7070951052389968
 20
35.32288189652253
 10
0.8333553495294032
 20
35.24720441845382
  0
LWPOLYLINE
  5
3B
330
17
100
AcDbEntity
  8
0
100
AcDbPolyline
 90
65
 70
0
 10
14.833355349529402
 20
35.24720441845382
 10
14.951589926245468
 20
35.15951568004411
 10
15.060660171779821
 20
35.06066017177982
 10
15.159515680044105
 20
34.95158992624547
 10
15.247204418453817
 20
34.833355349529405
 10
15.322881896522532
 20
34.707095105239
 10
15.385819298766929
 20
34.57402514854763
 10
15.435410503598312
 20
34.43542701588169
 10
15.471177920604845
 20
34.29263548302419
 10
15.492777090008296
 20
34.14702571049434
 10
15.5
 20
34.0
 10
15.492777090008296
 20
33.85297428950566
 10
15.471177920604845
 20
33.70736451697581
 10
15.435410503598312
 20
33.56457298411831
 10
15.385819298766929
 20
33.42597485145237
 10
15.322881896522533
 20
33.292904894761
 10
15.247204418453817
 20
33.166644650470595
 10
15.159515680044105
 20
33.04841007375453
 10
15.060660171779821
 20
32.93933982822018
 10
14.951589926245468
 20
32.84048431995589
 10
14.833355349529404
 20
32.75279558154618
 10
14.707095105238997
 20
32.67711810347747
 10
14.574025148547635
 20
32.61418070123307
 10
14.435427015881693
 20
32.56458949640169
 10
14.292635483024192
 20
32.528822079395155
 10
14.147025710494342
 20
32.507222909991704
 10
14.0
 20
32.5
 10
13.852974289505658
 20
32.507222909991704
 10
13.707364516975808
 20
32.528822079395155
 10
13.564572984118307
 20
32.56458949640169
 10
13.425974851452365
 20
32.61418070123307
 10
13.292904894761003
 20
32.67711810347747
 10
13.166644650470596
 20
32.75279558154618
 10
13.048410073754532
 20
32.84048431995589
 10
12.939339828220179
 20
32.93933982822018
 10
12.840484319955895
 20
33.04841007375453
 10
12.752795581546183
 20
33.166644650470595
 10
12.677118103477468
 20
33.292904894761
 10
12.614180701233071
 20
33.42597485145237
 10
12.564589496401688
 20
33.56457298411831
 10
12.528822079395155
 20
33.70736451697581
 10
12.507222909991704
 20
33.85297428950566
 10
12.5
 20
34.0
 10
12.507222909991704
 20
34.14702571049434
 10
12.528822079395155
 20
34.29263548302419
 10
12.564589496401688
 20
34.43542701588169
 10
12.61418070123307
 20
34.57402514854763
 10
12.677118103477467
 20
34.707095105239
 10
12.75279558154618
 20
34.833355349529405
 10
12.840484319955895
 20
34.95158992624547
 10
12.939339828220179
 20
35.06066017177982
 10
13.048410073754532
 20
35.1595156800441
 10
13.166644650470596
 20
35.24720441845382
 10
13.292904894761003
 20
35.32288189652253
 10
13.425974851452365
 20
35.38581929876693
 10
13.564572984118307
 20
35.43541050359831
 10
13.707364516975806
 20
35.471177920604845
 10
13.85297428950566
 20
35.492777090008296
 10
14.0
 20
35.5
 10
14.14702571049434
 20
35.492777090008296
 10
14.292635483024192
 20
35.471177920604845
 10
14.435427015881693
 20
35.43541050359831
 10
14.574025148547635
 20
35.38581929876693
 10
14.707095105238997
 20
35.32288189652253
 10
14.833355349529402
 20
35.24720441845382
  0
LWPOLYLINE
  5
3C
330
17
100
AcDbEntity
  8
0
100
AcDbPolyline
 90
65
 70
0
 10
10.833355349529402
 20
51.24720441845382
 10
10.951589926245468
 20
51.15951568004411
 10
11.060660171779821
 20
51.06066017177982
 10
11.159515680044105
 20
50.95158992624547
 10
11.247204418453817
 20
50.833355349529405
 10
11.322881896522532
 20
50.707095105239
 10
11.385819298766929
 20
50.57402514854763
 10
11.435410503598312
 20
50.43542701588169
 10
11.471177920604845
 20
50.29263548302419
 10
11.492777090008296
 20
50.14702571049434
 10
11.5
 20
50.0
 10
11.492777090008296
 20
49.85297428950566
 10
11.471177920604845
 20
49.70736451697581
 10
11.435410503598312
 20
49.56457298411831
 10
11.385819298766929
 20
49.42597485145237
 10
11.322881896522533
 20
49.292904894761
 10
11.247204418453817
 20
49.166644650470595
 10
11.159515680044105
 20
49.04841007375453
 10
11.060660171779821
 20
48.93933982822018
 10
10.951589926245468
 20
48.84048431995589
 10
10.833355349529404
 20
48.75279558154618
 10
10.707095105238997
 20
48.67711810347747
 10
10.574025148547635
 20
48.61418070123307
 10
10.435427015881693
 20
48.56458949640169
 10
10.292635483024192
 20
48.528822079395155
 10
10.147025710494342
 20
48.507222909991704
 10
10.0
 20
48.5
 10
9.852974289505658
 20
48.507222909991704
 10
9.707364516975808
 20
48.528822079395155
 10
9.564572984118307
 20
48.56458949640169
 10
9.425974851452365
 20
48.61418070123307
 10
9.292904894761003
 20
48.67711810347747
 10
9.166644650470596
 20
48.75279558154618
 10
9.048410073754532
 20
48.84048431995589
 10
8.939339828220179
 20
48.93933982822018
 10
8.840484319955895
 20
49.04841007375453
 10
8.752795581546183
 20
49.166644650470595
 10
8.677118103477468
 20
49.292904894761
 10
8.614180701233071
 20
49.42597485145237
 10
8.564589496401688
 20
49.56457298411831
 10
8.528822079395155
 20
49.70736451697581
 10
8.507222909991704
 20
49.85297428950566
 10
8.5
 20
50.0
 10
8.507222909991704
 20
50.14702571049434
 10
8.528822079395155
 20
50.29263548302419
 10
8.564589496401688
 20
50.43542701588169
 10
8.61418070123307
 20
50.57402514854763
 10
8.677118103477467
 20
50.707095105239
 10
8.75279558154618
 20
50.833355349529405
 10
8.840484319955895
 20
50.95158992624547
 10
8.939339828220179
 20
51.06066017177982
 10
9.048410073754532
 20
51.1595156800441
 10
9.166644650470596
 20
51.24720441845382
 10
9.292904894761003
 20
51.32288189652253
 10
9.425974851452365
 20
51.38581929876693
 10
9.564572984118307
 20
51.43541050359831
 10
9.707364516975806
 20
51.471177920604845
 10
9.85297428950566
 20
51.492777090008296
 10
10.0
 20
51.5
 10
10.14702571049434
 20
51.492777090008296
 10
10.292635483024192
 20
51.471177920604845
 10
10.435427015881693
 20
51.43541050359831
 10
10.574025148547635
 20
51.38581929876693
 10
10.707095105238997
 20
51.32288189652253
 10
10.833355349529402
 20
51.24720441845382
  0
LWPOLYLINE
  5
3D
330
17
100
AcDbEntity
  8
0
100
AcDbPolyline
 90
65
 70
0
 10
-9.425974851452365
 20
51.38581929876694
 10
-9.292904894761003
 20
51.32288189652254
 10
-9.166644650470598
 20
51.247204418453826
 10
-9.048410073754532
 20
51.15951568004411
 10
-8.939339828220179
 20
51.06066017177983
 10
-8.840484319955895
 20
50.951589926245475
 10
-8.752795581546183
 20
50.83335534952941
 10
-8.677118103477468
 20
50.707095105239006
 10
-8.614180701233071
 20
50.57402514854764
 10
-8.564589496401688
 20
50.4354270158817
 10
-8.528822079395155
 20
50.2926354830242
 10
-8.507222909991704
 20
50.14702571049435
 10
-8.5
 20
50.00000000000001
 10
-8.507222909991704
 20
49.85297428950567
 10
-8.528822079395155
 20
49.707364516975815
 10
-8.564589496401688
 20
49.564572984118314
 10
-8.614180701233071
 20
49.425974851452374
 10
-8.677118103477467
 20
49.29290489476101
 10
-8.752795581546183
 20
49.1666446504706
 10
-8.840484319955895
 20
49.04841007375454
 10
-8.939339828220179
 20
48.939339828220184
 10
-9.048410073754532
 20
48.840484319955905
 10
-9.166644650470596
 20
48.75279558154619
 10
-9.292904894761003
 20
48.677118103477476
 10
-9.425974851452365
 20
48.614180701233074
 10
-9.564572984118307
 20
48.564589496401695
 10
-9.707364516975808
 20
48.52882207939516
 10
-9.852974289505658
 20
48.50722290999171
 10
-10.0
 20
48.50000000000001
 10
-10.147025710494342
 20
48.50722290999171
 10
-10.292635483024192
 20
48.52882207939516
 10
-10.435427015881693
 20
48.564589496401695
 10
-10.574025148547635
 20
48.614180701233074
 10
-10.707095105238997
 20
48.677118103477476
 10
-10.833355349529404
 20
48.75279558154619
 10
-10.951589926245468
 20
48.8404843199559
 10
-11.060660171779821
 20
48.939339828220184
 10
-11.159515680044105
 20
49.04841007375454
 10
-11.247204418453817
 20
49.1666446504706
 10
-11.322881896522532
 20
49.29290489476101
 10
-11.385819298766929
 20
49.425974851452374
 10
-11.435410503598312
 20
49.564572984118314
 10
-11.471177920604845
 20
49.707364516975815
 10
-11.492777090008296
 20
49.85297428950567
 10
-11.5
 20
50.00000000000001
 10
-11.492777090008296
 20
50.14702571049435
 10
-11.471177920604845
 20
50.2926354830242
 10
-11.435410503598312
 20
50.4354270158817
 10
-11.38581929876693
 20
50.57402514854764
 10
-11.322881896522533
 20
50.707095105239006
 10
-11.24720441845382
 20
50.83335534952941
 10
-11.159515680044105
 20
50.951589926245475
 10
-11.060660171779821
 20
51.06066017177983
 10
-10.951589926245468
 20
51.15951568004411
 10
-10.833355349529404
 20
51.247204418453826
 10
-10.707095105238997
 20
51.32288189652254
 10
-10.574025148547635
 20
51.38581929876694
 10
-10.435427015881693
 20
51.43541050359832
 10
-10.292635483024194
 20
51.47117792060485
 10
-10.14702571049434
 20
51.4927770900083
 10
-10.0
 20
51.50000000000001
 10
-9.85297428950566
 20
51.4927770900083
 10
-9.707364516975808
 20
51.47117792060485
 10
-9.564572984118307
 20
51.43541050359832
 10
-9.425974851452365
 20
51.38581929876694
  0
LWPOLYLINE
  5
3E
330
17
100
AcDbEntity
  8
0
100
AcDbPolyline
 90
65
 70
0
 10
54.57402514854764
 20
-32.61418070123307
 10
54.707095105239006
 20
-32.67711810347747
 10
54.83335534952941
 20
-32.75279558154618
 10
54.951589926245475
 20
-32.84048431995589
 10
55.06066017177983
 20
-32.93933982822018
 10
55.15951568004411
 20
-33.04841007375453
 10
55.247204418453826
 20
-33.166644650470595
 10
55.32288189652254
 20
-33.292904894761
 10
55.38581929876694
 20
-33.42597485145237
 10
55.43541050359832
 20
-33.56457298411831
 10
55.47117792060485
 20
-33.70736451697581
 10
55.4927770900083
 20
-33.85297428950566
 10
55.50000000000001
 20
-34.0
 10
55.4927770900083
 20
-34.14702571049434
 10
55.47117792060485
 20
-34.29263548302419
 10
55.43541050359832
 20
-34.43542701588169
 10
55.38581929876694
 20
-34.57402514854763
 10
55.32288189652254
 20
-34.707095105239
 10
55.247204418453826
 20
-34.833355349529405
 10
55.159515680044116
 20
-34.95158992624547
 10
55.06066017177983
 20
-35.06066017177982
 10
54.951589926245475
 20
-35.15951568004411
 10
54.83335534952941
 20
-35.24720441845382
 10
54.707095105239006
 20
-35.32288189652253
 10
54.57402514854764
 20
-35.38581929876693
 10
54.4354270158817
 20
-35.43541050359831
 10
54.2926354830242
 20
-35.471177920604845
 10
54.14702571049435
 20
-35.492777090008296
 10
54.00000000000001
 20
-35.5
 10
53.85297428950567
 20
-35.492777090008296
 10
53.707364516975815
 20
-35.471177920604845
 10
53.564572984118314
 20
-35.43541050359831
 10
53.425974851452374
 20
-35.38581929876693
 10
53.29290489476101
 20
-35.32288189652253
 10
53.1666446504706
 20
-35.24720441845382
 10
53.04841007375454
 20
-35.15951568004411
 10
52.939339828220184
 20
-35.06066017177982
 10
52.8404843199559
 20
-34.95158992624547
 10
52.75279558154619
 20
-34.833355349529405
 10
52.677118103477476
 20
-34.707095105239
 10
52.614180701233074
 20
-34.57402514854763
 10
52.564589496401695
 20
-34.43542701588169
 10
52.52882207939516
 20
-34.29263548302419
 10
52.50722290999171
 20
-34.14702571049434
 10
52.50000000000001
 20
-34.0
 10
52.50722290999171
 20
-33.85297428950566
 10
52.52882207939516
 20
-33.70736451697581
 10
52.564589496401695
 20
-33.56457298411831
 10
52.614180701233074
 20
-33.42597485145237
 10
52.677118103477476
 20
-33.292904894761
 10
52.75279558154619
 20
-33.166644650470595
 10
52.8404843199559
 20
-33.04841007375453
 10
52.939339828220184
 20
-32.93933982822018
 10
53.04841007375454
 20
-32.8404843199559
 10
53.1666446504706
 20
-32.75279558154618
 10
53.29290489476101
 20
-32.67711810347747
 10
53.425974851452374
 20
-32.61418070123307
 10
53.564572984118314
 20
-32.56458949640169
 10
53.707364516975815
 20
-32.528822079395155
 10
53.85297428950567
 20
-32.507222909991704
 10
54.00000000000001
 20
-32.5
 10
54.14702571049435
 20
-32.507222909991704
 10
54.2926354830242
 20
-32.528822079395155
 10
54.4354270158817
 20
-32.56458949640169
 10
54.57402514854764
 20
-32.61418070123307
  0
LWPOLYLINE
  5
3F
330
17
100
AcDbEntity
  8
0
100
AcDbPolyline
 90
65
 70
0
 10
136.57402514854763
 20
-32.61418070123307
 10
136.707095105239
 20
-32.67711810347747
 10
136.8333553495294
 20
-32.75279558154618
 10
136.95158992624548
 20
-32.84048431995589
 10
137.06066017177983
 20
-32.93933982822018
 10
137.1595156800441
 20
-33.04841007375453
 10
137.2472044184538
 20
-33.166644650470595
 10
137.32288189652255
 20
-33.292904894761
 10
137.38581929876693
 20
-33.42597485145237
 10
137.43541050359832
 20
-33.56457298411831
 10
137.47117792060484
 20
-33.70736451697581
 10
137.4927770900083
 20
-33.85297428950566
 10
137.5
 20
-34.0
 10
137.4927770900083
 20
-34.14702571049434
 10
137.47117792060484
 20
-34.29263548302419
 10
137.43541050359832
 20
-34.43542701588169
 10
137.38581929876693
 20
-34.57402514854763
 10
137.32288189652255
 20
-34.707095105239
 10
137.2472044184538
 20
-34.833355349529405
 10
137.1595156800441
 20
-34.95158992624547
 10
137.06066017177983
 20
-35.06066017177982
 10
136.95158992624548
 20
-35.15951568004411
 10
136.8333553495294
 20
-35.24720441845382
 10
136.707095105239
 20
-35.32288189652253
 10
136.57402514854763
 20
-35.38581929876693
 10
136.4354270158817
 20
-35.43541050359831
 10
136.29263548302418
 20
-35.471177920604845
 10
136.14702571049435
 20
-35.492777090008296
 10
136.0
 20
-35.5
 10
135.85297428950565
 20
-35.492777090008296
 10
135.70736451697582
 20
-35.471177920604845
 10
135.5645729841183
 20
-35.43541050359831
 10
135.42597485145237
 20
-35.38581929876693
 10
135.292904894761
 20
-35.32288189652253
 10
135.1666446504706
 20
-35.24720441845382
 10
135.04841007375452
 20
-35.15951568004411
 10
134.93933982822017
 20
-35.06066017177982
 10
134.8404843199559
 20
-34.95158992624547
 10
134.7527955815462
 20
-34.833355349529405
 10
134.67711810347745
 20
-34.707095105239
 10
134.61418070123307
 20
-34.57402514854763
 10
134.56458949640168
 20
-34.43542701588169
 10
134.52882207939516
 20
-34.29263548302419
 10
134.5072229099917
 20
-34.14702571049434
 10
134.5
 20
-34.0
 10
134.5072229099917
 20
-33.85297428950566
 10
134.52882207939516
 20
-33.70736451697581
 10
134.56458949640168
 20
-33.56457298411831
 10
134.61418070123307
 20
-33.42597485145237
 10
134.67711810347745
 20
-33.292904894761
 10
134.7527955815462
 20
-33.166644650470595
 10
134.8404843199559
 20
-33.04841007375453
 10
134.93933982822017
 20
-32.93933982822018
 10
135.04841007375452
 20
-32.8404843199559
 10
135.1666446504706
 20
-32.75279558154618
 10
135.292904894761
 20
-32.67711810347747
 10
135.42597485145237
 20
-32.61418070123307
 10
135.5645729841183
 20
-32.56458949640169
 10
135.70736451697582
 20
-32.528822079395155
 10
135.85297428950565
 20
-32.507222909991704
 10
136.0
 20
-32.5
 10
136.14702571049435
 20
-32.507222909991704
 10
136.29263548302418
 20
-32.528822079395155
 10
136.4354270158817
 20
-32.56458949640169
 10
136.57402514854763
 20
-32.61418070123307
  0
LWPOLYLINE
  5
40
330
17
100
AcDbEntity
  8
0
100
AcDbPolyline
 90
21
 70
0
 10
60.858413357035566
 20
-18.061731656763488
 10
60.86602540378444
 20
-18.099999999999998
 10
60.86602540378444
 20
-21.900000000000002
 10
60.858413357035566
 20
-21.938268343236512
 10
60.8367360819031
 20
-21.970710678118657
 10
60.80429374702095
 20
-21.992387953251132
 10
60.76602540378444
 20
-22.000000000000004
 10
59.23397459621556
 20
-22.000000000000004
 10
59.19570625297905
 20
-21.992387953251132
 10
59.1632639180969
 20
-21.970710678118657
 10
59.141586642964434
 20
-21.938268343236512
 10
59.13397459621556
 20
-21.900000000000002
 10
59.13397459621556
 20
-18.099999999999998
 10
59.141586642964434
 20
-18.061731656763488
 10
59.1632639180969
 20
-18.029289321881343
 10
59.19570625297905
 20
-18.007612046748868
 10
59.23397459621556
 20
-17.999999999999996
 10
60.76602540378444
 20
-17.999999999999996
 10
60.80429374702095
 20
-18.007612046748868
 10
60.8367360819031
 20
-18.029289321881343
 10
60.858413357035566
 20
-18.061731656763488
  0
LWPOLYLINE
  5
41
330
17
100
AcDbEntity
  8
0
100
AcDbPolyline
 90
21
 70
0
 10
75.23397459621557
 20
-17.999999999999996
 10
76.76602540378443
 20
-17.999999999999996
 10
76.80429374702094
 20
-18.007612046748868
 10
76.83673608190308
 20
-18.029289321881343
 10
76.85841335703556
 20
-18.061731656763488
 10
76.86602540378442
 20
-18.099999999999998
 10
76.86602540378442
 20
-21.900000000000002
 10
76.85841335703556
 20
-21.938268343236512
 10
76.83673608190308
 20
-21.970710678118657
 10
76.80429374702094
 20
-21.992387953251132
 10
76.76602540378443
 20
-22.000000000000004
 10
75.23397459621557
 20
-22.000000000000004
 10
75.19570625297906
 20
-21.992387953251132
 10
75.16326391809692
 20
-21.970710678118657
 10
75.14158664296444
 20
-21.938268343236512
 10
75.13397459621558
 20
-21.900000000000002
 10
75.13397459621558
 20
-18.099999999999998
 10
75.14158664296444
 20
-18.061731656763488
 10
75.16326391809692
 20
-18.029289321881343
 10
75.19570625297906
 20
-18.007612046748868
 10
75.23397459621557
 20
-17.999999999999996
  0
LWPOLYLINE
  5
42
330
17
100
AcDbEntity
  8
0
100
AcDbPolyline
 90
21
 70
0
 10
196.85841335703557
 20
-18.061731656763488
 10
196.86602540378445
 20
-18.099999999999998
 10
196.86602540378445
 20
-21.900000000000002
 10
196.85841335703557
 20
-21.938268343236512
 10
196.8367360819031
 20
-21.970710678118657
 10
196.80429374702095
 20
-21.992387953251132
 10
196.76602540378445
 20
-22.000000000000004
 10
195.23397459621555
 20
-22.000000000000004
 10
195.19570625297905
 20
-21.992387953251132
 10
195.1632639180969
 20
-21.970710678118657
 10
195.14158664296443
 20
-21.938268343236512
 10
195.13397459621555
 20
-21.900000000000002
 10
195.13397459621555
 20
-18.099999999999998
 10
195.14158664296443
 20
-18.061731656763488
 10
195.1632639180969
 20
-18.029289321881343
 10
195.19570625297905
 20
-18.007612046748868
 10
195.23397459621555
 20
-17.999999999999996
 10
196.76602540378445
 20
-17.999999999999996
 10
196.80429374702095
 20
-18.007612046748868
 10
196.8367360819031
 20
-18.029289321881343
 10
196.85841335703557
 20
-18.061731656763488
  0
LWPOLYLINE
  5
43
330
17
100
AcDbEntity
  8
0
100
AcDbPolyline
 90
65
 70
0
 10
71.33342139811761
 20
4.988817673815273
 10
71.80635970498187
 20
4.638062720176421
 10
72.24264068711929
 20
4.242640687119286
 10
72.63806272017642
 20
3.8063597049818756
 10
72.98881767381528
 20
3.333421398117613
 10
73.29152758609013
 20
2.8283804209559875
 10
73.54327719506772
 20
2.296100594190542
 10
73.74164201439325
 20
1.741708063526775
 10
73.88471168241938
 20
1.1705419320967723
 10
73.97110836003318
 20
0.5881028419773631
 10
74.0
 20
0.0
 10
73.97110836003318
 20
-0.5881028419773636
 10
73.88471168241938
 20
-1.1705419320967696
 10
73.74164201439325
 20
-1.741708063526774
 10
73.54327719506772
 20
-2.2961005941905386
 10
73.29152758609013
 20
-2.8283804209559857
 10
72.98881767381528
 20
-3.333421398117613
 10
72.63806272017642
 20
-3.806359704981873
 10
72.24264068711929
 20
-4.242640687119286
 10
71.80635970498187
 20
-4.638062720176421
 10
71.33342139811761
 20
-4.988817673815271
 10
70.82838042095598
 20
-5.29152758609013
 10
70.29610059419053
 20
-5.54327719506772
 10
69.74170806352677
 20
-5.741642014393253
 10
69.17054193209677
 20
-5.884711682419383
 10
68.58810284197736
 20
-5.971108360033181
 10
68.0
 20
-6.0
 10
67.41189715802264
 20
-5.971108360033181
 10
66.82945806790323
 20
-5.884711682419383
 10
66.25829193647323
 20
-5.741642014393253
 10
65.70389940580947
 20
-5.54327719506772
 10
65.17161957904402
 20
-5.2915275860901305
 10
64.66657860188239
 20
-4.988817673815272
 10
64.19364029501813
 20
-4.638062720176423
 10
63.757359312880716
 20
-4.242640687119286
 10
63.36193727982358
 20
-3.806359704981873
 10
63.01118232618473
 20
-3.333421398117613
 10
62.708472413909874
 20
-2.8283804209559866
 10
62.456722804932284
 20
-2.2961005941905395
 10
62.25835798560675
 20
-1.7417080635267743
 10
62.11528831758062
 20
-1.1705419320967716
 10
62.028891639966815
 20
-0.588102841977365
 10
62.0
 20
-7.347880794884119e-16
 10
62.028891639966815
 20
0.5881028419773635
 10
62.11528831758062
 20
1.17054193209677
 10
62.25835798560675
 20
1.7417080635267728
 10
62.45672280493228
 20
2.296100594190538
 10
62.70847241390987
 20
2.8283804209559857
 10
63.01118232618472
 20
3.3334213981176117
 10
63.36193727982358
 20
3.8063597049818716
 10
63.757359312880716
 20
4.242640687119285
 10
64.19364029501813
 20
4.6380627201764195
 10
64.66657860188239
 20
4.988817673815271
 10
65.17161957904402
 20
5.29152758609013
 10
65.70389940580945
 20
5.543277195067719
 10
66.25829193647323
 20
5.741642014393253
 10
66.82945806790323
 20
5.884711682419382
 10
67.41189715802264
 20
5.971108360033181
 10
68.0
 20
6.0
 10
68.58810284197736
 20
5.971108360033181
 10
69.17054193209677
 20
5.884711682419383
 10
69.74170806352677
 20
5.741642014393253
 10
70.29610059419053
 20
5.54327719506772
 10
70.82838042095598
 20
5.2915275860901305
 10
71.33342139811761
 20
4.988817673815273
  0
LWPOLYLINE
  5
44
330
17
100
AcDbEntity
  8
0
100
AcDbPolyline
 90
5
 70
0
 10
229.3078528040323
 20
78.3078528040323
 10
229.3078528040323
 20
-78.3078528040323
 10
-77.3078528040323
 20
-78.3078528040323
 10
-77.3078528040323
 20
78.3078528040323
 10
229.3078528040323
 20
78.3078528040323
  0
LWPOLYLINE
  5
45
330
17
100
AcDbEntity
  8
0
100
AcDbPolyline
 90
29
 70
0
 10
59.13397459621556
 20
-40.0
 10
60.86602540378444
 20
-40.0
 10
75.13397459621557
 20
-40.0
 10
76.86602540378443
 20
-40.0
 10
195.13397459621555
 20
-40.0
 10
196.86602540378445
 20
-40.0
 10
211.13397459621555
 20
-40.0
 10
212.0
 20
-40.0
 10
212.0
 20
40.0
 10
211.13397459621555
 20
40.0
 10
196.86602540378445
 20
40.0
 10
195.13397459621555
 20
40.0
 10
76.86602540378443
 20
40.0
 10
75.13397459621557
 20
40.0
 10
60.86602540378444
 20
40.0
 10
59.13397459621556
 20
40.0
 10
20.0
 20
40.0
 10
20.0
 20
60.0
 10
-20.0
 20
60.0
 10
-20.0
 20
40.0
 10
-59.13397459621556
 20
40.0
 10
-60.0
 20
40.0
 10
-60.0
 20
-40.0
 10
-59.13397459621556
 20
-40.0
 10
-20.0
 20
-40.0
 10
-20.0
 20
-60.0
 10
20.0
 20
-60.0
 10
20.0
 20
-40.0
 10
59.13397459621556
 20
-40.0
  0
LWPOLYLINE
  5
46
330
17
100
AcDbEntity
  8
0
100
AcDbPolyline
 90
65
 70
0
 10
206.29610059419053
 20
5.54327719506772
 10
206.828380420956
 20
5.2915275860901305
 10
207.33342139811762
 20
4.988817673815273
 10
207.80635970498187
 20
4.638062720176421
 10
208.2426406871193
 20
4.242640687119286
 10
208.6380627201764
 20
3.8063597049818756
 10
208.98881767381528
 20
3.333421398117613
 10
209.29152758609013
 20
2.8283804209559875
 10
209.54327719506773
 20
2.296100594190542
 10
209.74164201439325
 20
1.741708063526775
 10
209.88471168241938
 20
1.1705419320967723
 10
209.97110836003318
 20
0.5881028419773631
 10
210.0
 20
0.0
 10
209.97110836003318
 20
-0.5881028419773636
 10
209.88471168241938
 20
-1.1705419320967696
 10
209.74164201439325
 20
-1.741708063526774
 10
209.54327719506773
 20
-2.2961005941905386
 10
209.29152758609013
 20
-2.8283804209559857
 10
208.98881767381528
 20
-3.333421398117613
 10
208.63806272017644
 20
-3.806359704981873
 10
208.2426406871193
 20
-4.242640687119286
 10
207.80635970498187
 20
-4.638062720176421
 10
207.33342139811762
 20
-4.988817673815271
 10
206.828380420956
 20
-5.29152758609013
 10
206.29610059419053
 20
-5.54327719506772
 10
205.74170806352677
 20
-5.741642014393253
 10
205.17054193209677
 20
-5.884711682419383
 10
204.58810284197736
 20
-5.971108360033181
 10
204.0
 20
-6.0
 10
203.41189715802264
 20
-5.971108360033181
 10
202.82945806790323
 20
-5.884711682419383
 10
202.25829193647323
 20
-5.741642014393253
 10
201.70389940580947
 20
-5.54327719506772
 10
201.171619579044
 20
-5.2915275860901305
 10
200.66657860188238
 20
-4.988817673815272
 10
200.19364029501813
 20
-4.638062720176423
 10
199.7573593128807
 20
-4.242640687119286
 10
199.36193727982356
 20
-3.806359704981873
 10
199.01118232618472
 20
-3.333421398117613
 10
198.70847241390987
 20
-2.8283804209559866
 10
198.45672280493227
 20
-2.2961005941905395
 10
198.25835798560675
 20
-1.7417080635267743
 10
198.11528831758062
 20
-1.1705419320967716
 10
198.02889163996682
 20
-0.588102841977365
 10
198.0
 20
-7.347880794884119e-16
 10
198.02889163996682
 20
0.5881028419773635
 10
198.11528831758062
 20
1.17054193209677
 10
198.25835798560675
 20
1.7417080635267728
 10
198.45672280493227
 20
2.296100594190538
 10
198.70847241390987
 20
2.8283804209559857
 10
199.01118232618472
 20
3.3334213981176117
 10
199.36193727982356
 20
3.8063597049818716
 10
199.7573593128807
 20
4.242640687119285
 10
200.19364029501813
 20
4.6380627201764195
 10
200.66657860188238
 20
4.988817673815271
 10
201.171619579044
 20
5.29152758609013
 10
201.70389940580947
 20
5.543277195067719
 10
202.25829193647323
 20
5.741642014393253
 10
202.82945806790323
 20
5.884711682419382
 10
203.41189715802264
 20
5.971108360033181
 10
204.0
 20
6.0
 10
204.58810284197736
 20
5.971108360033181
 10
205.17054193209677
 20
5.884711682419383
 10
205.74170806352677
 20
5.741642014393253
 10
206.29610059419053
 20
5.54327719506772
  0
LWPOLYLINE
  5
47
330
17
100
AcDbEntity
  8
0
100
AcDbPolyline
 90
65
 70
0
 10
54.833355349529405
 20
7.247204418453818
 10
54.95158992624547
 20
7.159515680044105
 10
55.06066017177982
 20
7.060660171779821
 10
55.1595156800441
 20
6.951589926245469
 10
55.24720441845382
 20
6.833355349529404
 10
55.32288189652253
 20
6.707095105238997
 10
55.38581929876693
 20
6.574025148547635
 10
55.43541050359831
 20
6.435427015881694
 10
55.471177920604845
 20
6.292635483024193
 10
55.492777090008296
 20
6.147025710494341
 10
55.5
 20
6.0
 10
55.492777090008296
 20
5.852974289505659
 10
55.471177920604845
 20
5.707364516975808
 10
55.43541050359831
 20
5.564572984118307
 10
55.38581929876693
 20
5.425974851452366
 10
55.32288189652253
 20
5.292904894761003
 10
55.24720441845382
 20
5.166644650470596
 10
55.15951568004411
 20
5.048410073754532
 10
55.06066017177982
 20
4.939339828220179
 10
54.95158992624547
 20
4.840484319955895
 10
54.833355349529405
 20
4.752795581546183
 10
54.707095105239
 20
4.677118103477468
 10
54.57402514854763
 20
4.61418070123307
 10
54.43542701588169
 20
4.564589496401687
 10
54.29263548302419
 20
4.528822079395154
 10
54.14702571049434
 20
4.507222909991705
 10
54.0
 20
4.5
 10
53.85297428950566
 20
4.507222909991705
 10
53.70736451697581
 20
4.528822079395154
 10
53.56457298411831
 20
4.564589496401687
 10
53.42597485145237
 20
4.61418070123307
 10
53.292904894761
 20
4.677118103477468
 10
53.166644650470595
 20
4.752795581546182
 10
53.04841007375453
 20
4.840484319955895
 10
52.93933982822018
 20
4.939339828220179
 10
52.84048431995589
 20
5.048410073754532
 10
52.75279558154618
 20
5.166644650470596
 10
52.67711810347747
 20
5.292904894761003
 10
52.61418070123307
 20
5.425974851452365
 10
52.56458949640169
 20
5.564572984118306
 10
52.528822079395155
 20
5.707364516975807
 10
52.507222909991704
 20
5.852974289505659
 10
52.5
 20
6.0
 10
52.507222909991704
 20
6.147025710494341
 10
52.528822079395155
 20
6.292635483024193
 10
52.56458949640169
 20
6.435427015881693
 10
52.61418070123307
 20
6.574025148547634
 10
52.67711810347747
 20
6.707095105238997
 10
52.75279558154618
 20
6.833355349529403
 10
52.84048431995589
 20
6.951589926245468
 10
52.93933982822018
 20
7.060660171779821
 10
53.04841007375453
 20
7.159515680044105
 10
53.166644650470595
 20
7.247204418453817
 10
53.292904894761
 20
7.322881896522532
 10
53.42597485145237
 20
7.38581929876693
 10
53.56457298411831
 20
7.435410503598313
 10
53.70736451697581
 20
7.471177920604846
 10
53.85297428950566
 20
7.492777090008295
 10
54.0
 20
7.5
 10
54.14702571049434
 20
7.492777090008295
 10
54.29263548302419
 20
7.471177920604846
 10
54.43542701588169
 20
7.435410503598313
 10
54.57402514854763
 20
7.38581929876693
 10
54.707095105239
 20
7.322881896522532
 10
54.833355349529405
 20
7.247204418453818
  0
LWPOLYLINE
  5
48
330
17
100
AcDbEntity
  8
0
100
AcDbPolyline
 90
21
 70
0
 10
60.858413357035566
 20
21.938268343236512
 10
60.86602540378444
 20
21.900000000000002
 10
60.86602540378444
 20
18.099999999999998
 10
60.858413357035566
 20
18.061731656763488
 10
60.8367360819031
 20
18.029289321881343
 10
60.80429374702095
 20
18.007612046748868
 10
60.76602540378444
 20
17.999999999999996
 10
59.23397459621556
 20
17.999999999999996
 10
59.19570625297905
 20
18.007612046748868
 10
59.1632639180969
 20
18.029289321881343
 10
59.141586642964434
 20
18.061731656763488
 10
59.13397459621556
 20
18.099999999999998
 10
59.13397459621556
 20
21.900000000000002
 10
59.141586642964434
 20
21.938268343236512
 10
59.1632639180969
 20
21.970710678118657
 10
59.19570625297905
 20
21.992387953251132
 10
59.23397459621556
 20
22.000000000000004
 10
60.76602540378444
 20
22.000000000000004
 10
60.80429374702095
 20
21.992387953251132
 10
60.8367360819031
 20
21.970710678118657
 10
60.858413357035566
 20
21.938268343236512
  0
LWPOLYLINE
  5
49
330
17
100
AcDbEntity
  8
0
100
AcDbPolyline
 90
21
 70
0
 10
75.23397459621557
 20
22.000000000000004
 10
76.76602540378443
 20
22.000000000000004
 10
76.80429374702094
 20
21.992387953251132
 10
76.83673608190308
 20
21.970710678118657
 10
76.85841335703556
 20
21.938268343236512
 10
76.86602540378442
 20
21.900000000000002
 10
76.86602540378442
 20
18.099999999999998
 10
76.85841335703556
 20
18.061731656763488
 10
76.83673608190308
 20
18.029289321881343
 10
76.80429374702094
 20
18.007612046748868
 10
76.76602540378443
 20
17.999999999999996
 10
75.23397459621557
 20
17.999999999999996
 10
75.19570625297906
 20
18.007612046748868
 10
75.16326391809692
 20
18.029289321881343
 10
75.14158664296444
 20
18.061731656763488
 10
75.13397459621558
 20
18.099999999999998
 10
75.13397459621558
 20
21.900000000000002
 10
75.14158664296444
 20
21.938268343236512
 10
75.16326391809692
 20
21.970710678118657
 10
75.19570625297906
 20
21.992387953251132
 10
75.23397459621557
 20
22.000000000000004
  0
LWPOLYLINE
  5
4A
330
17
100
AcDbEntity
  8
0
100
AcDbPolyline
 90
21
 70
0
 10
196.85841335703557
 20
21.938268343236512
 10
196.86602540378445
 20
21.900000000000002
 10
196.86602540378445
 20
18.099999999999998
 10
196.85841335703557
 20
18.061731656763488
 10
196.8367360819031
 20
18.029289321881343
 10
196.80429374702095
 20
18.007612046748868
 10
196.76602540378445
 20
17.999999999999996
 10
195.23397459621555
 20
17.999999999999996
 10
195.19570625297905
 20
18.007612046748868
 10
195.1632639180969
 20
18.029289321881343
 10
195.14158664296443
 20
18.061731656763488
 10
195.13397459621555
 20
18.099999999999998
 10
195.13397459621555
 20
21.900000000000002
 10
195.14158664296443
 20
21.938268343236512
 10
195.1632639180969
 20
21.970710678118657
 10
195.19570625297905
 20
21.992387953251132
 10
195.23397459621555
 20
22.000000000000004
 10
196.76602540378445
 20
22.000000000000004
 10
196.80429374702095
 20
21.992387953251132
 10
196.8367360819031
 20
21.970710678118657
 10
196.85841335703557
 20
21.938268343236512
  0
LWPOLYLINE
  5
4B
330
17
100
AcDbEntity
  8
0
100
AcDbPolyline
 90
65
 70
0
 10
54.57402514854763
 20
35.38581929876693
 10
54.707095105239
 20
35.32288189652253
 10
54.833355349529405
 20
35.24720441845382
 10
54.95158992624547
 20
35.15951568004411
 10
55.06066017177982
 20
35.06066017177982
 10
55.1595156800441
 20
34.95158992624547
 10
55.24720441845382
 20
34.833355349529405
 10
55.32288189652253
 20
34.707095105239
 10
55.38581929876693
 20
34.57402514854763
 10
55.43541050359831
 20
34.43542701588169
 10
55.471177920604845
 20
34.29263548302419
 10
55.492777090008296
 20
34.14702571049434
 10
55.5
 20
34.0
 10
55.492777090008296
 20
33.85297428950566
 10
55.471177920604845
 20
33.70736451697581
 10
55.43541050359831
 20
33.56457298411831
 10
55.38581929876693
 20
33.42597485145237
 10
55.32288189652253
 20
33.292904894761
 10
55.24720441845382
 20
33.166644650470595
 10
55.15951568004411
 20
33.04841007375453
 10
55.06066017177982
 20
32.93933982822018
 10
54.95158992624547
 20
32.84048431995589
 10
54.833355349529405
 20
32.75279558154618
 10
54.707095105239
 20
32.67711810347747
 10
54.57402514854763
 20
32.61418070123307
 10
54.43542701588169
 20
32.56458949640169
 10
54.29263548302419
 20
32.528822079395155
 10
54.14702571049434
 20
32.507222909991704
 10
54.0
 20
32.5
 10
53.85297428950566
 20
32.507222909991704
 10
53.70736451697581
 20
32.528822079395155
 10
53.56457298411831
 20
32.56458949640169
 10
53.42597485145237
 20
32.61418070123307
 10
53.292904894761
 20
32.67711810347747
 10
53.166644650470595
 20
32.75279558154618
 10
53.04841007375453
 20
32.84048431995589
 10
52.93933982822018
 20
32.93933982822018
 10
52.84048431995589
 20
33.04841007375453
 10
52.75279558154618
 20
33.166644650470595
 10
52.67711810347747
 20
33.292904894761
 10
52.61418070123307
 20
33.42597485145237
 10
52.56458949640169
 20
33.56457298411831
 10
52.528822079395155
 20
33.70736451697581
 10
52.507222909991704
 20
33.85297428950566
 10
52.5
 20
34.0
 10
52.507222909991704
 20
34.14702571049434
 10
52.528822079395155
 20
34.29263548302419
 10
52.56458949640169
 20
34.43542701588169
 10
52.61418070123307
 20
34.57402514854763
 10
52.67711810347747
 20
34.707095105239
 10
52.75279558154618
 20
34.833355349529405
 10
52.84048431995589
 20
34.95158992624547
 10
52.93933982822018
 20
35.06066017177982
 10
53.04841007375453
 20
35.1595156800441
 10
53.166644650470595
 20
35.24720441845382
 10
53.292904894761
 20
35.32288189652253
 10
53.42597485145237
 20
35.38581929876693
 10
53.56457298411831
 20
35.43541050359831
 10
53.70736451697581
 20
35.471177920604845
 10
53.85297428950566
 20
35.492777090008296
 10
54.0
 20
35.5
 10
54.14702571049434
 20
35.492777090008296
 10
54.29263548302419
 20
35.471177920604845
 10
54.43542701588169
 20
35.43541050359831
 10
54.57402514854763
 20
35.38581929876693
  0
LWPOLYLINE
  5
4C
330
17
100
AcDbEntity
  8
0
100
AcDbPolyline
 90
65
 70
0
 10
136.8333553495294
 20
35.24720441845382
 10
136.95158992624548
 20
35.15951568004411
 10
137.06066017177983
 20
35.06066017177982
 10
137.1595156800441
 20
34.95158992624547
 10
137.2472044184538
 20
34.833355349529405
 10
137.32288189652255
 20
34.707095105239
 10
137.38581929876693
 20
34.57402514854763
 10
137.43541050359832
 20
34.43542701588169
 10
137.47117792060484
 20
34.29263548302419
 10
137.4927770900083
 20
34.14702571049434
 10
137.5
 20
34.0
 10
137.4927770900083
 20
33.85297428950566
 10
137.47117792060484
 20
33.70736451697581
 10
137.43541050359832
 20
33.56457298411831
 10
137.38581929876693
 20
33.42597485145237
 10
137.32288189652255
 20
33.292904894761
 10
137.2472044184538
 20
33.166644650470595
 10
137.1595156800441
 20
33.04841007375453
 10
137.06066017177983
 20
32.93933982822018
 10
136.95158992624548
 20
32.84048431995589
 10
136.8333553495294
 20
32.75279558154618
 10
136.707095105239
 20
32.67711810347747
 10
136.57402514854763
 20
32.61418070123307
 10
136.4354270158817
 20
32.56458949640169
 10
136.29263548302418
 20
32.528822079395155
 10
136.14702571049435
 20
32.507222909991704
 10
136.0
 20
32.5
 10
135.85297428950565
 20
32.507222909991704
 10
135.70736451697582
 20
32.528822079395155
 10
135.5645729841183
 20
32.56458949640169
 10
135.42597485145237
 20
32.61418070123307
 10
135.292904894761
 20
32.67711810347747
 10
135.1666446504706
 20
32.75279558154618
 10
135.04841007375452
 20
32.84048431995589
 10
134.93933982822017
 20
32.93933982822018
 10
134.8404843199559
 20
33.04841007375453
 10
134.7527955815462
 20
33.166644650470595
 10
134.67711810347745
 20
33.292904894761
 10
134.61418070123307
 20
33.42597485145237
 10
134.56458949640168
 20
33.56457298411831
 10
134.52882207939516
 20
33.70736451697581
 10
134.5072229099917
 20
33.85297428950566
 10
134.5
 20
34.0
 10
134.5072229099917
 20
34.14702571049434
 10
134.52882207939516
 20
34.29263548302419
 10
134.56458949640168
 20
34.43542701588169
 10
134.61418070123307
 20
34.57402514854763
 10
134.67711810347745
 20
34.707095105239
 10
134.7527955815462
 20
34.833355349529405
 10
134.8404843199559
 20
34.95158992624547
 10
134.93933982822017
 20
35.06066017177982
 10
135.04841007375452
 20
35.1595156800441
 10
135.1666446504706
 20
35.24720441845382
 10
135.292904894761
 20
35.32288189652253
 10
135.42597485145237
 20
35.38581929876693
 10
135.5645729841183
 20
35.43541050359831
 10
135.70736451697582
 20
35.471177920604845
 10
135.85297428950565
 20
35.492777090008296
 10
136.0
 20
35.5
 10
136.14702571049435
 20
35.492777090008296
 10
136.29263548302418
 20
35.471177920604845
 10
136.4354270158817
 20
35.43541050359831
 10
136.57402514854763
 20
35.38581929876693
 10
136.707095105239
 20
35.32288189652253
 10
136.8333553495294
 20
35.24720441845382
  0
ENDSEC
  0
SECTION
  2
OBJECTS
  0
DICTIONARY
  5
A
330
0
100
AcDbDictionary
280
0
281
1
  3
ACAD_COLOR
350
B
  3
ACAD_GROUP
350
C
  3
ACAD_LAYOUT
350
D
  3
ACAD_MATERIAL
350
E
  3
ACAD_MLEADERSTYLE
350
F
  3
ACAD_MLINESTYLE
350
10
  3
ACAD_PLOTSETTINGS
350
11
  3
ACAD_PLOTSTYLENAME
350
12
  3
ACAD_SCALELIST
350
14
  3
ACAD_TABLESTYLE
350
15
  3
ACAD_VISUALSTYLE
350
16
  3
EZDXF_META
350
2D
  0
DICTIONARY
  5
B
330
A
100
AcDbDictionary
280
0
281
1
  0
DICTIONARY
  5
C
330
A
100
AcDbDictionary
280
0
281
1
  0
DICTIONARY
  5
D
330
A
100
AcDbDictionary
280
0
281
1
  3
Model
350
1A
  3
Layout1
350
1E
  0
DICTIONARY
  5
E
330
A
100
AcDbDictionary
280
0
281
1
  3
ByBlock
350
1F
  3
ByLayer
350
20
  3
Global
350
21
  0
DICTIONARY
  5
F
330
A
100
AcDbDictionary
280
0
281
1
  3
Standard
350
2C
  0
DICTIONARY
  5
10
330
A
100
AcDbDictionary
280
0
281
1
  3
Standard
350
22
  0
DICTIONARY
  5
11
330
A
100
AcDbDictionary
280
0
281
1
  0
ACDBDICTIONARYWDFLT
  5
12
330
A
100
AcDbDictionary
280
0
281
1
  3
Normal
350
13
100
AcDbDictionaryWithDefault
340
13
  0
ACDBPLACEHOLDER
  5
13
330
12
  0
DICTIONARY
  5
14
330
A
100
AcDbDictionary
280
0
281
1
  0
DICTIONARY
  5
15
330
A
100
AcDbDictionary
280
0
281
1
  0
DICTIONARY
  5
16
330
A
100
AcDbDictionary
280
0
281
1
  0
LAYOUT
  5
1A
330
D
100
AcDbPlotSettings
  1

  4
A3
  6

 40
7.5
 41
20.0
 42
7.5
 43
20.0
 44
420.0
 45
297.0
 46
0.0
 47
0.0
 48
0.0
 49
0.0
140
0.0
141
0.0
142
1.0
143
1.0
 70
1024
 72
1
 73
0
 74
5
  7

 75
16
 76
0
 77
2
 78
300
147
1.0
148
0.0
149
0.0
100
AcDbLayout
  1
Model
 70
1
 71
0
 10
0.0
 20
0.0
 11
420.0
 21
297.0
 12
0.0
 22
0.0
 32
0.0
 14
1e+20
 24
1e+20
 34
1e+20
 15
-1e+20
 25
-1e+20
 35
-1e+20
146
0.0
 13
0.0
 23
0.0
 33
0.0
 16
1.0
 26
0.0
 36
0.0
 17
0.0
 27
1.0
 37
0.0
 76
1
330
17
  0
LAYOUT
  5
1E
330
D
100
AcDbPlotSettings
  1

  4
A3
  6

 40
7.5
 41
20.0
 42
7.5
 43
20.0
 44
420.0
 45
297.0
 46
0.0
 47
0.0
 48
0.0
 49
0.0
140
0.0
141
0.0
142
1.0
143
1.0
 70
0
 72
1
 73
0
 74
5
  7

 75
16
 76
0
 77
2
 78
300
147
1.0
148
0.0
149
0.0
100
AcDbLayout
  1
Layout1
 70
1
 71
1
 10
0.0
 20
0.0
 11
420.0
 21
297.0
 12
0.0
 22
0.0
 32
0.0
 14
1e+20
 24
1e+20
 34
1e+20
 15
-1e+20
 25
-1e+20
 35
-1e+20
146
0.0
 13
0.0
 23
0.0
 33
0.0
 16
1.0
 26
0.0
 36
0.0
 17
0.0
 27
1.0
 37
0.0
 76
1
330
1B
  0
MATERIAL
  5
1F
102
{ACAD_REACTORS
330
E
102
}
330
E
100
AcDbMaterial
  1
ByBlock
  2

 70
0
 40
1.0
 71
1
 41
1.0
 91
-1023410177
 42
1.0
 72
1
  3

 73
1
 74
1
 75
1
 44
0.5
 73
0
 45
1.0
 46
1.0
 77
1
  4

 78
1
 79
1
170
1
 48
1.0
171
1
  6

172
1
173
1
174
1
140
1.0
141
1.0
175
1
  7

176
1
177
1
178
1
143
1.0
179
1
  8

270
1
271
1
272
1
145
1.0
146
1.0
273
1
  9

274
1
275
1
276
1
 42
1.0
 72
1
  3

 73
1
 74
1
 75
1
 94
63
  0
MATERIAL
  5
20
102
{ACAD_REACTORS
330
E
102
}
330
E
100
AcDbMaterial
  1
ByLayer
  2

 70
0
 40
1.0
 71
1
 41
1.0
 91
-1023410177
 42
1.0
 72
1
  3

 73
1
 74
1
 75
1
 44
0.5
 73
0
 45
1.0
 46
1.0
 77
1
  4

 78
1
 79
1
170
1
 48
1.0
171
1
  6

172
1
173
1
174
1
140
1.0
141
1.0
175
1
  7

176
1
177
1
178
1
143
1.0
179
1
  8

270
1
271
1
272
1
145
1.0
146
1.0
273
1
  9

274
1
275
1
276
1
 42
1.0
 72
1
  3

 73
1
 74
1
 75
1
 94
63
  0
MATERIAL
  5
21
102
{ACAD_REACTORS
330
E
102
}
330
E
100
AcDbMaterial
  1
Global
  2

 70
0
 40
1.0
 71
1
 41
1.0
 91
-1023410177
 42
1.0
 72
1
  3

 73
1
 74
1
 75
1
 44
0.5
 73
0
 45
1.0
 46
1.0
 77
1
  4

 78
1
 79
1
170
1
 48
1.0
171
1
  6

172
1
173
1
174
1
140
1.0
141
1.0
175
1
  7

176
1
177
1
178
1
143
1.0
179
1
  8

270
1
271
1
272
1
145
1.0
146
1.0
273
1
  9

274
1
275
1
276
1
 42
1.0
 72
1
  3

 73
1
 74
1
 75
1
 94
63
  0
MLINESTYLE
  5
22
102
{ACAD_REACTORS
330
10
102
}
330
10
100
AcDbMlineStyle
  2
Standard
 70
0
  3

 62
256
 51
90.0
 52
90.0
 71
2
 49
0.5
 62
256
  6
BYLAYER
 49
-0.5
 62
256
  6
BYLAYER
  0
MLEADERSTYLE
  5
2C
102
{ACAD_REACTORS
330
F
102
}
330
F
100
AcDbMLeaderStyle
179
2
170
2
171
1
172
0
 90
2
 40
0.0
 41
0.0
173
1
 91
-1056964608
 92
-2
290
1
 42
2.0
291
1
 43
8.0
  3
Standard
 44
4.0
300

342
29
174
1
175
1
176
0
178
1
 93
-1056964608
 45
4.0
292
0
297
0
 46
4.0
 94
-1056964608
 47
1.0
 49
1.0
140
1.0
294
1
141
0.0
177
0
142
1.0
295
0
296
0
143
3.75
271
0
272
9
273
9
  0
DICTIONARY
  5
2D
330
A
100
AcDbDictionary
281
1
  3
CREATED_BY_EZDXF
350
2E
  3
WRITTEN_BY_EZDXF
350
4F
  0
DICTIONARYVAR
  5
2E
330
2D
100
DictionaryVariables
280
0
  1
1.3.4 @ 2024-12-04T16:31:32.414607+00:00
  0
DICTIONARYVAR
  5
4F
330
2D
100
DictionaryVariables
280
0
  1
1.3.4 @ 2024-12-04T16:31:32.429567+00:00
  0
ENDSEC
  0
EOF
